<?xml version="1.0" encoding="UTF-8"?>
<svg xmlns="http://www.w3.org/2000/svg" width="125" height="60" viewBox="0 0 125 60" fill="none">
  <path d="M45.8627 37.3308V51.9925C45.8627 56.0413 56.4665 59.3233 69.5469 59.3233C82.6274 59.3233 93.2311 56.0413 93.2311 51.9925V37.3308H45.8627Z" fill="#881421"></path>
  <path d="M45.8627 22.6692V37.3308C45.8627 41.3797 56.4665 44.6616 69.5469 44.6616C82.6274 44.6616 93.2311 41.3797 93.2311 37.3308V22.6692H45.8627Z" fill="#AF2031"></path>
  <path d="M45.8627 8.00754V22.6692C45.8627 26.718 56.4665 30 69.5469 30C82.6274 30 93.2311 26.718 93.2311 22.6692V8.00754H45.8627Z" fill="#C94F60"></path>
  <path d="M69.5469 15.3384C82.6273 15.3384 93.2311 12.0562 93.2311 8.00754C93.2311 3.95884 82.6273 0.67672 69.5469 0.67672C56.4665 0.67672 45.8627 3.95884 45.8627 8.00754C45.8627 12.0562 56.4665 15.3384 69.5469 15.3384Z" fill="#E08095"></path>
  <path opacity="0.2" d="M63.9078 16.8384V46.5451C63.9103 46.6967 63.8952 46.8481 63.8627 46.9962C63.7601 47.6063 63.444 48.16 62.971 48.5587C62.4979 48.9574 61.8986 49.1751 61.28 49.1729H45.8627V14.2105H61.28C61.6253 14.2099 61.9672 14.2775 62.2863 14.4094C62.6054 14.5412 62.8953 14.7348 63.1395 14.9789C63.3836 15.223 63.5772 15.5129 63.709 15.832C63.8409 16.1511 63.9084 16.4931 63.9078 16.8384Z" fill="black"></path>
  <path opacity="0.1" d="M65.0356 16.8384V44.2895C65.0262 45.2826 64.6275 46.2324 63.9252 46.9347C63.223 47.637 62.2732 48.0357 61.28 48.0451H45.8627V13.0827H61.28C62.275 13.0863 63.2282 13.4831 63.9317 14.1867C64.6353 14.8902 65.0321 15.8434 65.0356 16.8384Z" fill="black"></path>
  <path opacity="0.2" d="M63.9078 16.8384V44.2895C63.9084 44.6347 63.8409 44.9767 63.709 45.2958C63.5772 45.6149 63.3836 45.9048 63.1395 46.1489C62.8954 46.3931 62.6054 46.5866 62.2863 46.7185C61.9672 46.8503 61.6253 46.9179 61.28 46.9173H45.8627V14.2105H61.28C61.6253 14.2099 61.9672 14.2775 62.2863 14.4094C62.6054 14.5412 62.8954 14.7348 63.1395 14.9789C63.3836 15.223 63.5772 15.5129 63.709 15.832C63.8409 16.1511 63.9084 16.4931 63.9078 16.8384Z" fill="black"></path>
  <path opacity="0.1" d="M62.78 16.8384V44.2895C62.7806 44.6347 62.713 44.9767 62.5812 45.2958C62.4493 45.6149 62.2558 45.9048 62.0117 46.1489C61.7675 46.3931 61.4776 46.5866 61.1585 46.7185C60.8394 46.8503 60.4974 46.9179 60.1522 46.9173H45.8627V14.2105H60.1522C60.4974 14.2099 60.8394 14.2775 61.1585 14.4094C61.4776 14.5412 61.7675 14.7348 62.0117 14.9789C62.2558 15.223 62.4493 15.5129 62.5812 15.832C62.713 16.1511 62.7806 16.4931 62.78 16.8384Z" fill="black"></path>
  <path d="M60.1488 14.2105H33.8323C32.3791 14.2105 31.2011 15.3886 31.2011 16.8417V43.1583C31.2011 44.6114 32.3791 45.7895 33.8323 45.7895H60.1488C61.602 45.7895 62.78 44.6114 62.78 43.1583V16.8417C62.78 15.3886 61.602 14.2105 60.1488 14.2105Z" fill="#AF2031"></path>
  <path d="M45.1003 21.4466H48.9766L55.2033 38.5522H51.5413L50.1699 34.4729H43.7639L42.4161 38.5522H38.7778L45.1003 21.4466ZM49.3466 31.8372L47.3548 25.6455C47.1909 25.1922 47.0671 24.7254 46.9849 24.2504H46.9127C46.8384 24.7379 46.7188 25.2175 46.5552 25.6827L44.5398 31.8372H49.3466Z" fill="white"></path>
</svg>
