<?xml version="1.0" encoding="UTF-8"?>
<svg xmlns="http://www.w3.org/2000/svg" width="125" height="60" viewBox="0 0 125 60" fill="none">
  <g clip-path="url(#clip0_2753_1849)">
    <path d="M34.142 47.071C34.7929 47.071 35.3846 47.2189 35.7101 47.5148C35.7693 47.9882 35.3255 48.7574 35.0592 48.7574C34.7338 48.6391 34.4379 48.5799 34.0533 48.5799C32.5148 48.5799 31.7456 50.1775 31.7456 51.7456C31.7456 52.7219 32.071 53.3136 32.8699 53.3136C33.6983 53.3136 34.5267 52.7515 35 52.3373C35.1184 52.426 35.2663 52.6923 35.2663 52.9882C35.2663 53.3136 35.1775 53.6391 34.8521 53.9645C34.3196 54.497 33.4024 54.9704 32.071 54.9704C30.5622 54.9704 29.4971 54.1124 29.4971 52.1006C29.5562 49.4379 31.2722 47.071 34.142 47.071ZM39.1125 53.2249C39.9409 53.2249 41.4497 51.7751 41.8639 48.9941C41.8935 48.8166 41.8935 48.787 41.9231 48.6095C41.7456 48.5503 41.4793 48.4911 41.2426 48.4911C40.6213 48.4911 39.9704 48.6686 39.4083 49.4675C38.8166 50.2959 38.5503 51.3314 38.5503 52.1598C38.5503 52.8402 38.7574 53.2249 39.1125 53.2249ZM36.3906 52.4556C36.3906 51.4497 36.716 49.7337 37.9882 48.4615C39.0829 47.3373 40.3846 47.071 41.5977 47.071C42.3965 47.071 43.4616 47.3373 44.142 47.4556C43.9645 48.1953 43.5799 51.0059 43.3728 52.6331C43.2841 53.3136 43.2545 54.2899 43.2841 54.645C42.7219 54.8817 41.6864 54.9408 41.3906 54.9408C41.2426 54.9408 41.213 54.2604 41.2426 53.5799C41.2722 53.3728 41.3018 53.0473 41.3018 52.8994C40.6509 53.9941 39.3491 54.9112 37.9882 54.9112C37.0119 54.9408 36.3906 54.1124 36.3906 52.4556ZM48.3432 47.071C49.0237 47.071 49.7042 47.3373 50 47.6331C49.9704 48.1065 49.6154 48.9053 49.0237 48.6686C48.7574 48.5799 48.5207 48.5207 48.1657 48.5207C47.7219 48.5207 47.3077 48.7278 47.3077 49.142C47.3077 49.4675 47.5444 49.7041 48.6687 50.503C49.4675 51.0947 49.7929 51.6272 49.7929 52.3669C49.7929 53.6095 48.6391 54.9408 46.5977 54.9408C45.7693 54.9408 45.0296 54.6154 44.8225 54.2899C44.5267 53.787 44.7633 52.7811 45.0888 52.9586C45.5326 53.1657 46.2426 53.4024 46.8343 53.4024C47.3965 53.4024 47.7515 53.1361 47.7515 52.8107C47.7515 52.5148 47.4852 52.2781 46.4793 51.5385C45.6213 50.8876 45.3551 50.2959 45.3551 49.645C45.3551 48.2249 46.5681 47.071 48.3432 47.071ZM54.1716 47.071C54.8521 47.071 55.5326 47.3373 55.8284 47.6331C55.7988 48.1065 55.4438 48.9053 54.8521 48.6686C54.5858 48.5799 54.3491 48.5207 53.9941 48.5207C53.5503 48.5207 53.1361 48.7278 53.1361 49.142C53.1361 49.4675 53.3728 49.7041 54.4971 50.503C55.2959 51.0947 55.6213 51.6272 55.6213 52.3669C55.6213 53.6095 54.4675 54.9408 52.4261 54.9408C51.5977 54.9408 50.8876 54.6154 50.6509 54.2899C50.3551 53.787 50.5917 52.7811 50.9172 52.9586C51.361 53.1657 52.071 53.4024 52.6627 53.4024C53.2249 53.4024 53.5799 53.1361 53.5799 52.8107C53.5799 52.5148 53.3136 52.2781 52.3077 51.5385C51.4497 50.8876 51.1835 50.2959 51.1835 49.645C51.1835 48.2249 52.3965 47.071 54.1716 47.071ZM59.4675 53.2249C60.2959 53.2249 61.8048 51.7751 62.219 48.9941C62.2485 48.8166 62.2485 48.787 62.2781 48.6095C62.1006 48.5503 61.8343 48.4911 61.5977 48.4911C60.9764 48.4911 60.3255 48.6686 59.7633 49.4675C59.1716 50.2959 58.9054 51.3314 58.9054 52.1598C58.9349 52.8402 59.1125 53.2249 59.4675 53.2249ZM56.7456 52.4556C56.7456 51.4497 57.071 49.7337 58.3432 48.4615C59.4379 47.3373 60.7397 47.071 61.9527 47.071C62.7515 47.071 63.8166 47.3373 64.4971 47.4556C64.3196 48.1953 63.9349 51.0059 63.7278 52.6331C63.6391 53.3136 63.6095 54.2899 63.6391 54.645C63.077 54.8817 62.0414 54.9408 61.7456 54.9408C61.5977 54.9408 61.5681 54.2604 61.5977 53.5799C61.6272 53.3728 61.6568 53.0473 61.6568 52.8994C61.0059 53.9941 59.7042 54.9112 58.3432 54.9112C57.3965 54.9408 56.7456 54.1124 56.7456 52.4556ZM68.3136 49.2604C69.0829 48.0178 70.0888 47.071 71.5089 47.071C72.7219 47.071 73.1065 48.1953 72.8698 49.7633C72.7515 50.503 72.5444 51.568 72.4261 52.5444C72.3077 53.3728 72.219 54.1124 72.2485 54.6154C71.8048 54.8225 70.5326 54.9112 70.2367 54.9112C70.1184 54.9112 70.0888 53.9941 70.2663 53.0178C70.4142 52.2189 70.6805 50.7396 70.8284 49.8817C70.9172 49.3787 70.8876 48.787 70.4142 48.787C69.7929 48.787 68.3136 49.7929 67.574 53.8757C67.5148 54.2012 67.3965 54.4083 67.1894 54.5266C66.9231 54.6746 66.3906 54.8225 65.2959 54.8225C65.503 53.787 65.8284 51.6864 66.0651 50.1183C66.2722 48.6982 66.361 47.7811 66.3314 47.426C66.6272 47.3373 68.1361 47.0118 68.2841 47.0118C68.4616 47.0118 68.4912 47.5444 68.3432 48.787C68.3136 48.9053 68.3136 49.0828 68.2841 49.2012H68.3136V49.2604ZM76.8935 53.1953C77.6332 53.1953 79.142 51.8047 79.5562 49.3491C79.5858 49.2012 79.6154 48.9645 79.645 48.8166C79.4379 48.6095 79.142 48.4911 78.6687 48.4911C76.9527 48.4911 76.213 50.5325 76.213 52.0118C76.2426 52.7811 76.5089 53.1953 76.8935 53.1953ZM75.7988 54.9408C74.7042 54.9408 74.0533 53.9645 74.0533 52.3373C74.0533 49.6154 75.7693 47.1006 78.6391 47.1006C79.142 47.1006 79.6154 47.2485 79.8817 47.3965C80.0296 46.6272 80.3846 44.2308 80.4142 43.5207C80.8876 43.432 81.8935 43.284 82.3669 43.284C82.5444 43.284 82.6036 43.4615 82.5444 43.9053C82.1302 46.4497 81.4201 51.3018 81.2722 52.3669C81.1835 53.284 81.1539 54.1716 81.1835 54.6746C80.6509 54.9112 79.5562 54.9704 79.2604 54.9704C79.142 54.9704 79.0829 54.2012 79.1125 53.4911C79.142 53.284 79.1716 52.9586 79.1716 52.8994C78.2545 54.2604 77.1006 54.9408 75.7988 54.9408ZM85.6805 49.497C86.5681 47.5148 87.6332 47.071 88.3432 47.071C88.5503 47.071 88.9054 47.2189 89.0533 47.3669C89.1125 47.929 88.6687 49.0237 88.284 49.4675C88.0769 49.3787 87.8403 49.2604 87.5444 49.2604C86.9823 49.2604 85.8284 50.1479 85.1184 53.9941C85.0592 54.3195 84.9704 54.4379 84.7929 54.5266C84.4971 54.7041 83.3728 54.8225 82.8403 54.8521C83.1065 53.4615 83.5207 50.6509 83.6982 48.9941C83.7574 48.5799 83.7574 47.7811 83.7278 47.4852C84.0533 47.3373 85.3255 47.0414 85.5917 47.0414C85.7397 47.0414 85.858 47.9586 85.6213 49.4675H85.6805V49.497ZM91.6272 53.2249C92.4556 53.2249 93.9645 51.7751 94.3787 48.9941C94.4083 48.8166 94.4083 48.787 94.4379 48.6095C94.2604 48.5503 93.9941 48.4911 93.7574 48.4911C93.1361 48.4911 92.4852 48.6686 91.9231 49.4675C91.3314 50.2959 91.0651 51.3314 91.0651 52.1598C91.0947 52.8402 91.2722 53.2249 91.6272 53.2249ZM88.9054 52.4556C88.9054 51.4497 89.2308 49.7337 90.503 48.4615C91.5977 47.3373 92.8994 47.071 94.1125 47.071C94.9113 47.071 95.9764 47.3373 96.6568 47.4556C96.4793 48.1953 96.0947 51.0059 95.8876 52.6331C95.7988 53.3136 95.7693 54.2899 95.7988 54.645C95.2367 54.8817 94.2012 54.9408 93.9053 54.9408C93.7574 54.9408 93.7278 54.2604 93.7574 53.5799C93.787 53.3728 93.8166 53.0473 93.8166 52.8994C93.1657 53.9941 91.8639 54.9112 90.503 54.9112C89.5562 54.9408 88.9054 54.1124 88.9054 52.4556Z" fill="#373535"></path>
    <path d="M85.7988 18.4615C86.361 24.9408 76.1539 31.1243 62.9882 32.2485C49.8225 33.3728 38.7278 29.0237 38.1657 22.5444C37.6036 16.0651 47.8107 9.88166 60.9764 8.7574C74.1124 7.63314 85.2367 11.9527 85.7988 18.4615Z" fill="#BBE6FB"></path>
    <path d="M61.3313 9.49704C56.3017 9.40828 50.4437 11.4201 46.065 13.284C45.6213 14.5858 45.355 15.9763 45.355 17.426C45.355 25.1183 52.3076 31.3609 60.8875 31.3609C69.4674 31.3609 76.4496 25.1479 76.4496 17.426C76.4496 15 75.7396 12.6923 74.5266 10.7101C71.0354 10.1775 66.213 9.5858 61.3313 9.49704Z" fill="white"></path>
    <path d="M60.9171 9.49704C58.1361 9.31953 53.3432 10.7692 49.3491 12.2189C48.7278 13.6391 48.4023 15.2071 48.4023 16.8639C48.4023 23.6095 54.5266 29.0828 60.9763 29.0828C67.3964 29.0828 73.0769 23.6095 73.5503 16.8639C73.6982 14.6746 72.9586 12.6036 71.8935 10.8284C67.781 10.1183 63.4023 9.67456 60.9171 9.49704Z" fill="white"></path>
    <path d="M53.787 16.0059C54.1421 15.2367 54.645 14.8817 55.148 14.2604C55.0888 14.1124 54.9705 13.6095 54.9705 13.4615C54.9705 12.6923 55.5918 12.1006 56.3314 12.1006C56.5089 12.1006 56.6864 12.1302 56.8344 12.1893C59.1125 10.4438 62.1006 9.70414 65.1184 10.3846C65.3847 10.4438 65.6509 10.5325 65.9172 10.5917C62.9586 10.1775 59.5858 11.2426 57.3077 13.0769C57.3669 13.2544 57.574 13.6982 57.574 13.9053C57.574 14.6746 57.071 14.8521 56.3314 14.8521C56.1539 14.8521 56.006 14.8225 55.8284 14.7633C55.3255 15.4438 54.6746 16.7751 54.3787 17.6035C55.6509 18.7278 56.7752 19.142 58.2545 19.7041C58.2545 19.645 58.3137 19.5562 58.3137 19.497C58.3137 17.2189 60.3255 15.355 62.6036 15.355C64.645 15.355 66.361 16.8343 66.6864 18.787C67.7219 18.1361 68.6983 17.6331 69.4379 16.6864C69.2604 16.4793 69.0829 15.858 69.0829 15.5621C69.0829 14.8817 69.645 14.3195 70.3255 14.3195C70.4142 14.3195 70.503 14.3195 70.6213 14.3491C71.006 13.5503 71.3018 12.7219 71.4793 11.8639C67.8995 9.20118 60.9764 9.5858 60.9764 9.5858C60.9764 9.5858 55.4734 9.28994 51.7456 11.1243C52.0119 12.8402 52.7219 14.5562 53.787 16.0059Z" fill="#373535"></path>
    <path d="M70.8876 14.9704C71.1538 15.2071 71.2722 15.3846 71.3905 15.5917C71.716 16.1834 71.0651 16.7456 70.355 16.7456C70.2958 16.7456 70.2071 16.7456 70.1479 16.716C69.3787 17.929 68.0177 19.4675 66.8047 20.2663C68.6686 20.5621 70.4142 21.3018 71.7751 22.4556C72.7811 20.6509 73.5503 18.0178 73.5503 15.7988C73.5503 14.1124 72.8106 12.8698 71.6864 11.9527C71.6568 12.8698 71.1538 14.142 70.8876 14.9704ZM55.858 26.4497C56.4793 24.7337 57.9882 23.432 59.4379 22.2781C59.2308 21.9822 58.9053 21.2722 58.787 20.9467C57.0414 20.4142 55.5029 19.4083 54.2899 18.1065C54.2899 18.1361 54.2603 18.1953 54.2603 18.2249C54.0237 19.2308 53.9941 20.2663 54.1124 21.2426C54.9408 21.3905 55.5917 22.1302 55.5917 23.0178C55.5917 23.5503 55.1183 24.2899 54.7633 24.645C55.1183 25.4142 55.3846 25.8284 55.858 26.4497Z" fill="#373535"></path>
    <path d="M55.7396 27.8698C55 27.1302 54.497 25.6805 54.0236 24.7633C53.9349 24.7633 53.8461 24.7929 53.7574 24.7929C52.7515 24.7929 51.716 23.9645 51.9526 22.9882C52.071 22.4556 52.4556 22.1006 53.0473 21.8047C52.8994 20.6805 52.8698 19.1124 53.1361 17.9586C53.1952 17.6331 53.3728 17.4852 53.4615 17.1598C52.3668 15.5621 51.6568 13.432 51.6568 11.3314V11.0947C49.7929 12.0414 48.4023 13.4911 48.4023 15.7988C48.4023 20.9172 51.3609 25.9467 55.7396 27.8994V27.8698ZM66.5384 20.7988C65.9763 22.3964 64.4378 23.5799 62.6331 23.5799C61.6568 23.5799 60.7692 23.2544 60.0887 22.6923C58.639 23.8166 57.3077 25.7988 56.6568 27.5444C56.9526 27.8698 57.1597 28.1361 57.5148 28.432C58.5207 28.6982 59.9408 28.432 61.0355 28.432C65.4438 28.432 69.3787 26.4793 71.6272 23.0178C70.0887 21.9527 68.3136 20.9467 66.5384 20.7988Z" fill="#373535"></path>
    <path d="M53.6687 16.5976C54.0237 15.8284 54.4379 15.1479 54.9408 14.497C54.8817 14.3491 54.8521 14.1716 54.8521 14.0237C54.8521 13.2544 55.4734 12.6627 56.213 12.6627C56.3905 12.6627 56.5681 12.6923 56.716 12.7515C58.9941 11.0059 61.9823 10.2663 65 10.9467C65.2663 11.0059 65.5326 11.0947 65.7988 11.1538C62.8402 10.7396 59.7633 11.6568 57.4852 13.4911C57.5444 13.6686 57.6036 13.8462 57.6036 14.0237C57.6036 14.7929 56.9823 15.3846 56.2426 15.3846C56.0651 15.3846 55.9172 15.355 55.7397 15.2959C55.2367 15.9763 54.7929 16.7456 54.4971 17.574C55.5917 18.7278 56.9231 19.6746 58.4024 20.2071V20C58.4024 17.7219 60.2663 15.858 62.5444 15.858C64.5858 15.858 66.3018 17.3373 66.6272 19.2899C67.6627 18.6391 68.5503 17.8107 69.3195 16.8343C69.142 16.6272 69.0237 16.3609 69.0237 16.0651C69.0237 15.3846 69.5858 14.8225 70.2663 14.8225C70.355 14.8225 70.4438 14.8225 70.5621 14.8521C70.9468 14.0533 71.2426 13.2249 71.4201 12.3669C67.8402 9.70414 60.9172 10.0888 60.9172 10.0888C60.9172 10.0888 55.4142 9.7929 51.6864 11.6272C51.8935 13.432 52.6036 15.1479 53.6687 16.5976Z" fill="#1287B1"></path>
    <path d="M71.0651 15.1775C71.3314 15.4142 71.4793 15.7396 71.4793 16.0947C71.4793 16.7751 70.9172 17.3373 70.2367 17.3373C70.1776 17.3373 70.0888 17.3373 70.0296 17.3077C69.2604 18.5207 68.2249 19.5562 67.0119 20.3254C68.787 20.5917 70.4734 21.3609 71.8639 22.5148C72.8699 20.7101 73.4616 18.6095 73.4616 16.3905C73.4616 14.7041 72.7219 13.4615 71.5977 12.5444C71.5385 13.4615 71.361 14.3491 71.0651 15.1775ZM56.0355 26.8343C56.6568 25.1183 57.7219 23.6095 59.1716 22.4556C58.9645 22.1598 58.787 21.8639 58.6687 21.5089C56.9231 20.9763 55.3847 19.9704 54.1716 18.6686C54.1716 18.6982 54.1421 18.7574 54.1421 18.787C53.9054 19.7929 53.8758 20.8284 53.9941 21.8047C54.8225 21.9527 55.4734 22.6923 55.4734 23.5799C55.4734 24.1124 55.2367 24.5858 54.8817 24.9112C55.1776 25.5917 55.5918 26.2426 56.0355 26.8343Z" fill="#1287B1"></path>
    <path d="M55.7397 27.8402C55 27.1006 54.3787 26.2722 53.9054 25.355C53.8166 25.355 53.7278 25.3846 53.6391 25.3846C52.6332 25.3846 51.8344 24.5858 51.8344 23.5799C51.8344 22.8698 52.2486 22.2485 52.8403 21.9527C52.6923 20.8284 52.7515 19.7041 53.0178 18.5503C53.077 18.2249 53.1953 17.8994 53.2841 17.574C52.1894 15.9763 51.5385 14.0237 51.5385 11.9231V11.6864C49.6746 12.6331 48.2841 14.0828 48.2841 16.3905C48.2841 21.5089 51.3314 25.9172 55.7101 27.8698C55.7397 27.8698 55.7397 27.8698 55.7397 27.8402ZM66.4202 21.3905C65.858 22.9882 64.3196 24.1716 62.5148 24.1716C61.5385 24.1716 60.6509 23.8462 59.9704 23.284C58.5207 24.4083 57.4261 25.9467 56.7456 27.6923C57.0415 28.0177 57.3669 28.3136 57.6923 28.6095C58.6983 28.8757 59.7633 29.0237 60.858 29.0237C65.2663 29.0237 69.1716 26.7456 71.4201 23.284C69.9409 22.2189 68.1953 21.5385 66.4202 21.3905Z" fill="#1287B1"></path>
    <path d="M66.568 20.3254L70.3846 19.4083L66.5384 19.2012L69.6745 16.8343L66.1243 18.1065L68.5207 14.7633L65.1775 16.9822L66.3313 13.0769L64.0532 16.3018L63.9941 12.2189L62.4852 15.858L61.2426 12.1893L61.3018 16.5089L59.142 12.6331L60.3254 16.7456L56.8047 14.2012L59.5562 17.6627L55.1775 16.0651L58.6095 18.6095L54.2012 18.7574L58.7278 19.9112L54.2012 20.8876L58.6686 21.213L54.9112 23.6095L58.787 22.2189L56.0947 25.6213L59.497 22.8698L58.284 27.426L60.9171 23.6982L60.5621 28.0769L62.0414 24.0828L63.3136 28.2544L63.6095 24.0533L65.5029 27.6331L64.3787 23.5503L67.8106 26.213L65.5917 22.8106L69.3787 24.2899L66.4793 21.4497L70.355 21.7456L66.568 20.3254Z" fill="white"></path>
    <path d="M25.8284 27.6331C37.6923 15.7692 47.1597 12.1006 55.7692 10.4438C56.8935 10.2367 57.1301 7.72189 57.1301 7.72189C57.1301 7.72189 57.2781 9.55621 58.0769 9.7929C58.8757 10.0296 59.9112 6.92308 59.9112 6.92308C59.9112 6.92308 58.9645 9.70414 59.9112 9.88166C60.858 10.0296 62.6331 7.15976 62.6331 7.15976C62.6331 7.15976 61.923 9.61538 62.3964 9.7929C62.8698 9.94083 65.2662 6.21302 65.2662 6.21302C65.2662 6.21302 63.8461 8.66864 65.1775 8.93491C66.5384 9.1716 68.5207 7.24852 68.5207 7.24852C68.5207 7.24852 66.9822 8.99408 67.6627 9.26035C70.6213 10.2959 72.9881 6.47929 72.9881 6.47929C72.9881 6.47929 72.426 8.16568 71.0059 10C74.1124 10.7988 76.4201 6.12426 76.4201 6.12426L74.1124 10.7988C75.2958 11.3905 80.0591 5.88757 80.0591 5.88757C80.0591 5.88757 77.6035 10.1775 76.1538 11.0651C76.9526 11.716 79.8225 9.14201 79.8225 9.14201C79.8225 9.14201 77.5148 12.0118 78.4023 12.1598C79.6745 13.1953 84.3787 6.83432 84.3787 6.83432C84.3787 6.83432 82.5443 10.5917 79.852 13.5207C82.1006 14.6746 87.7219 7.42603 87.7219 7.42603C87.7219 7.42603 87.5739 9.73373 83.4911 13.4024C86.5088 13.0178 90.4142 7.27811 90.4142 7.27811C90.4142 7.27811 88.994 11.568 85.5621 14.6154C88.5207 14.3195 93.284 6.98225 93.284 6.98225C93.284 6.98225 91.4497 12.071 87.7219 15.0296C91.8639 15.9467 97.8402 9.76331 97.8402 9.76331C97.8402 9.76331 95.5029 14.142 92.426 15.9467C95.858 17.2485 100.562 11.8343 100.562 11.8343C100.562 11.8343 95.858 19.0828 88.3727 18.7574C85.9171 18.6391 78.4911 11.3018 62.5739 11.8935C41.5088 12.6627 37.071 21.5976 25.8284 27.6331Z" fill="#373535" fill-opacity="0.35"></path>
    <path d="M26.3018 26.7456C38.1657 14.8817 47.6331 11.213 56.2426 9.55621C57.3668 9.34911 57.6035 6.83432 57.6035 6.83432C57.6035 6.83432 57.7515 8.66864 58.5503 8.90533C59.3491 9.14201 60.3846 6.0355 60.3846 6.0355C60.3846 6.0355 59.4379 8.81657 60.3846 8.99408C61.3313 9.14201 63.1065 6.27219 63.1065 6.27219C63.1065 6.27219 62.3964 8.72781 62.8698 8.90533C63.3432 9.05325 65.7396 5.32544 65.7396 5.32544C65.7396 5.32544 64.3195 7.78107 65.6509 8.04734C67.0118 8.28402 68.9941 6.36095 68.9941 6.36095C68.9941 6.36095 67.4556 8.10651 68.1361 8.37278C71.0947 9.40828 73.4615 5.59172 73.4615 5.59172C73.4615 5.59172 72.8994 7.27811 71.4793 9.11243C74.5858 9.91124 76.8935 5.23669 76.8935 5.23669L74.5858 9.91124C75.7692 10.5621 80.5621 5.05917 80.5621 5.05917C80.5621 5.05917 78.1065 9.34911 76.6568 10.2367C77.4556 10.7988 80.3254 8.25444 80.3254 8.25444C80.3254 8.25444 78.0177 11.1243 78.9053 11.2722C80.1775 12.3077 84.8816 5.94675 84.8816 5.94675C84.8816 5.94675 83.0177 9.70414 80.3254 12.6331C82.574 13.7574 88.2248 6.50888 88.2248 6.50888C88.2248 6.50888 88.0769 8.81657 83.9941 12.4852C87.0118 12.1006 90.9171 6.36095 90.9171 6.36095C90.9171 6.36095 89.497 10.6509 86.0651 13.6982C89.0237 13.4024 93.787 6.06509 93.787 6.06509C93.787 6.06509 91.9526 11.1538 88.2248 14.1124C92.3668 15.0296 98.3432 8.84615 98.3432 8.84615C98.3432 8.84615 96.0059 13.2249 92.929 15.0296C96.3609 16.3314 101.065 10.9172 101.065 10.9172C101.065 10.9172 96.3609 18.1657 88.8757 17.8402C86.4201 17.7219 78.9941 10.3846 63.0769 10.9763C42.0118 11.7751 37.5444 20.6805 26.3018 26.7456Z" fill="#373535"></path>
    <path d="M25.5326 28.9349C31.8048 32.071 37.5444 28.4615 44.7634 30.503C50.2663 32.0414 56.9527 33.9645 66.0356 32.6331C75.1184 31.3314 82.8699 27.3669 86.5977 20.3254C87.7515 17.1893 92.4557 21.0355 92.4557 21.0355C92.4557 21.0355 89.0237 19.6154 89.1125 20.2663C89.2012 20.9467 94.2604 23.284 94.2604 23.284C94.2604 23.284 89.6746 21.8639 89.9705 22.929C90.2367 23.9941 95.7101 28.3136 95.7101 28.3136C95.7101 28.3136 89.4675 23.6391 88.9645 24.2899C88.432 24.9408 91.5977 27.5148 91.5977 27.5148C91.5977 27.5148 86.3906 24.2899 84.5563 25.2367C83.2249 25.9172 89.9705 30.3254 89.9705 30.3254C89.9705 30.3254 85.5918 26.9822 84.5563 27.8698C83.5208 28.7574 89.4971 35.9172 89.4971 35.9172C89.4971 35.9172 82.6924 28.5799 82.0119 28.9349C81.3314 29.2899 83.8758 32.8107 83.8758 32.8107C83.8758 32.8107 80.5622 29.142 79.645 29.7633C78.7279 30.4142 84.4379 39.9112 84.4379 39.9112C84.4379 39.9112 78.2545 30.1775 75.6805 31.8047C79.6746 40.5917 78.1953 41.8343 78.1953 41.8343C78.1953 41.8343 77.6924 32.8698 72.6924 33.1065C70.1776 33.2249 73.8758 39.7929 73.8758 39.7929C73.8758 39.7929 70.4734 33.787 68.1953 33.9053C72.3669 41.8343 70.8876 45.0296 70.8876 45.0296C70.8876 45.0296 71.5681 38.2544 65.9172 34.497C68.077 36.4201 64.5563 45.0296 64.5563 45.0296C64.5563 45.0296 67.6332 32.3373 62.2782 34.7633C61.4202 35.1479 62.219 41.0947 62.219 41.0947C62.219 41.0947 61.1539 34.2899 59.5267 34.645C58.5799 34.8521 53.5503 44.0828 53.5503 44.0828C53.5503 44.0828 57.6628 34.1124 56.4202 34.5266C55.503 34.8225 53.787 38.9349 53.787 38.9349C53.787 38.9349 54.6154 34.8817 53.787 34.645C52.9586 34.4083 48.2841 38.9349 48.2841 38.9349C48.2841 38.9349 51.7456 34.8817 51.1539 34.0237C50.2367 32.7515 49.2012 32.6923 47.929 33.1953C46.0947 33.9053 43.6391 37.2485 43.6391 37.2485C43.6391 37.2485 46.0947 33.8462 45.6805 32.6036C45 30.5621 37.929 36.5385 37.929 36.5385C37.929 36.5385 42.1006 32.6036 41.1539 31.7456C40.2071 30.9172 35 31.1538 33.4024 31.1538C28.6391 31.213 26.9823 30.0888 25.5326 28.9349Z" fill="#373535" fill-opacity="0.35"></path>
    <path d="M25.2662 28.2249C31.5384 31.3609 37.2781 27.7515 44.497 29.7929C50 31.3314 56.6864 33.2544 65.7692 31.9231C74.852 30.6213 82.6035 26.6568 86.3313 19.6154C87.4852 16.4793 92.1893 20.3254 92.1893 20.3254C92.1893 20.3254 88.7574 18.9053 88.8461 19.5562C88.9349 20.2367 93.994 22.574 93.994 22.574C93.994 22.574 89.4082 21.1538 89.7041 22.2189C89.9704 23.284 95.4438 27.6036 95.4438 27.6036C95.4438 27.6036 89.2603 22.8994 88.7574 23.5503C88.2544 24.2012 91.3905 26.7751 91.3905 26.7751C91.3905 26.7751 86.1834 23.5503 84.3491 24.497C83.0177 25.1775 89.7633 29.5858 89.7633 29.5858C89.7633 29.5858 85.3846 26.2426 84.3491 27.1302C83.3136 28.0178 89.2899 35.1775 89.2899 35.1775C89.2899 35.1775 82.5148 27.8402 81.8343 28.1953C81.1538 28.5503 83.6982 32.071 83.6982 32.071C83.6982 32.071 80.3254 28.432 79.4082 29.0533C78.4911 29.7041 84.1716 39.2012 84.1716 39.2012C84.1716 39.2012 77.9881 29.4379 75.4438 31.0651C79.4674 39.8817 77.9585 41.1243 77.9585 41.1243C77.9585 41.1243 77.4556 32.1598 72.4556 32.3965C69.9408 32.5148 73.639 39.0828 73.639 39.0828C73.639 39.0828 70.2662 33.1065 67.9881 33.2249C72.1597 41.1538 70.6804 44.3491 70.6804 44.3491C70.6804 44.3491 71.3609 37.574 65.71 33.8166C67.8698 35.7396 64.3491 44.3491 64.3491 44.3491C64.3491 44.3491 67.426 31.6568 62.071 34.0828C61.213 34.4675 62.0118 40.4142 62.0118 40.4142C62.0118 40.4142 60.9467 33.6095 59.3195 33.9645C58.3727 34.1716 53.3432 43.4024 53.3432 43.4024C53.3432 43.4024 57.4556 33.432 56.213 33.8462C55.2958 34.142 53.5798 38.2544 53.5798 38.2544C53.5798 38.2544 54.4082 34.2012 53.5798 33.9645C52.7514 33.7278 48.0769 38.2544 48.0769 38.2544C48.0769 38.2544 51.5384 34.2012 50.9467 33.3432C50.0295 32.071 48.994 32.0118 47.7219 32.5148C45.8875 33.2249 43.4319 36.568 43.4319 36.568C43.4319 36.568 45.8875 33.1657 45.4733 31.9231C44.7929 29.8817 37.7219 35.858 37.7219 35.858C37.7219 35.858 41.8935 31.9231 40.9467 31.0651C40 30.2367 34.7929 30.4734 33.1952 30.4734C28.3727 30.503 26.7159 29.3787 25.2662 28.2249Z" fill="#373535"></path>
  </g>
  <defs>
    <clipPath id="clip0_2753_1849">
      <rect width="75.7576" height="50" fill="white" transform="translate(25 5)"></rect>
    </clipPath>
  </defs>
</svg>
