<?xml version="1.0" encoding="UTF-8"?>
<svg xmlns="http://www.w3.org/2000/svg" width="125" height="60" viewBox="0 0 125 60" fill="none">
  <path fill-rule="evenodd" clip-rule="evenodd" d="M60.7421 12.4611C61.2841 12.7049 61.5492 13.4366 61.7356 14.4232L67.536 45.6205L39.6794 29.2106L33.0936 4.84814C32.9122 4.1371 33.5329 3.6802 34.1202 3.86696L45.5161 7.61526C46.8045 8.03048 46.1548 5.81331 47.1313 6.10847L55.6988 8.69182C56.5473 8.99765 56.2058 10.857 57.0595 11.2352L60.7421 12.4611Z" fill="#236BB3"></path>
  <path fill-rule="evenodd" clip-rule="evenodd" d="M75.5279 8.49806L46.2459 0.946096C45.6793 0.813693 45.3114 1.09451 45.1063 1.75152L43.7399 7.03129L45.5159 7.61559C46.8042 8.03081 46.1545 5.81365 47.131 6.1088L55.6985 8.69216C56.547 8.99798 56.2055 10.8573 57.0592 11.2355L60.7418 12.4611C61.2838 12.7049 61.5489 13.4366 61.7354 14.4232L67.5344 45.6115L67.5377 45.6169L76.3834 10.1976C76.5478 9.42454 76.1479 8.68782 75.5279 8.49806Z" fill="#EEBD31"></path>
  <path fill-rule="evenodd" clip-rule="evenodd" d="M92.1166 33.7126L72.0905 27.3863L67.5381 45.6165L67.5347 45.6112L67.5361 45.6202L93.1425 34.6274C93.7535 34.2916 92.8213 33.9991 92.1166 33.7126Z" fill="#C9D3EB"></path>
  <path fill-rule="evenodd" clip-rule="evenodd" d="M36.7549 48.1799H30.9452V58.9112H32.5093V54.0046H36.7549V52.6009H32.5093V49.5836H36.7549V48.1799ZM39.4413 49.689C39.4413 49.2264 39.0581 48.8435 38.5952 48.8435C38.1323 48.8435 37.7494 49.2264 37.7494 49.689C37.7494 50.1522 38.1323 50.5351 38.5952 50.5351C39.0581 50.5351 39.4413 50.1522 39.4413 49.689ZM39.2976 51.7961H37.8772V58.9112H39.2976V51.7961ZM42.0533 48.1799H40.6326V58.9112H42.0533V48.1799ZM49.3555 56.8361C48.5254 57.3787 47.7113 57.6979 46.8495 57.6979C45.4768 57.6979 44.6627 56.9645 44.4396 55.5437H49.4829C49.4829 52.894 48.2699 51.6017 46.3706 51.6017C44.3912 51.6017 43.0189 53.0691 43.0189 55.2402C43.0189 57.2199 44.2638 59.0552 46.4983 59.0552C47.711 59.0552 48.4934 58.7844 49.3552 58.2085L49.3555 56.8361ZM44.3846 54.6019C44.5763 53.4693 45.231 52.8306 46.3163 52.8306C47.3218 52.8306 47.9441 53.5167 47.9921 54.6019H44.3846ZM59.8884 48.1799H58.4356L55.1829 52.7759L51.9589 48.1799H50.4904V58.9112H52.0546V50.8453H52.0869L55.0555 55.0585H55.3106L58.2922 50.8453H58.3239V58.9112H59.8884V48.1799ZM66.8814 57.6345C66.5622 57.8736 66.2751 58.0167 66.131 58.0167C65.9559 58.0167 65.8602 57.921 65.8602 57.6498V53.9636C65.8602 52.335 64.7106 51.601 63.2585 51.601C62.2213 51.601 61.4385 51.9202 60.8806 52.5742V54.1226C61.5669 53.3086 62.3643 52.9417 63.1464 52.9417C64.0082 52.9417 64.4401 53.3086 64.4401 54.202V54.5849L63.1784 55.0325C62.0295 55.4467 60.7368 55.8786 60.7368 57.2987C60.7368 58.2241 61.4388 59.0549 62.4927 59.0549C63.1467 59.0549 63.8014 58.8151 64.4234 58.3202C64.5518 58.8308 64.8867 59.0549 65.5093 59.0549C65.9562 59.0549 66.2277 58.9272 66.8817 58.4959L66.8814 57.6345ZM64.4401 57.4594C64.0566 57.8263 63.6413 58.049 63.1941 58.049C62.6045 58.049 62.1732 57.6348 62.1732 57.0438C62.1732 56.1977 63.2268 55.7835 64.4401 55.368V57.4594ZM68.8928 48.1799H67.4727V58.9112H68.8928V48.1799ZM73.8243 51.7447H72.1328L68.9568 55.2562L72.5477 58.9112H74.4633L70.7604 55.2562L73.8243 51.7447Z" fill="#236BB3"></path>
  <path fill-rule="evenodd" clip-rule="evenodd" d="M80.1573 56.8361C79.3275 57.3787 78.5138 57.6979 77.6513 57.6979C76.2789 57.6979 75.4645 56.9645 75.2417 55.5437H80.2854C80.2854 52.894 79.0717 51.6017 77.1724 51.6017C75.1934 51.6017 73.8203 53.0691 73.8203 55.2402C73.8203 57.2199 75.0656 59.0552 77.3001 59.0552C78.5138 59.0552 79.2952 58.7844 80.157 58.2085V56.8361H80.1573ZM75.2737 54.6019C75.4645 53.4693 76.1192 52.8306 77.2051 52.8306C78.2096 52.8306 78.8323 53.5167 78.8803 54.6019H75.2737ZM81.1115 51.7447V58.9112H82.5322V55.1599C82.5322 53.9312 83.2976 52.9574 84.2721 52.9574C84.607 52.9574 85.1653 53.2445 85.5965 53.6594L86.3462 52.4308C85.7559 51.8725 85.2136 51.601 84.6383 51.601C83.9686 51.601 83.2823 52.1273 82.5636 53.3876H82.5322V51.7441H81.1115V51.7447ZM85.0249 59.0859C85.1644 59.0864 85.3027 59.0592 85.4317 59.0059C85.5607 58.9526 85.6779 58.8743 85.7765 58.7756C85.8751 58.6768 85.9531 58.5595 86.0062 58.4304C86.0592 58.3013 86.0861 58.1629 86.0854 58.0234C86.0855 57.7419 85.9739 57.4719 85.775 57.2726C85.5761 57.0734 85.3063 56.9612 85.0249 56.9608C84.743 56.9608 84.4728 57.0727 84.2735 57.272C84.0742 57.4713 83.9623 57.7416 83.9623 58.0234C83.9623 58.3052 84.0742 58.5754 84.2735 58.7747C84.4728 58.974 84.743 59.0859 85.0249 59.0859ZM84.094 58.0234C84.0943 57.8705 84.1322 57.7201 84.2044 57.5854C84.2766 57.4507 84.3809 57.3359 84.5081 57.2511C84.6353 57.1663 84.7814 57.1142 84.9335 57.0993C85.0856 57.0845 85.239 57.1074 85.3802 57.1659C85.5214 57.2245 85.6459 57.317 85.7428 57.4351C85.8398 57.5533 85.906 57.6936 85.9358 57.8435C85.9656 57.9934 85.958 58.1483 85.9137 58.2946C85.8693 58.4409 85.7896 58.5739 85.6815 58.682C85.5956 58.7687 85.4933 58.8374 85.3805 58.8843C85.2678 58.9311 85.1469 58.9551 85.0249 58.9549C84.778 58.9545 84.5413 58.8562 84.3668 58.6816C84.1923 58.507 84.0942 58.2702 84.094 58.0234Z" fill="#236BB3"></path>
  <path fill-rule="evenodd" clip-rule="evenodd" d="M85.3974 58.645L85.5158 58.5883L85.2814 58.0881C85.3908 58.0437 85.4761 57.9193 85.4761 57.7826C85.4761 57.5871 85.3237 57.4491 85.185 57.4491H84.675V58.6293H84.8068V58.1094H85.145L85.3974 58.645ZM84.8068 57.5811H85.1853C85.253 57.5811 85.3461 57.6575 85.3461 57.7826C85.3461 57.892 85.2614 57.9787 85.1883 57.9787V57.98H84.8065V57.5811H84.8068ZM91.3055 37.9001V36.6091H91.7181V36.4367H90.7252V36.6091H91.1368V37.9001H91.3055ZM91.8835 36.4367H92.1843L92.5322 37.643L92.887 36.4367H93.1685V37.9001H93.0018V36.5824L92.5979 37.9001H92.4365L92.0476 36.5911V37.9001H91.8835V36.4367Z" fill="#236BB3"></path>
</svg>
