<?xml version="1.0" encoding="UTF-8"?>
<svg xmlns="http://www.w3.org/2000/svg" width="125" height="60" viewBox="0 0 125 60" fill="none">
  <path d="M38.4929 59.1552V38.9689H45.0745C51.8359 38.9689 55.2044 42.2556 55.2044 48.8209C55.2044 51.9359 54.2642 54.454 52.3592 56.3345C50.4542 58.2149 48.0178 59.1715 45.0336 59.1715H38.4929V59.1552ZM42.5563 42.4764V55.6314H44.772C46.7015 55.6314 48.2059 55.0182 49.3096 53.8081C50.4133 52.5818 50.9611 50.9466 50.9611 48.8699C50.9611 46.8668 50.3806 45.2971 49.2442 44.1688C48.0914 43.0405 46.6116 42.4846 44.772 42.4846H42.5563V42.4764ZM58.4175 59.1552V38.9689H65.179C67.2475 38.9689 68.8499 39.3859 69.9782 40.2198C71.1065 41.0538 71.6543 42.2066 71.6543 43.6864C71.6543 44.782 71.3027 45.7467 70.6077 46.5643C69.9128 47.3819 69.038 47.9542 67.9751 48.2731V48.3303C69.2996 48.5102 70.3707 49.0253 71.1882 49.9001C71.9976 50.7749 72.4064 51.8623 72.4064 53.1704C72.4064 55.01 71.7933 56.4653 70.5587 57.5527C69.3241 58.6401 67.6481 59.1797 65.5224 59.1797H58.4175V59.1552ZM62.4728 42.1821V47.1775H64.4023C65.3343 47.1775 66.0538 46.9404 66.5934 46.4662C67.133 45.992 67.3946 45.3379 67.3946 44.4876C67.3946 42.9424 66.3318 42.1657 64.1979 42.1657L62.4728 42.1821ZM62.4728 50.3988V55.9339H64.8846C65.9066 55.9339 66.7079 55.6804 67.2802 55.1817C67.8525 54.683 68.1468 53.9798 68.1468 53.0887C68.1468 52.2384 67.8607 51.5761 67.2802 51.1019C66.6997 50.6277 65.8903 50.3906 64.8274 50.3906L62.4728 50.3988ZM79.3151 55.6641H87.3928V59.1715H74.7284V57.6672C74.7284 56.6125 74.9083 55.6477 75.2762 54.7892C75.6441 53.9308 76.1428 53.105 76.7805 52.3528C77.4264 51.6007 78.4075 50.7258 79.7566 49.712C80.9911 48.7391 81.8414 47.8725 82.3401 47.1285C82.8389 46.3763 83.076 45.5832 83.076 44.7329C83.076 42.9097 82.1439 42.0104 80.2716 42.0104C78.6365 42.0104 77.0749 42.7053 75.5787 44.0952V40.3343C77.2466 39.1897 79.1025 38.6255 81.1873 38.6255C83.0923 38.6255 84.5967 39.1406 85.7004 40.1708C86.8042 41.2009 87.3683 42.6154 87.3683 44.4304C87.3683 45.4442 87.2129 46.3517 86.8859 47.153C86.5752 47.9624 86.101 48.7228 85.496 49.4504C84.891 50.1617 83.9262 51.0202 82.5854 52.0258C81.3018 52.9987 80.4352 53.7509 79.9937 54.2823C79.5522 54.8138 79.3151 55.2553 79.3151 55.6641Z" fill="black"></path>
  <path d="M26.131 0.0763073H40.2998V2.20203H26.131V0.0763073ZM42.311 0.0763073V2.20203H62.5136C62.5136 2.20203 60.4042 0.0763073 57.7553 0.0763073H42.311ZM66.5361 0.0763073V2.21839H78.7918L78.0723 0.0763073H66.5361ZM98.9944 0.0763073H87.5727L86.8532 2.21839H98.9944V0.0763073ZM26.131 4.246H40.2998V6.37173H26.131V4.246ZM42.311 6.3799H64.9418C64.9418 6.3799 64.7293 4.69567 64.206 4.25418H42.311V6.3799ZM66.5361 6.3799H80.1653L79.5521 4.246H66.5361V6.3799ZM98.9944 6.3799V4.246H86.1092L85.4796 6.3799H98.9944ZM30.2434 8.28488H36.3753V10.4106H30.2434V8.28488ZM46.4398 8.28488H52.5718V10.4106H46.4398V8.28488ZM58.6055 10.4106H64.7374C64.7374 10.4106 65.1544 9.28234 65.1544 8.28488H58.5974V10.4106H58.6055ZM70.665 8.28488V10.4106H81.547L80.8276 8.28488H70.665ZM84.0979 10.4106H95.1026V8.28488H84.8256L84.0979 10.4106ZM30.2434 12.4301H36.3753V14.5558H30.2434V12.4301ZM46.4398 14.5558H62.1948C62.1948 14.5558 63.4702 13.4275 63.8872 12.4301H46.4398V14.5558ZM82.8307 14.2369L82.3074 12.4301H70.665V14.5558H76.7969V13.3294L77.222 14.5558H88.5456L88.9544 13.3294V14.5558H95.1026V12.4301H83.4438L82.8307 14.2369ZM30.2434 16.5752H36.3753V18.7009H30.2434V16.5752ZM46.4398 18.7173H63.8872C63.4702 17.7035 62.1948 16.5916 62.1948 16.5916H46.4398V18.7173ZM70.665 16.5752H76.7969V18.7009H70.665V16.5752ZM87.8997 16.5752H77.9497L78.7018 18.7173H87.172L87.8997 16.5752ZM88.8563 16.5752H94.9882V18.7009H88.8563V16.5752ZM30.2434 20.7286H36.3753V22.8543H30.2434V20.7286ZM46.4398 20.7286H52.5718V22.8543H46.4398V20.7286ZM64.7374 20.7286H58.6055V22.8543H65.1626C65.1544 21.8487 64.7374 20.7286 64.7374 20.7286ZM70.665 20.7286H76.7969V22.8543H70.665V20.7286ZM86.5262 20.7286H79.3314L80.0754 22.8625H85.7903L86.5262 20.7286ZM88.8563 20.7286H94.9882V22.8543H88.8563V20.7286ZM26.2373 24.7674H40.4061V26.8932H26.2373V24.7674ZM64.9582 24.7674H42.311V26.8932H64.206C64.6312 26.4517 64.9582 24.7674 64.9582 24.7674ZM66.6506 24.7674H76.7969V26.8932H66.6506V24.7674ZM85.03 24.7674H80.7049L81.4571 26.8932H84.2941L85.03 24.7674ZM88.8563 24.7674H99.117V26.8932H88.8563V24.7674ZM26.2373 28.9371H40.4061V31.0629H26.2373V28.9371ZM62.5218 28.9371H42.311V31.0629H57.7553C60.5023 31.0547 62.5218 28.9371 62.5218 28.9371ZM66.6506 28.9371H76.7969V31.0629H66.6506V28.9371ZM82.9206 31.0547L83.6809 28.9371H82.0703L82.8307 31.0547H82.9206ZM88.8563 28.9371H99.117V31.0629H88.8563V28.9371Z" fill="black"></path>
</svg>
