<?xml version="1.0" encoding="UTF-8"?>
<svg xmlns="http://www.w3.org/2000/svg" width="125" height="60" viewBox="0 0 125 60" fill="none">
  <g clip-path="url(#clip0_2753_1853)">
    <path d="M39.2685 49.4882L41.9331 59.778H39.9228L38.1417 52.3677L34.8063 59.778H33.1102L29.7913 52.4173L27.9677 59.785H26L28.6362 49.4882H30.3819L33.9748 57.4559L37.5441 49.4882H39.2685Z" fill="#231F20"></path>
    <path d="M49.5157 53.4661V52.2685H51.4527V59.778H49.5157V58.5591C49.0008 59.4307 47.9472 59.9291 46.6645 59.9291C43.9858 59.9291 42.4882 58.0394 42.4882 55.8661C42.4882 53.7709 43.9055 52.0866 46.3787 52.0866C47.7866 52.0984 48.9559 52.5827 49.5157 53.4661ZM44.5551 55.9748C44.5551 57.3567 45.4244 58.5378 47.1063 58.5378C48.7315 58.5378 49.6149 57.385 49.6149 56.0173C49.6149 54.6496 48.7031 53.4803 47.0165 53.4803C45.3937 53.4803 44.5551 54.6472 44.5551 55.9748Z" fill="#231F20"></path>
    <path d="M55.8228 59.778H53.8858V52.2685H55.8228V53.9504C56.0432 53.4101 56.4175 52.9465 56.8992 52.6172C57.3809 52.288 57.9488 52.1075 58.5323 52.0984C58.944 52.0926 59.3534 52.1598 59.7417 52.2969L59.3283 53.7142C58.9937 53.6252 58.6494 53.5776 58.3031 53.5724C56.9071 53.5724 55.8228 54.626 55.8228 56.1709V59.778Z" fill="#231F20"></path>
    <path d="M60.7103 50.2913C60.7068 50.155 60.7316 50.0194 60.7831 49.8931C60.8347 49.7669 60.9118 49.6526 61.0097 49.5576C61.1075 49.4627 61.224 49.389 61.3518 49.3412C61.4796 49.2935 61.6158 49.2728 61.752 49.2803C61.8904 49.2758 62.0282 49.2995 62.1571 49.3499C62.2861 49.4004 62.4034 49.4766 62.5019 49.5738C62.6005 49.671 62.6782 49.7873 62.7304 49.9155C62.7826 50.0438 62.8082 50.1813 62.8055 50.3197C62.8086 50.4564 62.7829 50.5922 62.7303 50.7185C62.6777 50.8447 62.5993 50.9585 62.5001 51.0526C62.4009 51.1467 62.283 51.219 62.1542 51.2649C62.0254 51.3108 61.8884 51.3291 61.752 51.3189C61.6148 51.3248 61.4779 51.3024 61.3498 51.253C61.2217 51.2036 61.1051 51.1284 61.0074 51.032C60.9096 50.9356 60.8328 50.82 60.7817 50.6926C60.7305 50.5652 60.7062 50.4286 60.7103 50.2913ZM60.7953 52.2732H62.7441V57.7559C62.7441 58.0961 62.815 58.3394 63.1008 58.3394C63.2254 58.3361 63.3495 58.3219 63.4717 58.2968L63.7693 59.7142C63.3607 59.874 62.9254 59.9542 62.4866 59.9504C61.674 59.9504 60.8048 59.7142 60.8048 57.8693L60.7953 52.2732Z" fill="#231F20"></path>
    <path d="M71.3992 53.4661V52.2685H73.3362V59.778H71.3992V58.5591C70.8842 59.4307 69.8307 59.9291 68.548 59.9291C65.8693 59.9291 64.3716 58.0394 64.3716 55.8661C64.3716 53.7709 65.789 52.0866 68.2622 52.0866C69.6748 52.0984 70.8417 52.5827 71.3992 53.4661ZM66.4386 55.9748C66.4386 57.3567 67.3079 58.5378 68.9898 58.5378C70.615 58.5378 71.4984 57.385 71.4984 56.0173C71.4984 54.6496 70.5866 53.4803 68.9 53.4803C67.2795 53.4803 66.4386 54.6472 66.4386 55.9748Z" fill="#231F20"></path>
    <path d="M76.3126 49.4882H80.9591C84.8638 49.4882 86.8173 51.6425 86.789 54.6331C86.8173 57.7417 84.663 59.778 81.3016 59.778H76.3126V49.4882ZM77.5953 50.4024V58.8803H81.1386C84.2449 58.8803 85.4284 56.785 85.4284 54.6047C85.4284 52.1409 83.9449 50.4024 81.1386 50.4024H77.5953Z" fill="#231F20"></path>
    <path d="M94.7095 59.778H88.804V49.4882H94.1189C96.1575 49.4882 98.0945 49.8732 98.0662 52.1551C98.0662 53.7638 97.0693 54.2055 96.0134 54.378C97.511 54.5055 98.4087 55.4598 98.4087 57C98.4299 59.3079 96.4055 59.778 94.7095 59.778ZM94.2677 53.9787C96.3063 53.9787 96.7622 53.1945 96.7622 52.1976C96.7622 50.7 95.8504 50.3575 94.2677 50.3575H90.037V53.9787H94.2677ZM94.3244 54.848H90.037V58.9087H94.511C95.7654 58.9087 97.0906 58.4953 97.0906 56.915C97.0906 55.089 95.5646 54.848 94.3244 54.848Z" fill="#231F20"></path>
    <path d="M98.8858 0.460631C98.6991 0.301687 98.4601 0.217534 98.215 0.22441C97.5441 0.22441 96.6795 0.677954 96.2165 0.933072L96.0299 1.02756C95.2495 1.40577 94.3996 1.61963 93.5331 1.65591C92.6449 1.68425 91.8795 1.73622 90.8827 1.8378C84.9772 2.44724 82.3433 6.97323 79.8063 11.3504C78.4268 13.7315 77 16.1929 75.0441 18.0992C74.6381 18.4911 74.2073 18.8564 73.7543 19.1929C71.7299 20.7024 69.1882 21.7677 67.2016 22.5283C65.2953 23.2559 63.2189 23.9102 61.2087 24.5433C59.3709 25.122 57.6323 25.6677 56.0354 26.263C55.315 26.5299 54.7032 26.7354 54.1622 26.915C52.7095 27.3874 51.6583 27.7488 50.1276 28.8047C49.5299 29.2134 48.9299 29.6551 48.5213 29.9858C47.3044 30.9562 46.228 32.0906 45.3228 33.3567C44.5435 34.5259 43.6432 35.6098 42.637 36.5906C42.3158 36.9071 41.7394 37.063 40.8819 37.063C39.8732 37.063 38.6543 36.8551 37.3599 36.6354C36.0654 36.4158 34.6528 36.163 33.4717 36.163C32.5102 36.163 31.778 36.3189 31.2276 36.6354C31.2276 36.6354 30.3063 37.174 29.9142 37.8709L30.2969 38.0433C30.8906 38.3656 31.4408 38.7626 31.9339 39.2244C32.4445 39.7003 33.0155 40.107 33.6323 40.4339C33.8309 40.5094 34.0112 40.6261 34.1614 40.7764C33.9984 41.0126 33.7622 41.3173 33.5142 41.6433C32.1512 43.4268 31.3575 44.5535 31.8134 45.1677C32.0316 45.2819 32.2759 45.3373 32.5221 45.3283C35.4961 45.3283 37.0906 44.5559 39.1126 43.578C39.6961 43.2945 40.2937 43.0016 41.0024 42.7039C42.1835 42.1913 43.4543 41.374 44.8008 40.5094C46.5843 39.3638 48.4291 38.178 50.215 37.6039C51.6865 37.1552 53.2193 36.94 54.7575 36.9661C56.6473 36.9661 58.6362 37.2189 60.5543 37.4646C61.9858 37.6488 63.4646 37.8378 64.9173 37.937C65.4819 37.9701 66.0039 37.9866 66.5142 37.9866C67.1936 37.9885 67.8725 37.953 68.548 37.8803L68.7087 37.8236C69.7291 37.1976 70.2063 35.8535 70.6669 34.5543C70.9646 33.7181 71.215 32.9669 71.6118 32.4898C71.6355 32.4659 71.6617 32.4445 71.6898 32.426C71.7084 32.4156 71.7299 32.4119 71.7509 32.4153C71.7719 32.4187 71.7912 32.4292 71.8055 32.4449C71.8097 32.4571 71.8097 32.4704 71.8055 32.4827C71.5693 37.5638 69.5213 40.7882 67.4543 43.6559L66.0512 45.1276C66.0512 45.1276 67.9835 45.1276 69.0843 44.7024C73.1 43.5024 76.1331 40.8567 78.3394 36.6378C78.8832 35.555 79.3689 34.444 79.7945 33.3095C79.8323 33.215 80.1819 33.0402 80.1465 33.5291C80.1465 33.6732 80.1276 33.8339 80.1158 34.0016C80.1158 34.1008 80.1016 34.2024 80.0969 34.3039C80.0378 35.0126 79.8606 36.5102 79.8606 36.5102L81.1008 35.8465C84.0913 33.9567 86.3969 30.1441 88.1449 24.2126C88.8748 21.7417 89.4063 19.2874 89.8764 17.126C90.4386 14.5276 90.9228 12.3 91.478 11.4354C92.3496 10.0795 93.6795 9.16299 94.9669 8.27244C95.1441 8.15197 95.3189 8.03622 95.4914 7.90866C97.1118 6.77244 98.7205 5.46142 99.0725 3.01654V2.96221C99.3417 1.13858 99.1221 0.68504 98.8858 0.460631Z" fill="#231F20"></path>
  </g>
  <defs>
    <clipPath id="clip0_2753_1853">
      <rect width="73.2283" height="60" fill="white" transform="translate(26)"></rect>
    </clipPath>
  </defs>
</svg>
