<?xml version="1.0" encoding="UTF-8"?>
<svg xmlns="http://www.w3.org/2000/svg" width="125" height="60" viewBox="0 0 125 60" fill="none">
  <g clip-path="url(#clip0_2753_1847)">
    <path d="M74.8141 19.4295L66.8627 22.0259L59.9451 25.079L58.0098 25.5899C57.517 26.0587 57.0002 26.5336 56.4412 27.0144C55.8282 27.5432 55.2572 28.0241 54.8184 28.3726C54.3317 28.7573 53.6104 29.4785 53.2438 29.9352C52.6969 30.6203 52.2642 31.3475 52.0779 31.9065C51.7473 32.9162 51.9096 33.9379 52.5467 34.8816C53.364 36.0835 54.9928 37.3096 56.8919 38.145C57.8596 38.5718 59.4883 39.1186 60.7144 39.4251C62.7517 39.942 66.6944 40.501 68.864 40.5852C69.3027 40.6032 69.8917 40.6032 69.9157 40.5852C69.9638 40.555 70.3004 39.912 70.6911 39.1127C72.0254 36.3901 72.987 33.8358 73.5098 31.6541C73.8223 30.332 74.0687 28.571 74.2309 26.4856C74.2731 25.9026 74.291 23.9493 74.255 23.2881C74.2008 22.2063 74.1047 21.3289 73.9545 20.4694C73.9305 20.3432 73.9244 20.229 73.9365 20.223C73.9604 20.205 74.0326 20.1809 75.0122 19.8984L74.814 19.4297V19.4295H74.8141V19.4295ZM72.999 20.4933C73.0712 20.4933 73.2634 22.3384 73.3115 23.5044C73.3236 23.7508 73.3175 23.9131 73.3055 23.9131C73.2575 23.9131 72.2898 23.3422 71.5987 22.9095C70.9977 22.5308 69.8558 21.7735 69.6755 21.6293C69.6153 21.5873 69.6213 21.5813 70.1142 21.4129C70.9495 21.1304 72.9329 20.4933 72.999 20.4933ZM68.9482 21.8276C69.0024 21.8276 69.1405 21.9057 69.4711 22.1101C70.7091 22.8854 72.392 23.823 73.1132 24.1355C73.3355 24.2317 73.3595 24.1956 72.8487 24.5442C71.7549 25.2894 70.3905 26.0226 68.7197 26.7619C68.4253 26.8941 68.1789 26.9963 68.1729 26.9963C68.1609 26.9963 68.1969 26.8461 68.2449 26.6658C68.6476 25.1691 68.876 23.6546 68.8881 22.4406C68.8941 21.8395 68.8941 21.8395 68.9482 21.8216C68.9361 21.8276 68.9421 21.8276 68.9482 21.8276ZM68.1128 22.1461C68.1488 22.1821 68.1248 23.5284 68.0767 23.895C67.9685 24.7725 67.8003 25.5899 67.5239 26.5095C67.4578 26.7317 67.3976 26.9182 67.3857 26.9301C67.3615 26.9601 66.5381 26.1548 66.2677 25.8423C65.7989 25.3014 65.4323 24.7605 65.1619 24.2316C65.0236 23.9611 64.8073 23.4323 64.8253 23.4142C64.9214 23.3481 68.0888 22.1221 68.1128 22.1461ZM64.1822 23.6907C64.1882 23.6907 64.1941 23.6907 64.2002 23.6967C64.2122 23.7087 64.2544 23.8049 64.2904 23.913C64.4827 24.4359 64.9153 25.2052 65.2881 25.6981C65.6968 26.239 66.2317 26.8159 66.6763 27.1946C66.8206 27.3148 66.9528 27.4289 66.9708 27.447C67.0069 27.4831 67.0189 27.477 66.0392 27.8497C64.9035 28.2824 63.6653 28.7151 62.2469 29.1718C61.9081 29.2811 61.5695 29.3913 61.2313 29.5024C61.1771 29.5205 61.1952 29.4904 61.3515 29.244C62.0546 28.1441 63.1244 25.9866 63.7254 24.46C63.8276 24.1955 63.9298 23.9311 63.9478 23.871C63.9719 23.7868 64.0019 23.7568 64.08 23.7147C64.1221 23.7028 64.1642 23.6907 64.1822 23.6907ZM62.9803 24.1895C62.9983 24.2016 62.6917 24.8446 62.3912 25.4336C61.8082 26.5695 61.1712 27.6875 60.3177 29.0457C60.1735 29.2801 60.0353 29.4965 60.0173 29.5205C59.9872 29.5626 59.9752 29.5505 59.879 29.3643C59.6747 28.9616 59.5063 28.4447 59.4162 27.9699C59.326 27.501 59.3441 26.6837 59.4463 26.1789C59.5243 25.8063 59.5184 25.8123 59.6987 25.7221C60.468 25.3315 62.9562 24.1655 62.9803 24.1895ZM73.3476 24.6103V24.8627C73.3476 26.203 73.2034 28.042 72.9929 29.3823C72.9569 29.6167 72.9267 29.8089 72.9208 29.815C72.9208 29.815 72.7466 29.767 72.5422 29.7068C71.6407 29.4243 70.6611 29.0096 69.7776 28.5229C69.1945 28.2043 68.3471 27.6814 68.3712 27.6573C68.3771 27.6514 68.6296 27.5192 68.9241 27.3629C70.1022 26.7499 71.232 26.0888 72.2116 25.4337C72.5783 25.1872 73.1311 24.7906 73.2514 24.6824L73.3476 24.6103ZM58.4426 26.3892C58.4666 26.3892 58.4606 26.4373 58.4245 26.6536C58.4005 26.8099 58.3704 27.0984 58.3585 27.2967C58.3103 28.1742 58.4546 28.8233 58.8873 29.7127C59.0075 29.9592 59.1038 30.1635 59.0977 30.1695C59.0556 30.2056 55.077 31.3716 53.8268 31.7141C53.4542 31.8163 53.1297 31.9065 53.1056 31.9124C53.0636 31.9245 53.0575 31.9185 53.0755 31.8162C53.2137 30.9328 53.8869 29.7789 54.8244 28.8052C55.4495 28.1561 55.9484 27.7775 56.8018 27.2906C57.4148 26.9421 58.3584 26.4193 58.4305 26.3952C58.4306 26.3892 58.4366 26.3892 58.4426 26.3892ZM67.8183 28.066C67.8243 28.06 67.9685 28.1382 68.1428 28.2403C69.429 28.9856 71.22 29.6768 72.7465 30.0313L72.8848 30.0614L72.6924 30.1695C71.8931 30.6143 69.2667 31.7081 66.5803 32.7118C66.1895 32.856 65.8049 33.0003 65.7327 33.0303C65.6606 33.0603 65.5945 33.0784 65.5945 33.0724C65.5945 33.0663 65.7027 32.856 65.8408 32.5976C66.5921 31.1912 67.3494 29.4784 67.7341 28.2884C67.7823 28.1742 67.8122 28.0721 67.8183 28.066ZM66.8627 28.3786C66.8688 28.3847 66.8207 28.5108 66.7605 28.655C66.2377 29.9231 65.5524 31.3055 64.675 32.8561C64.4527 33.2528 64.2663 33.5714 64.2602 33.5714C64.2543 33.5714 64.074 33.4631 63.8576 33.3309C62.5834 32.5496 61.4536 31.588 60.7144 30.6564L60.6062 30.5242L61.153 30.3739C63.1124 29.8391 64.7771 29.2621 66.4299 28.5529C66.6644 28.4567 66.8567 28.3786 66.8627 28.3786ZM72.8007 30.452C72.8067 30.5903 72.5002 31.8284 72.2477 32.7238C72.0374 33.4751 71.857 34.0641 71.5265 35.1038C71.3823 35.5606 71.2561 35.9392 71.2501 35.9392C71.2441 35.9392 71.208 35.9332 71.172 35.9212C69.387 35.5966 67.7883 35.1459 66.2858 34.5449C65.865 34.3766 65.264 34.1061 65.228 34.0761C65.216 34.0639 65.5766 33.8958 66.0334 33.6974C68.7679 32.5014 71.6047 31.1431 72.5783 30.5602C72.6924 30.4881 72.7826 30.452 72.8007 30.452ZM59.0917 30.9209C59.1037 30.9328 58.3404 32.0327 57.2706 33.5292C56.898 34.0521 56.4653 34.6651 56.303 34.8935C56.1407 35.1219 55.8943 35.4825 55.7561 35.6989L55.5036 36.0895L55.2331 35.8612C54.9145 35.5966 54.3617 35.0317 54.1153 34.7192C53.5984 34.0762 53.2499 33.397 53.1116 32.7781C53.0455 32.4895 53.0455 32.3452 53.1055 32.3273C53.1956 32.3032 54.8004 31.9246 56.303 31.5759C57.1384 31.3837 58.1059 31.1553 58.4545 31.0712C58.8032 30.9869 59.0857 30.9209 59.0917 30.9209ZM59.8609 31.2154L60.0532 31.4317C60.9188 32.3993 61.8022 33.1147 62.872 33.7396C63.0644 33.8478 63.2086 33.9439 63.1965 33.95C63.1545 33.98 59.4823 35.2841 57.7814 35.8731C56.8259 36.2097 56.0385 36.4801 56.0326 36.4801C56.0266 36.4801 55.9725 36.4441 55.9123 36.402L55.8042 36.3239L55.9784 36.0715C56.5433 35.2541 57.2526 34.3586 58.7972 32.4955L59.8609 31.2154ZM64.6571 34.6471C64.663 34.6411 64.9274 34.7372 65.2519 34.8575C66.0334 35.152 66.6523 35.3382 67.4818 35.5486C68.5035 35.8071 69.9819 36.0595 70.8535 36.1316C70.9857 36.1436 71.0578 36.1557 71.0337 36.1737C70.9916 36.1978 70.1082 36.4923 69.4591 36.6966C68.4253 37.0211 65.27 37.9526 62.6977 38.6919C62.2229 38.8301 61.8142 38.9443 61.7902 38.9503C61.7302 38.9624 61.5318 38.9082 61.5318 38.8842C61.5318 38.8722 61.676 38.6859 61.8503 38.4816C62.7157 37.4478 63.5752 36.2939 64.2904 35.2C64.4887 34.8995 64.6571 34.6531 64.6571 34.6471ZM63.5992 34.6772C63.6052 34.6832 63.1785 35.3683 62.4333 36.5462C62.1147 37.0451 61.7601 37.61 61.6339 37.8084C61.5137 38.0007 61.3334 38.3012 61.2313 38.4695L61.0569 38.776L60.9668 38.752C60.7504 38.6919 59.2299 38.1569 58.8272 37.9947C58.3283 37.7963 57.8115 37.556 57.4268 37.3516C56.946 37.0932 56.3451 36.7085 56.3931 36.6965C56.4051 36.6906 57.2285 36.4681 58.2201 36.1977C60.8526 35.4824 62.313 35.0678 63.2687 34.7673C63.443 34.7132 63.5932 34.6711 63.5992 34.6772ZM71.0818 36.432H71.0878C71.1118 36.4922 70.1382 39.1967 69.7835 40.0501C69.7055 40.2424 69.6755 40.2906 69.6334 40.2845C69.5312 40.2786 68.1189 40.0802 67.2593 39.954C65.7629 39.7256 63.2506 39.2868 62.6196 39.1426L62.4754 39.1126L63.3708 38.9081C65.2941 38.4754 66.2196 38.2411 67.1571 37.9526C68.3412 37.592 69.5132 37.1412 70.6971 36.5883C70.8834 36.5041 71.0397 36.438 71.0818 36.432Z" fill="url(#paint0_linear_2753_1847)"></path>
    <path d="M66.6163 0.894381C66.4841 0.87645 64.3504 1.64573 62.9742 2.2046C61.117 2.96196 59.6747 3.68321 58.7852 4.30812C58.4547 4.54262 58.0399 4.95726 57.9739 5.1195C57.9498 5.17961 57.9377 5.25173 57.9377 5.32384L58.7431 6.08713L60.6603 6.70015L65.222 7.51755L70.4387 8.41307L70.4928 7.96231C70.4748 7.96231 70.4627 7.95633 70.4449 7.95633L69.7595 7.8481L69.6214 7.60172C68.9122 6.35159 68.1309 4.80097 67.6741 3.75521C67.3196 2.94383 66.983 2.00635 66.7966 1.33319C66.6944 0.924507 66.6825 0.900479 66.6165 0.894492V0.894353H66.6163V0.894381ZM66.52 1.20099H66.5262C66.5321 1.20692 66.5562 1.37532 66.5803 1.57353C66.6823 2.41506 66.8688 3.2263 67.1632 4.10381C67.3856 4.76494 67.3856 4.72891 67.1272 4.65073C66.5142 4.4825 63.7676 4.00769 61.7782 3.73124C61.4597 3.68914 61.1892 3.6471 61.1892 3.64111C61.1652 3.61708 62.6256 2.85373 63.2687 2.5533C64.0921 2.17458 66.3518 1.23101 66.52 1.20099ZM60.7263 3.89348L60.9608 3.97152C62.2349 4.40432 65.4382 5.01737 67.2053 5.1616C67.4035 5.17964 67.5719 5.19771 67.5778 5.19771C67.5838 5.2037 67.4156 5.29385 67.1992 5.39598C66.3459 5.8227 65.4082 6.3456 64.7591 6.7483C64.5669 6.86844 64.3925 6.96466 64.3685 6.96466C64.3445 6.96466 64.2183 6.94061 64.0861 6.92257L63.8457 6.88645L63.2447 6.29743C62.1869 5.26977 61.3575 4.47646 61.039 4.17589L60.7263 3.89348ZM60.486 4.07975L61.3334 5.13757C61.7962 5.72055 62.265 6.29147 62.3672 6.41763C62.4693 6.54393 62.5535 6.64614 62.5475 6.65212C62.5235 6.67014 61.3215 6.4357 60.6844 6.29153C60.0293 6.14123 59.7588 6.06912 59.3562 5.94296L59.0256 5.83473V5.75054C59.0316 5.34784 59.5425 4.74687 60.4079 4.13391L60.486 4.07975ZM67.6861 5.52219C67.7102 5.52219 67.7401 5.57627 67.8122 5.73854C68.0166 6.18926 68.6538 7.40336 68.8099 7.63772C68.8581 7.71593 68.9421 7.72191 68.0948 7.58367C66.0574 7.25304 65.4022 7.14498 65.4022 7.13295C65.4022 7.12696 65.4624 7.08486 65.5405 7.04276C66.1716 6.69425 66.8086 6.24946 67.3736 5.77465C67.5118 5.66043 67.6381 5.55226 67.662 5.53419C67.668 5.52219 67.6801 5.51621 67.6861 5.52219Z" fill="url(#paint1_linear_2753_1847)"></path>
    <path d="M58.0157 5.03536C58.0157 5.03536 57.8836 5.24579 58.0098 5.55833C58.088 5.75059 58.3163 5.98495 58.5747 6.2254C58.5747 6.2254 61.2492 8.83375 61.5737 9.20643C63.0522 10.9132 63.6953 12.5961 63.7554 14.916C63.7914 16.4065 63.5089 17.7167 62.8058 19.2373C61.5557 21.9659 58.9172 24.9769 54.8484 28.3186L55.4435 28.1202C55.8281 27.8317 56.351 27.5253 57.577 26.8521C60.4077 25.3014 63.5931 23.877 67.4997 22.4106C73.125 20.295 82.3746 17.8188 87.6393 17.0135L88.1864 16.9293L88.1022 16.7971C87.6214 16.0518 87.2908 15.5891 86.8941 15.0963C85.7402 13.6658 84.34 12.506 82.627 11.5443C80.271 10.2282 77.2238 9.20044 73.3655 8.43715C72.6383 8.29284 71.0396 8.01641 69.7414 7.81809C66.9887 7.39147 65.2098 7.09692 63.2505 6.76035C62.5474 6.6401 61.4955 6.45984 60.7984 6.30963C60.4378 6.23142 59.7467 6.06917 59.2058 5.88287C58.773 5.71451 58.1479 5.54622 58.0157 5.03536ZM59.5664 6.53794C59.5723 6.53201 59.6685 6.56796 59.7948 6.61005C60.0232 6.6881 60.3176 6.77828 60.6663 6.87451C60.9301 6.94706 61.1945 7.01718 61.4596 7.08484C61.8202 7.17494 62.1207 7.25911 62.1266 7.25911C62.1688 7.30121 62.7758 9.24232 62.9802 9.9876C63.0582 10.2702 63.1184 10.5105 63.1124 10.5105C63.1062 10.5166 63.0402 10.4144 62.9621 10.2761C62.2589 9.03803 61.147 7.78195 59.8609 6.77221C59.6927 6.65213 59.5664 6.54393 59.5664 6.53794ZM62.5234 7.35531C62.5534 7.35531 62.6857 7.37335 62.8478 7.40938C63.8696 7.63775 65.7027 7.98634 66.8746 8.1847C67.073 8.21471 67.2293 8.25085 67.2293 8.2628C67.2293 8.27488 67.1571 8.31687 67.0669 8.36501C66.8686 8.46714 66.0692 8.94189 65.8049 9.12223C65.1377 9.56697 64.5368 10.0478 64.104 10.4805C63.9297 10.6548 63.7794 10.799 63.7794 10.799C63.7794 10.799 63.7434 10.6969 63.7133 10.5706C63.497 9.7352 63.0462 8.4971 62.6375 7.62569C62.5714 7.4875 62.5173 7.36126 62.5173 7.34929C62.5173 7.36129 62.5173 7.35531 62.5234 7.35531ZM67.7281 8.34697C67.7641 8.35894 67.8242 8.56331 67.9444 9.01403C68.1668 9.88555 68.269 10.8592 68.2329 11.7667C68.2209 12.0191 68.2089 12.2535 68.1968 12.2836L68.1788 12.3436L67.8663 12.2415C67.2232 12.0372 66.1775 11.7306 65.282 11.4782C64.7711 11.34 64.3565 11.2138 64.3565 11.2018C64.3565 11.1656 65.1018 10.4204 65.4203 10.138C66.0272 9.603 67.6739 8.3289 67.7281 8.34697ZM68.1428 8.407C68.1608 8.38907 70.631 8.81568 71.7548 9.03208C72.5903 9.19432 73.8043 9.44677 73.8764 9.47687C73.9124 9.48884 73.7862 9.56096 73.3835 9.74124C71.7969 10.4565 70.6188 11.0995 69.447 11.8809C69.1405 12.0852 68.882 12.2535 68.876 12.2535C68.87 12.2535 68.864 12.0792 68.864 11.8689C68.864 10.727 68.6356 9.57301 68.2148 8.59939C68.1728 8.50322 68.1367 8.41309 68.1428 8.407ZM74.5314 9.66918C74.5495 9.6872 74.4713 10.1741 74.3992 10.4625C74.1829 11.358 73.5999 12.6863 72.8848 13.9363C72.7585 14.1587 72.6443 14.339 72.6322 14.345C72.6203 14.351 72.458 14.2608 72.2717 14.1527C71.5745 13.744 70.7812 13.3594 69.9157 12.9987C69.6754 12.8966 69.465 12.8124 69.459 12.8005C69.4168 12.7643 71.3521 11.4842 72.3739 10.8712C73.1852 10.3784 74.5074 9.6451 74.5314 9.66918ZM74.9882 9.74127C75.0423 9.74127 76.1362 10.0418 76.707 10.2101C78.1195 10.6308 79.7421 11.2258 80.7999 11.7066L81.2386 11.905L80.9322 11.977C78.3479 12.572 76.1362 13.2573 74.0025 14.1227C73.8282 14.1948 73.672 14.2549 73.6601 14.2549C73.648 14.2549 73.7081 14.1167 73.7862 13.9483C74.4293 12.5841 74.844 11.1597 74.9461 9.94558C74.9522 9.83137 74.9701 9.74127 74.9882 9.74127ZM64.098 12.2415C64.116 12.2234 64.9514 12.4218 65.4022 12.5479C66.0873 12.7403 67.5417 13.2271 67.5417 13.2632C67.5417 13.2692 67.3795 13.4074 67.1872 13.5757C66.3999 14.2308 65.6426 14.9219 64.735 15.7994C64.4645 16.0579 64.2362 16.2683 64.2242 16.2683C64.2122 16.2683 64.2063 16.2321 64.2122 16.1841C64.3504 15.1743 64.3204 13.8762 64.1281 12.56C64.11 12.3917 64.092 12.2475 64.098 12.2415ZM81.6535 12.2596C81.6653 12.2715 81.2687 12.8966 81.0163 13.2511C80.6558 13.768 80.1268 14.4533 78.9308 15.9558C78.2998 16.749 77.5905 17.6446 77.3562 17.9451C77.1157 18.2455 76.9175 18.4979 76.9114 18.4979C76.9054 18.4979 76.8274 18.3898 76.7432 18.2576C76.07 17.2479 75.2646 16.3644 74.309 15.5711C74.1287 15.4208 73.9305 15.2585 73.8644 15.2104C73.7982 15.1624 73.7441 15.1143 73.7441 15.1083C73.7441 15.0903 74.7657 14.6515 75.5412 14.339C76.8995 13.786 78.7504 13.125 80.1388 12.6982C80.866 12.4699 81.6414 12.2475 81.6535 12.2596ZM82.1162 12.3797C82.1402 12.3737 82.2845 12.4458 82.4588 12.5479C83.9192 13.3833 85.3496 14.4592 86.4795 15.5651C86.798 15.8776 87.5854 16.695 87.5733 16.701C87.5733 16.701 87.2968 16.725 86.9723 16.749C84.4421 16.9414 81.2027 17.4762 78.0894 18.2275C77.8791 18.2755 77.6928 18.3176 77.6808 18.3176C77.6689 18.3176 77.9032 18.0832 78.1977 17.8008C80.0247 16.0398 80.8602 14.928 81.8458 12.9446C81.984 12.6502 82.1042 12.3978 82.1162 12.3797C82.1102 12.3797 82.1102 12.3797 82.1162 12.3797ZM68.7317 13.7501C68.8159 13.768 69.5972 14.1348 70.1862 14.4292C70.7271 14.6995 71.5385 15.1323 71.5805 15.1683C71.5865 15.1743 71.298 15.3246 70.9436 15.4989C69.8136 16.0639 68.846 16.5987 67.8362 17.2118C67.5478 17.3861 67.3074 17.5304 67.3014 17.5304C67.2773 17.5304 67.2833 17.5062 67.4456 17.2118C67.9865 16.2262 68.4192 15.0482 68.6657 13.9002C68.6896 13.8101 68.7137 13.7501 68.7317 13.7501ZM67.9504 13.8942C67.9685 13.9123 67.7641 14.6515 67.638 15.0542C67.3915 15.8175 66.9768 16.7731 66.5742 17.4943C66.4779 17.6625 66.3337 17.9089 66.2556 18.0471L66.1054 18.2875L65.7688 17.9631C65.3782 17.5844 65.0596 17.35 64.651 17.1396C64.4886 17.0556 64.3624 16.9834 64.3624 16.9714C64.3624 16.9233 65.3901 15.9918 66.1775 15.3186C66.7424 14.8318 67.9324 13.8762 67.9504 13.8942ZM72.7285 15.8596L73.023 16.0518C73.696 16.4906 74.4893 17.0736 75.0965 17.5844C75.4389 17.8668 76.1 18.4619 76.2324 18.6061L76.3044 18.6844L75.8177 18.8225C73.065 19.5858 70.9375 20.2649 68.4553 21.1785C68.1788 21.2806 67.9444 21.3648 67.9263 21.3648C67.8904 21.3648 67.8602 21.3948 68.4793 20.8238C70.066 19.3635 71.4723 17.7527 72.5181 16.184L72.7285 15.8596ZM71.4724 16.1721C71.4844 16.1841 70.661 17.344 70.1681 17.9991C69.5792 18.7804 68.5334 20.0906 67.8122 20.944C67.5117 21.2986 67.2534 21.5931 67.2413 21.5991C67.2232 21.6051 67.2172 21.515 67.2172 21.3768C67.2172 20.6495 67.0309 19.8742 66.7063 19.2131C66.5681 18.9367 66.544 18.8705 66.5742 18.8405C66.6884 18.7383 68.4373 17.7406 69.5431 17.1457C70.2883 16.749 71.4542 16.1601 71.4724 16.1721ZM63.8756 18.0352C63.8936 18.0352 64.0319 18.1073 64.1882 18.1915C64.5728 18.4018 64.9154 18.6362 65.2219 18.8887C65.2338 18.9006 65.0776 19.0269 64.8733 19.1771C64.3023 19.5858 63.4369 20.2409 62.9321 20.6436C62.4031 21.0643 62.3852 21.0763 62.4452 20.9862C62.8419 20.3791 63.0402 20.0366 63.2506 19.5979C63.4369 19.2073 63.6232 18.7444 63.7554 18.3417C63.8034 18.1674 63.8636 18.0352 63.8756 18.0352ZM65.901 19.6218C65.931 19.6159 65.9672 19.6699 66.1294 19.9104C66.4719 20.4211 66.7364 21.1064 66.8026 21.6593L66.8145 21.7795L65.9912 22.0981C64.5187 22.669 63.1605 23.234 62.2408 23.6546C61.9824 23.7749 61.5317 23.9912 61.2372 24.1355C60.9427 24.2857 60.7023 24.3999 60.7023 24.3939C60.7023 24.3879 60.8886 24.2497 61.1169 24.0813C62.9141 22.7772 64.4706 21.3467 65.6366 19.9164C65.7628 19.7661 65.877 19.6279 65.889 19.6219L65.901 19.6218ZM64.9695 19.8503C64.9935 19.8743 64.3084 20.6496 63.8396 21.1243C62.6797 22.3084 61.5317 23.234 60.1073 24.1355C59.927 24.2497 59.7648 24.3518 59.7467 24.3639C59.7046 24.3879 59.7587 24.3278 60.3838 23.6486C60.7805 23.2219 61.0809 22.8613 61.4235 22.4166C61.6519 22.1222 61.694 22.0801 62.0246 21.8456C62.9081 21.2085 64.9454 19.8262 64.9695 19.8503Z" fill="url(#paint2_radial_2753_1847)"></path>
    <path d="M38.944 44.7362C38.8331 44.7362 38.7222 44.7467 38.6123 44.7467C36.373 44.8661 34.8626 45.8516 33.9796 47.7761C33.2243 49.5167 33.3068 51.7919 33.988 53.5431C34.7803 55.2543 36.0604 56.1574 38.1972 56.4985C38.6493 56.5725 38.9524 56.8207 39.8281 57.8431L40.9055 59.1054H42.8595L41.5602 57.7955C40.842 57.0773 40.261 56.452 40.261 56.397C40.261 56.3421 40.5358 56.2217 40.8684 56.1204C41.9648 55.7886 42.8753 54.9415 43.5122 53.6434C44.0277 52.6009 44.1016 52.2787 44.1755 50.9817C44.3688 47.1211 42.3334 44.7075 38.9439 44.735L38.944 44.7362ZM40.6572 54.8318C39.7065 55.2923 38.3261 55.3842 37.4251 55.0536C36.4935 54.7114 35.5914 53.7439 35.1858 52.6486C34.7348 51.4508 34.7992 49.2411 35.3146 48.246C36.1438 46.6617 37.2403 45.9329 38.8426 45.9329C41.2191 45.9329 42.5711 47.3885 42.7475 50.1241C42.887 52.4078 42.1222 54.121 40.6582 54.8309L40.6572 54.8318ZM74.4129 48.0338C73.5933 48.0338 72.9659 48.3655 72.5433 49.0192L72.2116 49.5368V48.1911H70.7931V56.2609H72.2107V53.6815C72.2107 51.3229 72.2401 51.0472 72.5697 50.4018C73.024 49.5167 73.8055 49.0753 74.5609 49.2865L75.0678 49.4344V48.0359H74.4129V48.0338ZM66.0791 47.9598C65.8012 47.9598 65.5065 47.9968 65.213 48.0613C63.3148 48.5576 62.2449 50.3744 62.3103 52.244C62.3103 53.8094 62.6145 54.592 63.3698 55.4128C64.9173 56.6823 66.3168 56.7837 68.2053 56.1025C68.5275 55.9652 68.8782 55.8068 68.8782 55.8068V54.5372L68.2053 54.8858C66.6769 55.5512 65.5256 55.5512 64.6034 54.7674C64.0152 54.1685 63.7563 53.4502 63.637 52.6307H69.3566V51.5426C69.3566 49.3245 68.0215 47.9239 66.0779 47.9598H66.0791ZM63.7659 51.4983C63.7659 51.4983 63.9772 50.1146 64.7609 49.5717C65.1381 49.3054 65.571 49.1767 65.9946 49.1767C66.4192 49.1767 66.8428 49.3139 67.1924 49.5812C67.9107 50.1336 68.0311 51.4878 68.0311 51.4878H63.7659V51.4983H63.7659ZM29.5675 50.0428C28.0297 49.1111 27.3473 48.4393 27.4308 47.6471C27.6695 45.4554 30.3778 45.7586 31.8776 46.5878L31.8882 45.1133C31.8882 45.1133 31.059 44.7542 29.8707 44.7351C28.0476 44.7077 26.8688 45.3055 26.3165 46.5223C25.5052 48.3179 26.2236 49.672 28.8199 51.1825C30.2775 52.0306 30.9217 52.7669 30.9217 53.5696C30.9217 55.2279 28.9223 55.8068 26.8594 54.7663C26.4349 54.5551 26.0757 54.3787 26.0567 54.3787C25.9827 54.8487 26.0209 55.9736 26.0209 55.9736C26.0209 55.9736 26.6547 56.2398 27.6052 56.4235C29.9627 56.8935 32.108 55.7876 32.3108 53.992C32.4872 52.3063 31.8776 51.4221 29.5676 50.0416L29.5675 50.0428ZM86.9675 47.9408C86.6908 47.9408 86.3971 47.9788 86.0908 48.0433C84.1949 48.5397 83.1269 50.3565 83.1998 52.2261C83.1998 53.7894 83.503 54.5646 84.2582 55.3842C85.8057 56.655 87.2052 56.7574 89.1033 56.0751C89.4244 55.9378 89.774 55.7816 89.774 55.7816V54.5099L89.1023 54.8604C87.5707 55.5238 86.4193 55.5238 85.5004 54.7401C84.9089 54.1422 84.6523 53.4324 84.5329 52.6032H90.243V51.5153C90.243 49.3078 88.9078 47.9061 86.9643 47.9431L86.9675 47.9408ZM84.6543 51.4793C84.6543 51.4793 84.8677 50.0977 85.6503 49.5442C86.0264 49.277 86.4594 49.1481 86.883 49.1481C87.3055 49.1481 87.7312 49.2854 88.0809 49.5537C88.7991 50.1061 88.9196 51.4697 88.9196 51.4697H84.6555L84.6543 51.4793ZM58.6536 50.0608C57.1157 49.1313 56.4354 48.4573 56.5179 47.6651C56.7565 45.4722 59.4649 45.7765 60.9647 46.6057L60.9753 45.1312C60.9753 45.1312 60.1461 44.7721 58.9578 44.7551C57.1347 44.7277 55.9559 45.3255 55.4025 46.5423C54.5924 48.3379 55.3201 49.692 57.9079 51.2025C59.3635 52.0497 60.0078 52.7764 60.0078 53.5791C60.0078 55.2374 58.0093 55.8258 55.9465 54.7758C55.524 54.5645 55.1649 54.3902 55.1438 54.3902C55.0698 54.8602 55.1079 55.9852 55.1079 55.9852C55.1079 55.9852 55.7342 56.2419 56.6817 56.4351C59.0413 56.9062 61.1876 55.8013 61.3894 54.0057C61.5648 52.3283 60.9564 51.4443 58.6536 50.0627V50.0608H58.6536ZM95.3024 48.0148C94.4828 48.0148 93.8481 48.3474 93.4329 49.0013L93.1011 49.5167V48.1732H91.6826V56.2409H93.1001V53.6616C93.1001 51.304 93.1285 51.0272 93.4593 50.3829C93.9135 49.4989 94.695 49.0564 95.4503 49.2686L95.9572 49.4164V48.0148L95.3024 48.0148ZM47.3729 50.0142V44.8744H45.9427V56.2588H51.9571V54.9143H47.3729V50.0142H47.3729ZM80.4462 51.6165L79.2674 54.6839L78.134 51.5996L76.9827 48.1817H75.5188C76.4674 50.8709 77.4992 53.6065 78.5397 56.2588C78.9907 56.2693 79.4427 56.2588 79.8937 56.2588L81.4856 52.262L83.1069 48.1827H81.7074C81.7074 48.1827 81.0894 49.803 80.4452 51.6176L80.4462 51.6165ZM50.6683 41.7722C50.8986 41.7722 51.0908 41.6984 51.2493 41.54C51.4055 41.3835 51.4879 41.1998 51.4879 40.9695C51.4879 40.7392 51.4055 40.547 51.2493 40.3991C51.0908 40.2513 50.9081 40.1773 50.6789 40.1773C50.4466 40.1773 50.2543 40.2513 50.0979 40.4075C49.9395 40.5639 49.8677 40.7562 49.8677 40.978C49.8677 41.2104 49.9417 41.4025 50.0979 41.5484C50.2458 41.6962 50.4381 41.7702 50.6683 41.7702V41.7722ZM50.1614 40.4625C50.2986 40.3253 50.4656 40.2618 50.6789 40.2618C50.8796 40.2618 51.0466 40.3253 51.186 40.4625C51.3233 40.5998 51.3972 40.7667 51.3972 40.9695C51.3972 41.1723 51.3233 41.3477 51.186 41.485C51.0466 41.6222 50.8796 41.6877 50.6789 41.6877C50.4751 41.6877 50.3092 41.6244 50.172 41.485C50.0346 41.3477 49.9607 41.1723 49.9607 40.9695C49.9607 40.7667 50.0241 40.5999 50.1614 40.4625ZM50.5025 41.0435H50.5954C50.661 41.0435 50.7254 41.1068 50.7803 41.2273L50.8913 41.4765H51.0655L50.9282 41.1997C50.8723 41.0889 50.8174 41.0244 50.7529 41.0064C50.8342 40.9874 50.8986 40.9599 50.9451 40.9049C50.9915 40.8575 51.0085 40.793 51.0085 40.7201C51.0085 40.6356 50.9821 40.5723 50.9261 40.5258C50.8627 40.473 50.7613 40.4445 50.6303 40.4445H50.3368V41.4765H50.4846V41.0434L50.5025 41.0435ZM50.5025 40.5639H50.6314C50.7243 40.5639 50.7899 40.5829 50.8258 40.6104C50.8606 40.6378 50.8701 40.6738 50.8701 40.7392C50.8701 40.8586 50.7961 40.9146 50.6589 40.9146H50.5005V40.5639H50.5025ZM26.8783 40.9516C26.8783 40.5924 26.8678 40.3253 26.8593 40.1679H26.8678C26.9047 40.3536 26.9501 40.4921 26.9871 40.584L28.3602 43.6513H28.5905L29.9635 40.5565C30.0006 40.4721 30.0376 40.3453 30.083 40.1689H30.0935C30.0661 40.4752 30.0566 40.7414 30.0566 40.9537V43.6609H30.5265V39.6365H29.9371L28.675 42.4356C28.6285 42.5464 28.564 42.7124 28.4817 42.9321H28.4626C28.4351 42.8233 28.3707 42.6574 28.2788 42.4546L27.0451 39.6269H26.4188V43.6512H26.8708V40.9536L26.8783 40.9516ZM31.5564 40.9591H31.9621V43.4655H31.5564V40.9591ZM31.7593 40.04C31.8438 40.04 31.9156 40.0114 31.9705 39.9556C32.0265 39.9006 32.0635 39.8288 32.0635 39.7443C32.0635 39.6619 32.036 39.5879 31.9716 39.5331C31.9146 39.4771 31.8417 39.4485 31.7582 39.4485C31.6759 39.4485 31.602 39.4771 31.5469 39.5331C31.4911 39.5879 31.4541 39.6619 31.4541 39.7443C31.4541 39.8362 31.4826 39.9006 31.5469 39.9556C31.6105 40.0114 31.6759 40.04 31.7582 40.04H31.7593ZM34.8542 43.5205V43.0789C34.6323 43.2447 34.3936 43.3272 34.1464 43.3272C33.8508 43.3272 33.6109 43.2258 33.4355 43.0315C33.2613 42.8393 33.1684 42.5719 33.1684 42.2392C33.1684 41.8907 33.2613 41.6138 33.4535 41.4026C33.6384 41.1998 33.8782 41.0984 34.1719 41.0984C34.4116 41.0984 34.6417 41.1725 34.8542 41.3204V40.8503C34.6609 40.7489 34.4402 40.7024 34.1909 40.7024C33.7303 40.7024 33.3712 40.8503 33.103 41.1356C32.8367 41.4208 32.6994 41.8084 32.6994 42.2764C32.6994 42.6925 32.8188 43.0421 33.0671 43.3094C33.3258 43.584 33.6565 43.7234 34.0621 43.7234C34.3756 43.7148 34.6323 43.6492 34.8542 43.5205ZM36.0149 42.1843C36.0149 41.8536 36.0889 41.5865 36.2262 41.4025C36.3551 41.2368 36.5113 41.1534 36.6962 41.1534C36.8525 41.1534 36.9634 41.1819 37.0447 41.2463V40.7667C36.9814 40.7393 36.8895 40.7298 36.7701 40.7298C36.6043 40.7298 36.4565 40.7856 36.3265 40.8882C36.1892 40.9969 36.0794 41.1629 36.015 41.3741H36.0044V40.7857H35.545V43.6587H36.0055V42.1843H36.0149ZM38.6587 43.7158C39.0918 43.7158 39.4404 43.5763 39.6991 43.2997C39.9568 43.0249 40.0857 42.6553 40.0857 42.1947C40.0857 41.7248 39.9675 41.3656 39.7266 41.0983C39.4879 40.8312 39.1562 40.7022 38.7231 40.7022C38.29 40.7022 37.9414 40.8311 37.6827 41.0803C37.406 41.3551 37.2602 41.7427 37.2602 42.2402C37.2602 42.6733 37.3785 43.0325 37.6278 43.2997C37.8855 43.5763 38.2267 43.7147 38.6587 43.7147V43.7158ZM38.0038 41.3751C38.1792 41.1903 38.4095 41.0983 38.6946 41.0983C38.9905 41.0983 39.2122 41.1903 39.377 41.3751C39.5428 41.5684 39.6253 41.8442 39.6253 42.2128C39.6253 42.5634 39.5513 42.8391 39.3949 43.0239C39.2387 43.2173 39.0084 43.3196 38.7041 43.3196C38.4084 43.3196 38.1792 43.2172 38.0038 43.0239C37.8296 42.8296 37.7461 42.5634 37.7461 42.2128C37.7282 41.8642 37.8201 41.5791 38.0038 41.3751ZM42.1022 43.4655C42.2775 43.3092 42.3705 43.117 42.3705 42.876C42.3705 42.6648 42.2965 42.4895 42.1592 42.3511C42.0472 42.2403 41.8741 42.1398 41.6237 42.0384C41.4018 41.9456 41.2646 41.8631 41.1906 41.7986C41.1167 41.7248 41.0712 41.6329 41.0712 41.5029C41.0712 41.3836 41.1177 41.2917 41.2086 41.2177C41.3016 41.1439 41.4199 41.108 41.5783 41.108C41.8265 41.108 42.0388 41.1734 42.2331 41.3119V40.8513C42.0472 40.7584 41.8455 40.7141 41.6152 40.7141C41.3195 40.7141 41.0702 40.7955 40.8863 40.9527C40.693 41.1091 40.6012 41.3119 40.6012 41.5505C40.6012 41.7618 40.6645 41.9372 40.7849 42.0659C40.8863 42.1758 41.0596 42.2879 41.3004 42.3881C41.5307 42.4896 41.687 42.5814 41.7704 42.6553C41.8527 42.7293 41.8897 42.8211 41.8897 42.93C41.8897 43.1982 41.706 43.3367 41.3468 43.3367C41.0701 43.3367 40.8219 43.2458 40.6 43.0621V43.5584C40.8007 43.6789 41.0416 43.7338 41.3077 43.7338C41.6489 43.7158 41.9161 43.6324 42.0999 43.4665L42.1022 43.4655ZM44.295 40.7023C43.8618 40.7023 43.5133 40.8312 43.2545 41.0804C42.9799 41.3552 42.832 41.7428 42.832 42.2403C42.832 42.6734 42.9515 43.0326 43.1996 43.2998C43.4584 43.5764 43.7985 43.7148 44.2316 43.7148C44.6752 43.7148 45.0133 43.5755 45.272 43.2986C45.5308 43.024 45.6596 42.6543 45.6596 42.1938C45.6596 41.7237 45.5392 41.3647 45.3004 41.0974C45.0513 40.8301 44.7195 40.7013 44.297 40.7013L44.295 40.7023ZM45.1885 42.2128C45.1885 42.5634 45.1146 42.8391 44.9583 43.024C44.8019 43.2173 44.5716 43.3197 44.2674 43.3197C43.9715 43.3197 43.7424 43.2172 43.567 43.024C43.3928 42.8296 43.3094 42.5634 43.3094 42.2128C43.3094 41.8431 43.4013 41.558 43.5862 41.3656C43.7603 41.1819 43.9907 41.0889 44.2769 41.0889C44.5621 41.0889 44.7913 41.1818 44.9571 41.3656C45.105 41.5684 45.1874 41.8441 45.1874 42.2128H45.1885ZM46.4328 43.6503H46.8923V41.1629H47.5651V40.7763H46.8923V40.3326C46.8923 39.9292 47.0485 39.7264 47.3718 39.7264C47.4806 39.7264 47.5915 39.7538 47.6739 39.8004V39.3853C47.5915 39.3483 47.4806 39.3399 47.3421 39.3399C47.094 39.3399 46.8912 39.4139 46.7253 39.5702C46.532 39.7539 46.4296 39.9927 46.4296 40.316V40.7871H45.9436V41.1736H46.4296V43.6517L46.4328 43.6503ZM48.3203 42.8666C48.3203 43.4285 48.5686 43.7148 49.0755 43.7148C49.2594 43.7148 49.3977 43.6852 49.5086 43.6197V43.2247C49.4241 43.2881 49.3238 43.3177 49.2129 43.3177C49.0566 43.3177 48.9468 43.2806 48.8823 43.1972C48.8168 43.1149 48.7798 42.9754 48.7798 42.7831V41.1618H49.5086V40.7752H48.7798V39.9282C48.6214 39.9831 48.4662 40.0296 48.3193 40.0759V40.7751H47.8228V41.1618H48.3193V42.8655L48.3203 42.8666ZM97.7529 48.1626C97.5966 48.0148 97.4118 47.9408 97.1826 47.9408C96.9503 47.9408 96.7579 48.0148 96.6016 48.1732C96.4453 48.3285 96.3713 48.5217 96.3713 48.7436C96.3713 48.9739 96.4453 49.1661 96.6004 49.3139C96.7568 49.4618 96.949 49.5358 97.1814 49.5358C97.4106 49.5358 97.6039 49.4618 97.7624 49.3055C97.9177 49.147 98.0001 48.9643 98.0001 48.7352C97.9916 48.5028 97.9081 48.3105 97.7518 48.1627L97.7529 48.1626ZM97.679 49.2506C97.5417 49.3879 97.3748 49.4512 97.172 49.4512C96.9713 49.4512 96.8045 49.3879 96.665 49.2506C96.5278 49.1111 96.4537 48.9369 96.4537 48.733C96.4537 48.5323 96.5171 48.3655 96.6565 48.226C96.7938 48.0888 96.9598 48.0253 97.172 48.0253C97.3727 48.0253 97.5397 48.0888 97.679 48.226C97.8163 48.3655 97.8902 48.5323 97.8902 48.733C97.8902 48.9464 97.8269 49.1111 97.679 49.2506ZM97.2649 48.7805C97.3473 48.7615 97.4128 48.7246 97.4582 48.6792C97.5047 48.6316 97.5217 48.5671 97.5217 48.4933C97.5217 48.4109 97.4952 48.3454 97.4393 48.3C97.376 48.2472 97.2735 48.2186 97.1437 48.2186H96.85V49.2495H96.9979V48.8164H97.0898C97.1532 48.8164 97.2166 48.8797 97.2735 49.0002L97.3833 49.2484H97.5588L97.4215 48.9716C97.3739 48.8512 97.319 48.7962 97.2631 48.7782L97.2649 48.7805ZM97.1635 48.6876H97.0051V48.3391H97.1351C97.227 48.3391 97.2914 48.3559 97.3284 48.3845C97.3653 48.4119 97.3738 48.4479 97.3738 48.5134C97.3738 48.6327 97.2998 48.6877 97.1626 48.6877L97.1635 48.6876ZM71.466 40.6569H71.5949V39.625H71.9359V39.4961H71.1249V39.625H71.4661V40.6569H71.466ZM72.2476 39.8816C72.2476 39.7812 72.2476 39.6988 72.2402 39.6525C72.2487 39.7073 72.2677 39.7444 72.2762 39.7718L72.6723 40.6569H72.7357L73.1327 39.7633C73.1434 39.7359 73.1519 39.6999 73.1698 39.6525C73.1613 39.7444 73.1613 39.8181 73.1613 39.8742V40.6559H73.2986V39.4961H73.1327L72.7737 40.2967C72.7652 40.3253 72.7366 40.3812 72.7187 40.4447H72.7082C72.7008 40.4076 72.6818 40.3707 72.6554 40.3074L72.2962 39.4962H72.1104V40.658H72.2402V39.8828L72.2476 39.8816Z" fill="#231F1F"></path>
  </g>
  <defs>
    <linearGradient id="paint0_linear_2753_1847" x1="57.893" y1="36.6711" x2="60.7682" y2="34.9722" gradientUnits="userSpaceOnUse">
      <stop stop-color="#909CA9"></stop>
      <stop offset="1" stop-color="#EDEDEE"></stop>
    </linearGradient>
    <linearGradient id="paint1_linear_2753_1847" x1="57.9588" y1="4.64197" x2="60.2723" y2="4.64197" gradientUnits="userSpaceOnUse">
      <stop stop-color="#939FAB"></stop>
      <stop offset="1" stop-color="#DCDEE1"></stop>
    </linearGradient>
    <radialGradient id="paint2_radial_2753_1847" cx="0" cy="0" r="1" gradientUnits="userSpaceOnUse" gradientTransform="translate(69.6325 15.2522) rotate(-171.457) scale(2.9827 5.96687)">
      <stop stop-color="#EE352C"></stop>
      <stop offset="1" stop-color="#A91D22"></stop>
    </radialGradient>
    <clipPath id="clip0_2753_1847">
      <rect width="72.0001" height="60" fill="white" transform="translate(26)"></rect>
    </clipPath>
  </defs>
</svg>
