<?xml version="1.0" encoding="UTF-8"?>
<svg xmlns="http://www.w3.org/2000/svg" width="125" height="60" viewBox="0 0 125 60" fill="none">
  <path fill-rule="evenodd" clip-rule="evenodd" d="M73.947 47.7733C74.0301 47.6134 74.1098 47.4723 74.1777 47.3262C74.2205 47.2328 74.2864 47.2141 74.3793 47.2166C74.9365 47.2323 75.4937 47.2495 76.0514 47.2549C76.5251 47.2598 76.9996 47.251 77.4737 47.2456C78.0078 47.2392 78.5419 47.2111 79.0755 47.2264C79.7862 47.247 80.4787 47.3862 81.1214 47.7025C81.8892 48.0807 82.47 48.6566 82.8659 49.4154C83.1187 49.8998 83.2652 50.4138 83.3237 50.9597C83.4083 51.7505 83.3528 52.5231 83.1019 53.2795C82.7911 54.2169 82.201 54.9344 81.3811 55.472C80.7501 55.8856 80.0582 56.13 79.3165 56.2697C78.5316 56.4177 77.7442 56.37 76.9569 56.3725C76.0932 56.3759 75.2301 56.3572 74.3665 56.3474C74.2155 56.3459 74.1939 56.3174 74.2337 56.1733L74.2706 56.0405C74.3547 55.7759 74.4 55.7641 74.6685 55.7198C74.8544 55.6898 75.0472 55.62 75.2031 55.5167C75.2936 55.4567 75.331 55.3003 75.3664 55.1798C75.3969 55.0746 75.3983 54.959 75.3993 54.8479C75.4116 53.1634 75.4244 51.4795 75.4313 49.7961C75.4328 49.3707 75.4229 48.9443 75.3993 48.5193C75.3826 48.2218 75.2237 48.0182 74.8696 47.9479C74.5942 47.8933 74.3169 47.851 74.04 47.8023L73.947 47.7733ZM81.8532 51.8518C81.8159 51.5164 81.7977 51.178 81.7377 50.8475C81.5941 50.0543 81.2469 49.3633 80.637 48.8218C79.651 47.9469 78.4637 47.8121 77.2195 47.9164C76.9362 47.94 76.8752 48.0369 76.8708 48.328C76.8639 48.7411 76.857 49.1543 76.8565 49.5674C76.8546 50.8775 76.8546 52.1877 76.8565 53.4979C76.857 53.8707 76.861 54.2434 76.8718 54.6152C76.8836 54.9959 77.0218 55.318 77.3946 55.4656C77.9823 55.6982 78.6005 55.7257 79.2172 55.6308C80.2023 55.4798 80.8913 54.9059 81.3536 54.0457C81.7195 53.3631 81.8228 52.618 81.8532 51.8518ZM84.2478 56.3129C84.236 56.1089 84.3196 55.9402 84.4229 55.7852C84.451 55.7434 84.5473 55.7454 84.6137 55.7321L85.1773 55.6205C85.3765 55.5782 85.4813 55.4444 85.5093 55.2492C85.528 55.1203 85.5457 54.99 85.5472 54.8597C85.5595 53.8284 85.5713 52.7971 85.5762 51.7657C85.5811 50.733 85.5772 49.7002 85.5772 48.6674L85.5728 48.4702C85.5526 48.1382 85.3923 47.9661 85.0628 47.9174L84.3482 47.8087C84.2601 47.7969 84.2282 47.7546 84.2601 47.6764C84.3152 47.5431 84.3678 47.4049 84.4455 47.2849C84.4746 47.2407 84.5724 47.2234 84.6383 47.2249C84.9796 47.2298 85.321 47.2554 85.6623 47.2549L88.6333 47.2372C89.2057 47.2367 89.7585 47.3366 90.2719 47.6105C90.837 47.9115 91.1533 48.3772 91.2437 49.0116C91.3382 49.678 91.136 50.2397 90.6492 50.6857C90.449 50.8697 90.1898 50.9897 89.9577 51.1392L89.8819 51.1864C90.0974 51.2656 90.3024 51.3339 90.5021 51.4156C91.0864 51.6551 91.5511 52.0293 91.797 52.6269C91.9913 53.0985 91.9913 53.5903 91.8762 54.0792C91.6972 54.8444 91.1931 55.3534 90.5375 55.7385C89.9223 56.1 89.2564 56.3105 88.5472 56.3459C87.8931 56.3789 87.236 56.3666 86.5805 56.3739L86.2008 56.3759C85.5693 56.3616 84.9373 56.3454 84.3054 56.3287L84.2478 56.3129ZM86.971 53.3184H86.9773C86.9773 53.642 86.9729 53.9656 86.9788 54.2892C86.9828 54.4987 86.9754 54.7141 87.0206 54.9157C87.0885 55.2172 87.2262 55.4892 87.5646 55.5757C88.0214 55.6933 88.4882 55.7169 88.9505 55.6367C89.5293 55.5359 89.9911 55.2457 90.2444 54.6944C90.4323 54.2848 90.4603 53.8505 90.3959 53.4069C90.3103 52.8226 90 52.3987 89.4841 52.1208C89.1457 51.9384 88.7847 51.8267 88.4001 51.812C87.9693 51.7957 87.538 51.7948 87.1072 51.7815C86.9862 51.778 86.9695 51.8395 86.97 51.9389C86.9724 52.3982 86.971 52.858 86.971 53.3184ZM87.8882 51.1175C88.1237 51.1057 88.3903 51.1023 88.6554 51.0757C89.1629 51.0251 89.5205 50.7698 89.7069 50.2844C89.8018 50.038 89.7978 49.7843 89.8003 49.528C89.8077 48.8607 89.4182 48.3138 88.7842 48.0875C88.2949 47.913 87.7903 47.91 87.2828 47.9238C87.0772 47.9292 86.9852 48.0192 86.9823 48.2262L86.9518 50.9257C86.9503 51.033 86.9965 51.0792 87.1008 51.0826L87.8882 51.1175Z" fill="#94795D"></path>
  <path fill-rule="evenodd" clip-rule="evenodd" d="M36.2179 55.7941L36.182 56.2584C35.8476 56.2584 35.5392 56.2559 35.2309 56.2593C34.6501 56.2652 34.0692 56.2746 33.4879 56.283L33.4319 56.2864C33.3487 56.2766 33.1978 56.2766 33.1938 56.252C33.1692 56.1138 33.1771 55.9687 33.1835 55.8256C33.184 55.8093 33.2405 55.7887 33.2735 55.7808L33.7255 55.68C34.0073 55.6067 34.1066 55.4852 34.1199 55.1941C34.1351 54.8661 34.1504 54.5375 34.1519 54.2095C34.1563 53.402 34.1514 52.5954 34.1548 51.7879C34.1553 51.599 34.0899 51.4584 33.9138 51.3816C33.7043 51.2892 33.4938 51.1987 33.2819 51.1131C33.1815 51.0728 33.0512 51.0507 33.063 50.9159C33.0748 50.7787 33.2012 50.7428 33.3202 50.7157C33.813 50.6031 34.3063 50.4934 34.7976 50.3734C34.956 50.3346 35.1074 50.2692 35.2968 50.2033C35.3066 50.3056 35.3248 50.403 35.3228 50.5003L35.2938 50.9631C35.2933 51.0152 35.3204 51.0851 35.3592 51.1141C35.3828 51.1323 35.462 51.0993 35.5014 51.0689C35.9214 50.7492 36.366 50.4733 36.873 50.3125C37.6584 50.0631 38.3327 50.2943 38.8048 50.9715C38.971 51.21 38.9715 51.21 39.2022 51.0433C39.5981 50.7556 40.0122 50.5018 40.4755 50.3346C41.4925 49.9672 42.4697 50.4334 42.8233 51.4579C42.9522 51.8297 43.0014 52.2138 43.0004 52.6062L42.991 55.2118C42.9905 55.4267 43.0619 55.5492 43.2664 55.6161C43.4961 55.6913 43.7342 55.743 43.9928 55.8108L43.9328 56.2589C43.6387 56.2589 43.3682 56.2569 43.0978 56.2593C42.4368 56.2652 41.7758 56.2687 41.1153 56.2839C41.0002 56.2869 40.9702 56.2584 40.9643 56.1507C40.9451 55.8059 40.9422 55.8064 41.2668 55.7287L41.376 55.7007C41.6932 55.6141 41.7989 55.5167 41.8014 55.1951C41.8087 54.2715 41.8279 53.3454 41.7812 52.4238C41.7325 51.4677 40.9737 50.9587 40.0471 51.2036C39.7446 51.2833 39.4707 51.423 39.216 51.6039C39.1299 51.6654 39.1137 51.7362 39.1205 51.8439C39.1466 52.2511 39.1628 52.6589 39.1663 53.0666C39.1722 53.7802 39.1633 54.4938 39.1663 55.2079C39.1673 55.497 39.2661 55.6077 39.5519 55.6746L39.9763 55.7725L40.055 55.7902C40.0609 55.9259 40.0663 56.0616 40.0599 56.1974C40.056 56.2825 39.9901 56.2898 39.9163 56.2884C39.5037 56.278 39.0905 56.2643 38.6779 56.2652C38.1758 56.2662 37.6742 56.2805 37.1725 56.2893H37.0545C37.0545 56.1452 37.0476 56.0075 37.0594 55.8703C37.0619 55.8374 37.1199 55.7911 37.1597 55.7808L37.6545 55.6761C37.8645 55.6244 37.9648 55.5167 37.9766 55.3033C38.0327 54.3148 38.073 53.3257 37.9801 52.3377C37.9619 52.1459 37.8994 51.9512 37.8197 51.7746C37.5664 51.2149 36.9964 50.9813 36.3389 51.1495C36.0266 51.2292 35.7448 51.3723 35.4782 51.5528C35.3523 51.6384 35.2923 51.7515 35.2923 51.8946C35.2923 52.8807 35.2958 53.8667 35.2987 54.8523L35.3042 55.2325C35.3101 55.4975 35.4227 55.6372 35.6858 55.6943C35.855 55.7326 36.0261 55.7587 36.2179 55.7941Z" fill="#50382B"></path>
  <path fill-rule="evenodd" clip-rule="evenodd" d="M65.9513 50.3041C66.0275 50.6749 66.0261 51.0084 65.7536 51.2612C65.4831 51.5125 65.1408 51.4279 64.8069 51.3718C64.8379 51.5479 64.8723 51.6974 64.889 51.8489C65.0105 52.9746 64.5261 53.8102 63.482 54.2877C63.0875 54.4677 62.669 54.5346 62.2416 54.569C62.0292 54.5857 61.8433 54.748 61.8231 54.9226C61.8025 55.0997 61.9136 55.2816 62.1359 55.3348C62.398 55.3972 62.6715 55.4149 62.9405 55.4459C63.5179 55.5118 64.1016 55.5418 64.6721 55.6451C65.5348 55.8005 66.0162 56.5534 65.8643 57.42C65.729 58.1911 65.2825 58.7523 64.6598 59.1826C63.6108 59.9095 62.46 60.122 61.2344 59.7511C60.5336 59.5387 60.0393 59.0779 59.8687 58.3323C59.7831 57.959 59.8741 57.6211 60.1549 57.3679C60.4889 57.0679 60.8523 56.8003 61.202 56.517L61.3151 56.4034L61.1852 56.3125C60.8287 56.1433 60.5434 55.9116 60.4328 55.5093C60.3949 55.3731 60.4343 55.2836 60.5498 55.2138C60.7466 55.0952 60.9423 54.9748 61.1366 54.8523C61.228 54.7952 61.3185 54.7362 61.4036 54.6703C61.5197 54.5818 61.5093 54.5159 61.3707 54.4648C61.048 54.3457 60.7613 54.1731 60.539 53.9075C60.1677 53.4644 60.0625 52.9367 60.093 52.3795C60.1407 51.509 60.6133 50.9356 61.3815 50.5667C62.2948 50.1285 63.211 50.101 64.142 50.5003C64.4862 50.6479 64.8492 50.6793 65.2185 50.6538C65.4944 50.6341 65.7354 50.5298 65.9513 50.3041ZM62.5859 56.5407C61.9003 56.5348 61.6854 56.6193 61.2831 57.029C60.8326 57.4884 60.8351 58.1252 61.2846 58.5866C61.6259 58.9362 62.0518 59.1 62.5254 59.1492C63.0787 59.2062 63.6236 59.1831 64.1262 58.9062C64.6623 58.6097 64.9289 58.0589 64.8084 57.5041C64.7085 57.0462 64.3711 56.8367 63.9605 56.7162C63.4933 56.5795 63.0103 56.5534 62.5859 56.5407ZM61.2393 52.1597C61.2644 52.35 61.2748 52.5428 61.317 52.7292C61.4267 53.2121 61.6367 53.6366 62.1172 53.8515C62.6813 54.1048 63.4018 53.9961 63.6487 53.2043C63.8179 52.6618 63.7972 52.1233 63.5931 51.5941C63.5021 51.358 63.3556 51.1584 63.1456 51.0118C62.6557 50.67 61.772 50.6248 61.412 51.3802C61.2949 51.6256 61.2492 51.8867 61.2393 52.1597Z" fill="#4F382B"></path>
  <path fill-rule="evenodd" clip-rule="evenodd" d="M54.3196 50.1826C54.3378 50.2667 54.3742 50.3621 54.3752 50.458C54.3767 50.6405 54.357 50.8229 54.3467 51.0054V51.1638L54.5011 51.0457C54.9241 50.6975 55.3785 50.401 55.9077 50.2411C56.8628 49.9534 57.8169 50.4762 58.1282 51.449C58.2462 51.8189 58.2929 52.199 58.2974 52.5856C58.3072 53.4443 58.3131 54.303 58.3219 55.1616C58.3249 55.47 58.3603 55.5251 58.6519 55.6141C58.8172 55.6648 58.9878 55.7002 59.1585 55.7267C59.2524 55.7415 59.2928 55.7784 59.2878 55.8703L59.2888 55.9549C59.2854 56.3105 59.2608 56.3267 58.916 56.3257C58.0908 56.3243 57.266 56.3292 56.4408 56.3361C56.1949 56.338 56.1944 56.3454 56.1698 56.1025L56.1649 55.9628C56.1801 55.7533 56.1851 55.7552 56.3911 55.7248C56.5298 55.7041 56.6675 55.6721 56.8028 55.6367C56.9419 55.6008 57.0088 55.498 57.0275 55.3603C57.0369 55.2905 57.0492 55.2207 57.0487 55.1508C57.0369 54.2125 57.0521 53.2731 57.001 52.3362C56.9596 51.5784 56.3813 51.1269 55.6205 51.1785C55.2472 51.2046 54.9098 51.329 54.6019 51.5439C54.3988 51.6861 54.358 51.8911 54.359 52.112C54.3629 52.9893 54.3713 53.8667 54.3806 54.7446C54.3826 54.9369 54.388 55.1292 54.4062 55.32C54.4254 55.5285 54.4987 55.6126 54.7033 55.6579C54.899 55.7011 55.0987 55.7262 55.3077 55.7611L55.3254 55.9225C55.3323 56.2987 55.2929 56.3267 54.9275 56.3252C54.0742 56.3218 53.221 56.3272 52.3682 56.3366C52.2339 56.3385 52.1769 56.2962 52.1803 56.1654L52.1783 56.1093C52.1562 55.7705 52.166 55.7577 52.4867 55.7026L52.6382 55.6721C52.9854 55.5939 53.0744 55.5015 53.0793 55.1489C53.0956 54.032 53.1015 52.9156 53.1128 51.7987C53.1142 51.6384 53.0537 51.5139 52.9042 51.4475C52.6947 51.3551 52.4833 51.267 52.2713 51.18C52.1542 51.1318 52.0205 51.1013 52.016 50.9395C52.0131 50.8254 52.1351 50.7246 52.3018 50.6907C52.6367 50.6228 52.9746 50.5662 53.3056 50.4831C53.6351 50.401 53.9587 50.2908 54.3196 50.1826Z" fill="#4F372B"></path>
  <path fill-rule="evenodd" clip-rule="evenodd" d="M72.7697 53.1C72.754 54.1431 72.483 54.9866 71.7453 55.6195C70.8109 56.4226 69.3532 56.6956 68.1615 56.0951C67.653 55.8389 67.2792 55.4459 67.0358 54.9359C66.6625 54.1515 66.5691 53.3267 66.7638 52.4818C66.9566 51.6462 67.4627 51.0408 68.2201 50.6489C68.9991 50.2461 69.8194 50.0887 70.6845 50.3002C71.7787 50.5672 72.5651 51.4593 72.7215 52.5954C72.7496 52.7946 72.7604 52.9962 72.7697 53.1ZM71.5024 53.6651L71.4601 53.6602C71.4601 53.5618 71.4655 53.4634 71.4591 53.3651C71.4232 52.7523 71.2855 52.1685 70.9304 51.6556C70.5935 51.1697 70.1346 50.8829 69.5376 50.8411C68.8692 50.7939 68.3076 51.1677 68.1104 51.8503C67.8143 52.8752 67.9146 53.8741 68.435 54.813C68.6617 55.2221 68.9976 55.5241 69.4476 55.683C70.3294 55.9933 71.1114 55.5915 71.341 54.6885C71.4256 54.3551 71.4502 54.0064 71.5024 53.6651Z" fill="#4F382B"></path>
  <path fill-rule="evenodd" clip-rule="evenodd" d="M51.1077 53.1807C51.0895 53.9292 50.9129 54.6211 50.4506 55.2226C49.9554 55.8669 49.2747 56.2111 48.5006 56.3562C47.5854 56.5274 46.7257 56.372 45.9905 55.7577C45.6413 55.4656 45.4028 55.0913 45.2454 54.6654C44.9872 53.967 44.9228 53.2515 45.0816 52.5221C45.2513 51.7416 45.692 51.1451 46.3751 50.7448C47.1649 50.2829 48.0172 50.0769 48.9275 50.2844C50.098 50.552 50.7738 51.3148 51.0236 52.4695C51.0738 52.7026 51.0806 52.9436 51.1077 53.1807ZM49.8261 53.6744L49.7921 53.6695V53.5289C49.7729 52.8423 49.6387 52.1882 49.229 51.6177C48.9256 51.1943 48.5193 50.9287 47.9985 50.8544C47.1497 50.7334 46.5949 51.237 46.411 51.9211C46.171 52.8148 46.2462 53.6975 46.6175 54.5449C46.8492 55.0731 47.2151 55.4848 47.7772 55.6844C48.6536 55.9957 49.4474 55.5836 49.6692 54.6841C49.7508 54.3551 49.7754 54.0118 49.8261 53.6744Z" fill="#4F372B"></path>
  <path fill-rule="evenodd" clip-rule="evenodd" d="M71.5387 15.0216C72.1421 16.7661 72.5759 18.5469 72.719 20.3921C72.8961 22.682 72.8154 24.9561 72.3325 27.208L72.2705 27.388C72.119 27.3885 71.9646 27.3693 71.8166 27.3925C70.5659 27.5892 69.3167 27.7928 68.0671 27.9954C66.7751 28.2049 65.4821 28.4061 64.1926 28.6293C63.7357 28.708 63.1702 28.6141 62.9857 29.2456L62.8972 29.2756L62.9597 25.4995L62.8962 16.3884L63.4982 16.2851C64.4823 16.1243 65.4664 15.9605 66.452 15.8036C67.6274 15.6172 68.8038 15.4352 69.9802 15.2533C70.4995 15.1736 71.0194 15.0993 71.5387 15.0216Z" fill="#439934"></path>
  <path fill-rule="evenodd" clip-rule="evenodd" d="M61.6549 40.2841C61.02 39.7382 60.3629 39.2164 59.7545 38.642C56.4801 35.5534 54.0845 31.9175 52.9047 27.5341C52.5796 26.3282 52.3632 25.1021 52.2934 23.8559C52.2442 22.9834 52.1739 22.1036 52.2359 21.2356C52.3996 18.9275 52.7336 16.6416 53.4103 14.4182L53.4477 14.3666C53.5136 14.4541 53.608 14.5318 53.6414 14.6307C54.3024 16.5762 54.958 18.5238 55.6106 20.4728C57.6609 26.5962 59.7088 32.7211 61.7626 38.8436C61.8029 38.9631 61.9067 39.061 61.9814 39.1687L61.6549 40.2841Z" fill="#45A538"></path>
  <path fill-rule="evenodd" clip-rule="evenodd" d="M71.5387 15.0216C71.0189 15.0989 70.499 15.1736 69.9802 15.2533C68.8038 15.4352 67.6274 15.6172 66.452 15.8036C65.4669 15.96 64.4828 16.1238 63.4982 16.2851L62.8962 16.3884L62.8913 15.9959C62.8712 15.6733 62.8377 15.3507 62.8333 15.028L62.7659 8.85393C62.7502 7.5659 62.7266 6.27787 62.7005 4.99033C62.6843 4.19016 62.6671 3.38951 62.6312 2.59033C62.6115 2.16098 62.5421 1.73361 62.5146 1.30426C62.4984 1.05738 62.52 0.808524 62.5254 0.560656C62.8323 1.15525 63.1328 1.75426 63.448 2.34443C63.9462 3.27738 64.7405 3.96492 65.4561 4.71492C68.282 7.68098 70.288 11.1275 71.5387 15.0216Z" fill="#46A037"></path>
  <path fill-rule="evenodd" clip-rule="evenodd" d="M62.8977 29.2756L62.9862 29.2456C63.1706 28.6141 63.7362 28.708 64.1931 28.6293C65.4826 28.4061 66.7756 28.2049 68.0675 27.9954C69.3172 27.7933 70.5664 27.5897 71.817 27.3925C71.9651 27.3693 72.1195 27.3885 72.271 27.388C72.0374 28.2221 71.8534 29.0744 71.5569 29.8854C71.22 30.8051 70.8128 31.7031 70.3805 32.5834C69.7343 33.899 68.9292 35.1266 67.9938 36.2513C67.2728 37.1179 66.4692 37.92 65.6641 38.7113C65.2185 39.1485 64.6942 39.5051 64.2054 39.8985L64.0785 39.812L63.6226 39.4225L63.151 38.3877C62.8259 37.1769 62.6557 35.9444 62.6272 34.6913L62.6361 34.4808L62.7005 33.569C62.7216 33.2577 62.7501 32.9469 62.7634 32.6356C62.8106 31.5162 62.8529 30.3959 62.8977 29.2756Z" fill="#409433"></path>
  <path fill-rule="evenodd" clip-rule="evenodd" d="M62.8977 29.2756C62.8535 30.3959 62.8112 31.5167 62.7635 32.637C62.7502 32.9489 62.7222 33.2597 62.7005 33.5705L62.4133 33.6792C61.775 31.8 61.1361 29.9405 60.5115 28.0766C59.4782 24.9925 58.4577 21.9039 57.4259 18.8189C56.5933 16.3293 55.7533 13.8413 54.9089 11.3552C54.869 11.2392 54.7559 11.1477 54.6772 11.0449L56.5166 7.66279C56.58 7.77246 56.6631 7.87525 56.703 7.99328C57.5538 10.5113 58.4031 13.0298 59.2451 15.5508C60.3409 18.8311 61.4292 22.113 62.524 25.3938C62.5677 25.5246 62.6395 25.6456 62.7084 25.7926L62.9602 25.4995C62.939 26.7585 62.9184 28.0166 62.8977 29.2756Z" fill="#4FAA41"></path>
  <path fill-rule="evenodd" clip-rule="evenodd" d="M54.6768 11.0449C54.756 11.1477 54.8691 11.2392 54.9084 11.3552C55.7528 13.8413 56.5928 16.3289 57.4255 18.8189C58.4573 21.9039 59.4778 24.9925 60.511 28.0766C61.1356 29.9405 61.7745 31.7995 62.4128 33.6792L62.7001 33.5705L62.6356 34.4823L62.5771 34.6923C62.4773 35.6902 62.3932 36.69 62.2712 37.6859C62.2102 38.1851 62.0799 38.6749 61.981 39.1687C61.9068 39.061 61.8025 38.9631 61.7622 38.8436C59.7079 32.7211 57.6605 26.5962 55.6102 20.4728C54.9576 18.5238 54.3015 16.5762 53.641 14.6307C53.6076 14.5318 53.5132 14.4541 53.4473 14.3666L54.6768 11.0449Z" fill="#4AA73C"></path>
  <path fill-rule="evenodd" clip-rule="evenodd" d="M62.9597 25.4995L62.7079 25.7926C62.6391 25.6456 62.5673 25.5246 62.5235 25.3938C61.4287 22.113 60.3404 18.8311 59.2446 15.5508C58.4027 13.0298 57.5533 10.5113 56.7025 7.99328C56.6627 7.87525 56.5796 7.77246 56.5161 7.66279L58.7907 4.67066C58.8625 4.76607 58.9648 4.85115 59.0017 4.95885C59.6332 6.80803 60.2587 8.65869 60.8814 10.5108C61.4627 12.241 62.0351 13.9731 62.6233 15.7003C62.6627 15.8159 62.7999 15.8975 62.8914 15.9959L62.8963 16.3884L62.9597 25.4995Z" fill="#57AE47"></path>
  <path fill-rule="evenodd" clip-rule="evenodd" d="M62.8913 15.9959C62.7993 15.898 62.6626 15.8164 62.6233 15.7003C62.0356 13.9731 61.4626 12.241 60.8813 10.5108C60.2587 8.65869 59.6331 6.80803 59.0016 4.95885C58.9647 4.85115 58.8625 4.76606 58.7906 4.67065C59.5303 3.94623 60.2469 3.19574 61.0165 2.50475C61.7006 1.89098 62.2505 1.23295 62.2761 0.262622L62.3302 0.0693436L62.5249 0.560163C62.52 0.808032 62.4979 1.05688 62.5141 1.30377C62.5421 1.73311 62.6115 2.16049 62.6306 2.58984C62.6665 3.38902 62.6838 4.18967 62.7 4.98984C62.7261 6.27738 62.7497 7.56541 62.7654 8.85344L62.8328 15.0275C62.8377 15.3507 62.8716 15.6733 62.8913 15.9959Z" fill="#60B24F"></path>
  <path fill-rule="evenodd" clip-rule="evenodd" d="M61.9815 39.1682C62.0803 38.6744 62.2106 38.1846 62.2716 37.6854C62.3936 36.69 62.4777 35.6897 62.5775 34.6918L62.6026 34.6879L62.6272 34.6923C62.6557 35.9454 62.8259 37.1779 63.151 38.3887C63.0846 38.4762 62.9916 38.5534 62.9562 38.6518C62.6833 39.422 62.4256 40.1985 62.1511 40.9682C62.1138 41.0734 62.0085 41.1556 61.9352 41.2475L61.6544 40.2836L61.9815 39.1682Z" fill="#A9AA88"></path>
  <path fill-rule="evenodd" clip-rule="evenodd" d="M61.9353 41.248C62.0086 41.1556 62.1138 41.0739 62.1512 40.9687C62.4256 40.199 62.6833 39.4225 62.9563 38.6523C62.9912 38.5539 63.0846 38.4767 63.151 38.3892L63.6227 39.4239C63.5297 39.5557 63.4009 39.6752 63.3492 39.8223L62.4463 42.4741C62.4089 42.5808 62.2825 42.6556 62.1969 42.7456L61.9353 41.248Z" fill="#B6B598"></path>
  <path fill-rule="evenodd" clip-rule="evenodd" d="M62.1969 42.7451C62.282 42.6551 62.4089 42.5803 62.4462 42.4736L63.3492 39.8218C63.4003 39.6748 63.5297 39.5552 63.6226 39.4234L64.079 39.8125C63.8587 40.0303 63.7362 40.2821 63.81 40.6003L63.6713 41.0543C63.6084 41.132 63.5169 41.1998 63.4859 41.2889C63.1707 42.1918 62.8702 43.0997 62.5525 44.0021C62.5121 44.1162 62.4005 44.2062 62.3223 44.3075L62.1969 42.7451Z" fill="#C2C1A7"></path>
  <path fill-rule="evenodd" clip-rule="evenodd" d="M62.3217 44.307C62.4004 44.2057 62.5121 44.1157 62.5519 44.0016C62.8696 43.0992 63.1706 42.1913 63.4854 41.2884C63.5163 41.1993 63.6078 41.132 63.6708 41.0538L63.4794 43.137C63.4283 43.1961 63.3545 43.2477 63.3299 43.3161L62.6935 45.1397C62.6488 45.2641 62.5632 45.3752 62.4963 45.4918C62.4368 45.4141 62.3306 45.3389 62.3257 45.2582C62.307 44.9425 62.3203 44.6243 62.3217 44.307Z" fill="#CECDB7"></path>
  <path fill-rule="evenodd" clip-rule="evenodd" d="M62.4968 45.4923C62.5637 45.3757 62.6493 45.2646 62.694 45.1402L63.3304 43.3166C63.355 43.2477 63.4293 43.1966 63.4799 43.1375L63.4849 44.5048L63.027 45.6787L62.4968 45.4923Z" fill="#DBDAC7"></path>
  <path fill-rule="evenodd" clip-rule="evenodd" d="M63.0271 45.6787L63.485 44.5048L63.5794 45.8936L63.0271 45.6787Z" fill="#EBE9DC"></path>
  <path fill-rule="evenodd" clip-rule="evenodd" d="M63.8095 40.6003C63.7362 40.2826 63.8582 40.0308 64.0785 39.8125L64.2054 39.899L63.8095 40.6003Z" fill="#CECDB7"></path>
  <path fill-rule="evenodd" clip-rule="evenodd" d="M62.6272 34.6928L62.6026 34.6884L62.5775 34.6923L62.636 34.4823L62.6272 34.6928Z" fill="#4FAA41"></path>
</svg>
