<?xml version="1.0" encoding="UTF-8"?>
<svg xmlns="http://www.w3.org/2000/svg" width="125" height="60" viewBox="0 0 125 60" fill="none">
  <path fill-rule="evenodd" clip-rule="evenodd" d="M12.0057 51.3729H15.3108V38.2797L20.4724 49.6953C21.057 51.0675 21.897 51.5758 23.5233 51.5758C25.1496 51.5758 25.9394 51.0669 26.5434 49.6953L31.6794 38.2797V51.3729H35.0101V38.2797C35.0101 37.009 34.5012 36.3975 33.4334 36.067C30.9164 35.3046 29.2382 35.9656 28.4758 37.6683L23.4167 48.9568L18.5349 37.6683C17.7975 35.9656 16.0937 35.3046 13.5517 36.067C12.5089 36.3975 12.0006 37.0084 12.0006 38.2797L12 51.3729H12.0057ZM37.7613 40.7203H41.092V47.9157C41.0669 48.322 41.2191 49.2377 43.0294 49.2622C43.9697 49.2879 50.1992 49.2622 50.2493 49.2622V40.669H53.58V52.4408C53.58 55.339 49.99 55.9738 48.317 56H37.8433V53.789H48.3438C50.4795 53.5599 50.2254 52.4926 50.2254 52.1365V51.2715H43.1822C39.9022 51.2458 37.7915 49.7967 37.767 48.1442V40.7192L37.7613 40.7203ZM109.204 32.3807C107.171 32.3294 105.594 32.5334 104.272 33.093C103.891 33.2469 103.28 33.2469 103.23 33.729C103.434 33.9313 103.458 34.2623 103.636 34.5427C103.941 35.0516 104.476 35.7371 104.958 36.0927C105.493 36.5001 106.027 36.9064 106.585 37.2625C107.577 37.8723 108.695 38.2284 109.661 38.8387C110.221 39.1949 110.78 39.6524 111.339 40.0342C111.624 40.2377 111.797 40.5687 112.153 40.6953V40.6183C111.975 40.3904 111.924 40.0599 111.747 39.8046C111.492 39.551 111.238 39.3214 110.983 39.0678C110.247 38.0763 109.331 37.2113 108.339 36.5001C107.526 35.9405 105.747 35.1781 105.416 34.2378L105.366 34.1866C105.924 34.1353 106.585 33.9318 107.12 33.7791C107.985 33.5512 108.772 33.6013 109.661 33.3728C110.069 33.2702 110.475 33.1437 110.882 33.0167V32.7887C110.425 32.3312 110.094 31.7209 109.612 31.2889C108.315 30.1703 106.891 29.0768 105.416 28.1616C104.628 27.6533 103.611 27.3223 102.772 26.8909C102.466 26.7382 101.958 26.6618 101.78 26.4077C101.322 25.8492 101.068 25.1113 100.738 24.4497C100.001 23.0513 99.2885 21.5008 98.6532 20.026C98.1956 19.0345 97.9152 18.043 97.3568 17.1278C94.7378 12.8056 91.8897 10.1872 87.5168 7.61893C86.5766 7.085 85.458 6.85535 84.2687 6.57613L82.362 6.47356C81.9546 6.29577 81.5483 5.81255 81.1921 5.58347C79.743 4.66831 76.0055 2.68527 74.937 5.30425C74.2504 6.95678 75.9542 8.58367 76.5326 9.42305C76.9656 10.0077 77.5241 10.6687 77.8301 11.3297C78.001 11.7617 78.058 12.2198 78.2364 12.6774C78.6427 13.796 79.0245 15.0422 79.5584 16.085C79.8433 16.619 80.1425 17.1791 80.4987 17.6618C80.7021 17.941 81.0582 18.0686 81.134 18.5262C80.7779 19.0351 80.7534 19.797 80.5499 20.4335C79.6342 23.3066 79.9904 26.8658 81.2867 28.9754C81.6942 29.6107 82.6544 31.0097 83.957 30.4752C85.1012 30.0176 84.846 28.5685 85.1765 27.2972C85.2534 26.9923 85.2021 26.7889 85.3542 26.5849V26.6362L86.3971 28.7463C87.1851 29.992 88.5585 31.2889 89.7021 32.1539C90.3119 32.6115 90.7951 33.4002 91.5575 33.6794V33.6025H91.5074C91.3547 33.3745 91.1256 33.272 90.9221 33.0942C90.4646 32.6366 89.9563 32.077 89.6001 31.5687C88.5328 30.1452 87.5926 28.5685 86.7532 26.9416C86.3458 26.1535 85.9896 25.2891 85.6603 24.501C85.5064 24.1956 85.5064 23.7374 85.2528 23.5858C84.871 24.1443 84.3126 24.6286 84.0317 25.3147C83.5484 26.4077 83.4983 27.7553 83.3205 29.1537C83.2179 29.1794 83.2635 29.1537 83.2179 29.205C82.4053 29.0022 82.125 28.1622 81.8201 27.4511C81.0577 25.6458 80.93 22.7476 81.591 20.6626C81.7688 20.1286 82.5324 18.4504 82.2275 17.9421C82.0737 17.4589 81.5665 17.1797 81.2862 16.7979C80.9557 16.3147 80.6006 15.705 80.3716 15.171C79.7618 13.7464 79.457 12.1708 78.7954 10.7468C78.4894 10.0858 77.956 9.39911 77.5235 8.78939C77.0403 8.10273 76.5075 7.61951 76.1257 6.80634C75.9986 6.52712 75.8208 6.06897 76.0243 5.76354C76.0744 5.56011 76.177 5.48432 76.3793 5.43303C76.7098 5.15381 77.6512 5.50939 77.9817 5.66097C78.9219 6.04276 79.71 6.39834 80.4981 6.93171C80.8542 7.18586 81.236 7.66908 81.6936 7.79672H82.2281C83.0418 7.97451 83.9564 7.84801 84.7183 8.07595C86.066 8.50902 87.286 9.14382 88.3801 9.83105C91.7102 11.9412 94.4569 14.9414 96.3123 18.5268C96.6171 19.1115 96.7442 19.6454 97.0246 20.2557C97.5591 21.5019 98.2201 22.7727 98.7529 23.9938C99.2874 25.1888 99.7957 26.41 100.558 27.4015C100.94 27.9354 102.465 28.2146 103.151 28.4944C103.66 28.7224 104.447 28.9275 104.906 29.2067C105.77 29.7407 106.634 30.351 107.447 30.9356C107.854 31.2399 109.126 31.8759 109.201 32.383L109.204 32.3807ZM83.2766 10.2869C82.9253 10.2838 82.5752 10.3265 82.2349 10.414V10.4653H82.2851C82.4885 10.8721 82.8447 11.1519 83.0988 11.5081L83.6841 12.7287L83.7342 12.6774C84.0903 12.4232 84.2687 12.0164 84.2687 11.4067C84.116 11.2289 84.0909 11.0505 83.9638 10.8727C83.8111 10.6186 83.4806 10.4909 83.2766 10.2881V10.2869Z" fill="#00678C"></path>
  <path fill-rule="evenodd" clip-rule="evenodd" d="M56.1184 51.3729H65.678C66.7966 51.3729 67.8651 51.145 68.729 50.7375C70.1781 50.0765 70.8647 49.1876 70.8647 48.0177V45.5771C70.8647 44.6368 70.0766 43.7462 68.501 43.1364C67.6873 42.8316 66.6701 42.6532 65.6786 42.6532H61.6612C60.3136 42.6532 59.6782 42.2458 59.4998 41.3568C59.4748 41.2554 59.4748 41.1534 59.4748 41.052V39.5516C59.4748 39.4747 59.4748 39.3738 59.4998 39.2724C59.6776 38.5857 60.0338 38.4073 61.2094 38.2808H70.9975V36.0682H61.692C60.3443 36.0682 59.6326 36.1451 58.9967 36.3485C57.0387 36.9582 56.1743 37.9247 56.1743 39.6274V41.5608C56.1743 43.0595 57.8524 44.332 60.6999 44.6368C61.0048 44.6625 61.3353 44.6625 61.6658 44.6625H65.0985C65.2256 44.6625 65.3521 44.6625 65.4535 44.6881C66.4963 44.7896 66.9539 44.9673 67.2588 45.348C67.4622 45.5514 67.5135 45.7298 67.5135 45.9589V47.8906C67.5135 48.1185 67.3608 48.4251 67.0559 48.6787C66.751 48.9323 66.2667 49.1106 65.6313 49.1363C65.5042 49.1363 65.429 49.1619 65.3008 49.1619H56.1184V51.3729ZM91.5596 47.5345C91.5596 49.7967 93.2691 51.0675 96.671 51.3228C97.0015 51.3484 97.3064 51.3729 97.6369 51.3729H106.281V49.1619H97.5611C95.6276 49.1619 94.8908 48.6787 94.8908 47.5094V36.0682H91.5533V47.535L91.5596 47.5345ZM72.9743 47.6353V39.7544C72.9743 37.7458 74.3977 36.5246 77.17 36.1439C77.4748 36.1183 77.7797 36.0927 78.0589 36.0927H84.3636C84.6941 36.0927 84.9745 36.1183 85.305 36.1439C88.0761 36.5246 89.474 37.7452 89.474 39.7544V47.6353C89.474 49.2622 88.8899 50.1272 87.516 50.7125L90.7698 53.6608H86.9313L84.2873 51.2715L81.617 51.4242H78.0578C77.4056 51.4209 76.7564 51.3358 76.1255 51.1706C74.0171 50.5848 72.9743 49.4668 72.9743 47.6353ZM76.5585 47.4587C76.5585 47.5601 76.6155 47.661 76.6355 47.7892C76.8133 48.7038 77.6771 49.2126 78.9992 49.2126H81.9999L79.2545 46.7207H83.0929L85.5079 48.9078C85.9666 48.6531 86.2458 48.2969 86.3472 47.8393C86.3729 47.7379 86.3729 47.6114 86.3729 47.5088V39.9573C86.3729 39.8559 86.3729 39.755 86.3472 39.6525C86.1695 38.7886 85.3056 38.3059 84.0086 38.3059H78.9997C77.525 38.3059 76.5591 38.9413 76.5591 39.9573L76.5585 47.4587Z" fill="#CE8B2C"></path>
</svg>
