<?xml version="1.0" encoding="UTF-8"?>
<svg xmlns="http://www.w3.org/2000/svg" width="125" height="60" viewBox="0 0 125 60" fill="none">
  <g clip-path="url(#clip0_2753_2302)">
    <path d="M12.7013 24.7768C11.675 24.589 10.5147 24.0994 9.79699 23.536C8.42199 22.4628 7.48297 21.0409 7.19456 19.6055C7.16102 19.4445 7.10736 19.1762 7.07382 19.0018C6.9598 18.4518 7.03358 17.0768 7.20126 16.3994C7.38236 15.6817 7.8787 14.5884 8.28114 14.0451C8.64334 13.5421 9.48175 12.7037 9.91102 12.422C10.7025 11.8854 11.6683 11.4628 12.433 11.322C12.661 11.275 14.5793 11.2348 17.4635 11.2213C22.2257 11.1945 22.8628 11.2146 23.7013 11.4494C25.4318 11.939 27.1891 13.4482 27.9604 15.125C28.8525 17.0634 28.7921 19.4713 27.8128 21.2219C26.7061 23.1872 25.2708 24.2469 23.0238 24.75C22.4805 24.8707 22.1586 24.8774 17.8257 24.8774C14.2439 24.8707 13.0903 24.8506 12.7013 24.7768ZM23.1647 22.1409C24.5665 21.5104 25.2909 20.7457 25.7738 19.364C25.9549 18.8476 25.9818 18.6799 25.9818 18.0896C25.975 17.05 25.8007 16.4329 25.2641 15.6146C24.6604 14.689 23.7147 14.0317 22.5811 13.75C22.0647 13.6159 21.8769 13.6091 17.6244 13.6293L13.2043 13.6494L12.6275 13.8573C11.2726 14.3402 10.3336 15.2793 9.87078 16.6073C9.68968 17.1238 9.66285 17.2982 9.65614 17.9421C9.64273 19.1762 10.0183 20.1689 10.8232 21.0207C11.4068 21.6445 11.8763 21.9396 12.7348 22.2348L13.2043 22.4024L17.933 22.3823L22.6616 22.3689L23.1647 22.1409Z" fill="#E0181F"></path>
    <path d="M29.9659 24.7902C29.9525 24.75 29.9458 21.6848 29.9525 17.9756L29.9726 11.2348H36.1098C39.4836 11.2415 42.3543 11.2616 42.4817 11.2884C43.2866 11.4494 44.2189 11.9994 44.8695 12.697C46.2445 14.1726 46.4659 16.3994 45.4262 18.2238C44.9098 19.1293 43.5482 20.1421 42.6494 20.2896C42.5756 20.303 42.3744 20.3433 42.1933 20.3768C42.0189 20.4104 41.5494 20.4439 41.1537 20.4506C40.7647 20.4573 40.4293 20.4774 40.4159 20.4909C40.3958 20.511 41.9116 21.8122 42.7232 22.4695C43.5683 23.1537 45.4665 24.7768 45.4866 24.8238C45.5 24.8573 44.6616 24.8841 43.6287 24.8841H41.7439L40.8921 24.1396C39.0275 22.5299 35.5061 19.4579 34.9092 18.928C34.6744 18.7201 34.3458 18.4317 34.1781 18.2909L33.8829 18.0427H37.6726C41.2878 18.0427 41.4823 18.036 41.8982 17.9085C42.522 17.714 42.9311 17.372 43.2195 16.8018C43.4342 16.3793 43.4543 16.2921 43.4476 15.7622C43.4476 15.2457 43.4275 15.1518 43.2397 14.8232C42.9714 14.3537 42.6829 14.0787 42.2134 13.8372L41.8445 13.6494L37.2366 13.6293L32.622 13.6091V19.25V24.8909L31.3073 24.8774C30.3951 24.8707 29.986 24.8439 29.9659 24.7902Z" fill="#E0181F"></path>
    <path d="M46.1708 24.8439C46.1708 24.8305 46.3116 24.5957 46.486 24.3274C46.6537 24.0591 46.9019 23.6768 47.0293 23.4756C47.1568 23.2744 47.3714 22.939 47.4988 22.7378C47.633 22.5366 47.8074 22.2616 47.8878 22.1341C48.3507 21.3963 49.0214 20.3433 49.4909 19.6189C49.8263 19.0957 50.1013 18.6732 50.5842 17.9085C50.7116 17.7073 50.886 17.4323 50.9665 17.3049C51.0537 17.1774 51.2616 16.8421 51.436 16.5671C51.6104 16.2921 51.8183 15.9567 51.9055 15.8293C51.986 15.7018 52.2007 15.3665 52.375 15.0915C52.5494 14.8165 52.8244 14.3939 52.9787 14.1524C53.133 13.911 53.3946 13.5085 53.5622 13.247C54.7092 11.4494 54.6689 11.4963 55.2525 11.228C55.9232 10.9262 56.5537 10.9933 57.2378 11.4427C57.486 11.6037 57.5799 11.7445 58.8074 13.6695C58.9885 13.9512 59.2903 14.4274 59.4848 14.7226C59.6726 15.0177 59.9476 15.4469 60.0952 15.6817C60.4507 16.2518 61.2287 17.4659 62.0403 18.7268C62.2952 19.1226 62.6842 19.7329 62.9055 20.0817C63.2543 20.6384 63.697 21.336 64.475 22.5366C64.5824 22.7043 64.8305 23.0933 65.0318 23.4085C65.233 23.7238 65.5147 24.1598 65.6622 24.3811C65.8031 24.6024 65.9305 24.8037 65.9439 24.8305C65.9574 24.8573 65.2732 24.8841 64.4214 24.8774H62.8787L62.7177 24.6628C62.6305 24.5421 62.2952 24.0055 61.9665 23.4622C61.6446 22.9122 61.3427 22.4695 61.3025 22.4695C61.2622 22.4695 59.6726 22.4695 57.761 22.4695H54.3L54.072 22.114C53.9446 21.9262 53.7098 21.5573 53.5421 21.2957C53.3811 21.0409 53.133 20.6652 52.9988 20.4573C52.8647 20.2561 52.7641 20.0817 52.7775 20.0683C52.7842 20.0549 54.3403 20.0482 56.225 20.0549C58.9616 20.0549 59.6525 20.0415 59.6525 19.9744C59.6525 19.9274 59.525 19.686 59.3641 19.4378C59.2098 19.1963 59.0354 18.9079 58.975 18.8006C58.9147 18.7 58.6732 18.311 58.4452 17.9421C58.2104 17.5732 57.7543 16.8354 57.4189 16.2988C57.0903 15.7622 56.7214 15.172 56.6007 14.9909C56.4799 14.803 56.3257 14.5415 56.2519 14.4006C56.1848 14.2665 56.1043 14.1659 56.0708 14.1726C56.0104 14.1927 55.4202 15.078 54.7763 16.1311C54.5952 16.4262 54.072 17.2579 53.6159 17.9756C53.1598 18.6933 52.65 19.5116 52.4757 19.7866C52.3013 20.0616 51.9122 20.6854 51.6037 21.1616C51.3019 21.6445 50.9598 22.1878 50.8458 22.3689C50.5976 22.7915 50.4769 22.9726 49.7927 24.0256L49.2427 24.8841H47.7068C46.8616 24.8774 46.1708 24.864 46.1708 24.8439Z" fill="#E0181F"></path>
    <path d="M70.2768 24.7835C68.8415 24.5219 67.4799 23.8043 66.5207 22.7982C64.4683 20.6317 63.9921 17.6067 65.2866 14.9909C66.0713 13.4146 67.614 12.053 69.1701 11.5701C69.3781 11.503 69.5927 11.436 69.6463 11.4159C69.7 11.4024 69.814 11.3756 69.9012 11.3622C69.9817 11.3555 70.2098 11.3085 70.4043 11.2683C70.6457 11.2146 72.2622 11.2012 75.8037 11.2146L80.8476 11.2348L80.6866 11.4695C80.5994 11.597 80.2506 12.1335 79.9085 12.6567L79.2915 13.6091L75.0256 13.6293L70.7531 13.6561L70.2366 13.8372C68.3451 14.5079 67.2049 16.0841 67.2116 18.0427C67.2116 18.975 67.5 19.9207 67.9829 20.5445C68.6201 21.3829 69.1634 21.7921 70.1829 22.2146L70.5518 22.3689L75.7701 22.4024C79.1774 22.4226 80.9817 22.4561 80.9817 22.503C80.9817 22.5634 80.472 23.3884 79.7878 24.4348L79.4927 24.8841L75.1262 24.8774C71.9 24.8707 70.6256 24.8439 70.2768 24.7835Z" fill="#E0181F"></path>
    <path d="M83.1482 24.8104C82.8531 24.7232 82.3702 24.2335 82.2763 23.9116C82.2159 23.7104 82.1958 22.0671 82.1958 17.5262C82.1891 14.1659 82.2092 11.3689 82.2293 11.3085C82.2628 11.2146 82.4439 11.2012 83.5708 11.2012H84.872V16.8018V22.4024H90.9354C94.2757 22.4024 97.0189 22.4293 97.0391 22.4561C97.0726 22.5098 96.9183 22.7512 95.9592 24.2335L95.5299 24.8841L89.4464 24.8774C85.9787 24.8774 83.2689 24.8439 83.1482 24.8104Z" fill="#E0181F"></path>
    <path d="M102.19 24.7768C99.4135 24.2738 97.2068 22.1543 96.6434 19.4579C95.9324 16.0506 97.8574 12.6835 101.171 11.5232C101.372 11.4494 101.674 11.3756 101.842 11.3555C102.009 11.3354 102.19 11.2951 102.251 11.2616C102.371 11.2012 112.707 11.1744 112.707 11.2415C112.707 11.275 111.648 12.9451 111.339 13.4012L111.185 13.6226L107.1 13.6159C103.17 13.6159 102.995 13.6226 102.479 13.7567C101.459 14.0183 100.648 14.5348 100.071 15.286C99.722 15.7421 99.2592 16.6543 99.3263 16.7683C99.3531 16.8152 101.352 16.8354 105.671 16.8354C109.132 16.8354 111.97 16.8555 111.97 16.8823C111.97 16.9091 111.896 17.0366 111.809 17.164C111.312 17.9152 110.635 18.9683 110.568 19.1024L110.487 19.25H104.887H99.2861L99.3263 19.4043C99.722 20.7055 100.943 21.8726 102.365 22.2951C102.566 22.3488 102.747 22.3957 102.767 22.3957C102.794 22.389 105.088 22.389 107.865 22.3957C111.849 22.4024 112.909 22.4226 112.909 22.4896C112.909 22.5299 112.821 22.6976 112.721 22.8518C112.62 23.0061 112.285 23.5226 111.97 24.0055L111.399 24.8841L107.04 24.8774C103.713 24.8707 102.566 24.8506 102.19 24.7768Z" fill="#E0181F"></path>
    <path d="M114.82 14.0988C113.465 13.6494 113.492 11.664 114.86 11.2012C115.887 10.8524 116.879 11.5835 116.879 12.6768C116.879 13.3677 116.383 14.0049 115.726 14.1457C115.296 14.2396 115.229 14.2329 114.82 14.0988ZM115.806 13.7567C116.229 13.5957 116.531 13.1128 116.531 12.6098C116.531 11.9994 115.987 11.4695 115.357 11.4695C114.404 11.4695 113.814 12.6098 114.391 13.3341C114.767 13.8171 115.27 13.9646 115.806 13.7567Z" fill="#E0181F"></path>
    <path d="M114.787 12.603V11.7244L115.249 11.7512C115.585 11.7646 115.752 11.8116 115.853 11.8988C116.034 12.0665 116.034 12.4018 115.86 12.6299L115.719 12.8043L115.893 13.0726C116.108 13.4146 116.108 13.4951 115.88 13.4683C115.746 13.4549 115.652 13.3677 115.524 13.1463C115.431 12.9787 115.296 12.8378 115.236 12.8244C115.142 12.8043 115.122 12.8579 115.122 13.1396C115.122 13.4616 115.109 13.4817 114.954 13.4817H114.787V12.603ZM115.558 12.3884C115.672 12.3012 115.672 12.2878 115.531 12.147C115.323 11.939 115.162 11.986 115.142 12.261C115.129 12.4421 115.142 12.4756 115.276 12.4756C115.363 12.4756 115.484 12.4354 115.558 12.3884Z" fill="#E0181F"></path>
    <path d="M94.175 48.8226C93.3433 48.5878 92.8537 48.2726 92.4915 47.7226C92.1628 47.2262 91.9683 46.6293 91.9951 46.1665L92.0153 45.7774H93.0549H94.0945L94.1147 46.1128C94.1348 46.5287 94.2555 46.7902 94.5439 47.0652C94.8457 47.3604 95.0537 47.4207 95.7043 47.4207C96.4287 47.4207 96.8781 47.2799 97.1799 46.9445C97.5555 46.5287 97.5488 45.878 97.1665 45.5293C96.9787 45.3616 96.3146 45.0799 95.986 45.0329C95.4762 44.9591 94.3092 44.6037 93.8262 44.3756C93.1689 44.0671 92.6927 43.6646 92.4714 43.2421C92.3037 42.9268 92.2836 42.8262 92.2836 42.189C92.2836 41.525 92.297 41.4579 92.5116 41.0354C93.1622 39.7274 94.9061 38.9896 96.7909 39.2311C98.2195 39.4122 99.2659 40.3915 99.3464 41.6323L99.3799 42.1219H98.4006H97.4214L97.3476 41.7463C97.2604 41.3238 96.972 40.9482 96.6299 40.8073C96.3616 40.6933 95.5701 40.6866 95.2616 40.7939C94.7384 40.9683 94.4634 41.3238 94.4634 41.8402C94.4634 42.6317 94.6915 42.7927 96.4086 43.2219C98.4878 43.7518 99.2525 44.2348 99.5476 45.2274C99.6817 45.6969 99.6884 45.9988 99.5677 46.5689C99.3598 47.5549 98.6756 48.2591 97.5153 48.7018C96.7439 48.9902 95.0067 49.0506 94.175 48.8226Z" fill="#1F181B"></path>
    <path d="M7.20117 44.0604V39.3585L9.46825 39.3854C11.9701 39.4189 11.9969 39.4189 12.9628 39.8951C13.8951 40.3579 14.4786 41.0421 14.8542 42.122C15.0689 42.7256 15.0756 42.8128 15.1024 43.9061C15.1292 45.1268 15.0756 45.4622 14.7201 46.4213C14.4384 47.1524 13.7207 47.9104 12.9359 48.2927C12.1109 48.7018 11.6884 48.7555 9.3341 48.7622H7.20117V44.0604ZM11.1518 47.0787C12.0439 46.8037 12.5737 46.2939 12.775 45.5293C12.9963 44.664 13.003 43.4902 12.7951 42.7256C12.5737 41.9274 12.3189 41.6055 11.6615 41.2768C11.1786 41.0354 11.1384 41.0287 10.2195 40.9951L9.28044 40.9616V44.0604V47.1524H10.0987C10.5481 47.1524 11.0243 47.1189 11.1518 47.0787Z" fill="#1F181B"></path>
    <path d="M21.3872 48.6146C21.4073 48.5274 21.4542 48.4 21.4878 48.3262C21.5213 48.2524 21.642 47.9238 21.7561 47.5884C21.8701 47.2598 21.9841 46.9244 22.0176 46.8506C22.0512 46.7768 22.1652 46.475 22.2658 46.1799C22.3664 45.8848 22.4872 45.5561 22.5341 45.4421C22.5811 45.3348 22.742 44.8921 22.8896 44.4695C23.0372 44.0469 23.3122 43.2756 23.5 42.7591C23.9829 41.4311 24.4256 40.2104 24.5866 39.761L24.7207 39.372H25.9414H27.1689L27.2494 39.6537C27.2963 39.8146 27.3768 40.036 27.4237 40.1433C27.4707 40.2573 27.6116 40.6598 27.7457 41.0488C27.8731 41.4378 28.2286 42.464 28.5305 43.3293C28.8323 44.1945 29.1609 45.1604 29.2683 45.4756C29.3756 45.7909 29.617 46.4817 29.8048 47.0183C29.9994 47.5549 30.1872 48.1183 30.2341 48.2726C30.2744 48.4268 30.3347 48.5744 30.3616 48.6012C30.4957 48.7354 30.3213 48.7622 29.3622 48.7488L28.3225 48.7287L28.1548 48.2591C28.0609 48.0043 27.9469 47.6555 27.9 47.4878C27.8463 47.3201 27.7725 47.1055 27.7323 47.0049L27.6585 46.8171H25.8274H23.9896L23.9158 47.0384C23.8756 47.1524 23.728 47.5884 23.5872 47.9909L23.3256 48.7287L22.3329 48.7488L21.3402 48.7689L21.3872 48.6146ZM27.1219 45.1604C27.1219 45.1402 26.9274 44.5098 26.6859 43.7719C26.4512 43.0274 26.1896 42.2024 26.1024 41.9409C26.0152 41.6726 25.9213 41.4445 25.8878 41.4378C25.8542 41.4244 25.8006 41.5116 25.767 41.6189C25.7335 41.7329 25.6866 41.8671 25.6664 41.9207C25.6396 41.9744 25.5859 42.1421 25.539 42.2896C25.492 42.4372 25.2573 43.128 25.0158 43.8256C24.7744 44.5232 24.5731 45.1201 24.5731 45.1469C24.5731 45.1805 25.15 45.2073 25.8475 45.2073C26.5518 45.2073 27.1219 45.1872 27.1219 45.1604Z" fill="#1F181B"></path>
    <path d="M37.9878 44.8719V40.9817H36.6128H35.2378V40.1768V39.372L39.0475 39.3854L42.8506 39.4055V40.1768V40.9482L41.4756 40.9817L40.1006 41.0152L40.0805 44.8921L40.0671 48.7622H39.0274H37.9878V44.8719Z" fill="#1F181B"></path>
    <path d="M47.9481 48.6482C47.9749 48.5811 48.0823 48.286 48.1829 47.9909C48.2902 47.6957 48.4981 47.1055 48.6524 46.6829C48.8067 46.2604 49.0481 45.5963 49.189 45.2073C49.3298 44.8183 49.4908 44.3823 49.5512 44.2348C49.6182 44.0872 49.6652 43.9598 49.6652 43.953C49.6585 43.9128 50.0878 42.6854 50.1951 42.4238C50.2286 42.35 50.3493 42.0213 50.4634 41.686C50.5841 41.3573 50.6981 41.0354 50.7317 40.9817C50.7585 40.9213 50.8054 40.7805 50.8256 40.6665C50.8524 40.5457 50.9329 40.3378 50.9999 40.1969C51.067 40.0561 51.1542 39.8146 51.1945 39.6604L51.2749 39.372H52.4957H53.7231L53.9378 39.9957C54.2396 40.8341 55.1317 43.403 55.6951 45.0396C55.9499 45.7774 56.3323 46.864 56.5402 47.4543C56.7414 48.0445 56.9292 48.5811 56.9493 48.6482C56.9829 48.7555 56.9158 48.7622 55.9231 48.7488L54.8634 48.7287L54.8164 48.5274C54.7896 48.4201 54.6487 47.9841 54.5079 47.575L54.253 46.8171H52.4085H50.564L50.4902 47.0384C50.45 47.1524 50.3024 47.5951 50.1615 48.011L49.8999 48.7622H48.9006C47.9749 48.7622 47.9012 48.7555 47.9481 48.6482ZM53.6829 45.1604C53.6896 45.0933 53.3878 44.1274 53.1798 43.5305C53.0926 43.289 52.9182 42.739 52.7841 42.303C52.6499 41.8671 52.5225 41.4646 52.489 41.4177C52.4554 41.3573 52.3347 41.639 52.1402 42.2091C51.9792 42.6988 51.8182 43.1213 51.7914 43.1616C51.7646 43.1951 51.7378 43.2689 51.7378 43.3293C51.7378 43.3896 51.6237 43.7518 51.4762 44.1409C51.3353 44.5232 51.2012 44.9189 51.1743 45.0262L51.1341 45.2073H52.4085C53.106 45.2073 53.6829 45.1872 53.6829 45.1604Z" fill="#1F181B"></path>
    <path d="M63.4555 48.722C63.3884 48.6549 63.4018 39.5598 63.4689 39.4524C63.5091 39.3787 63.9853 39.3652 65.8969 39.3854C68.2646 39.4122 68.2713 39.4122 68.714 39.5866C69.5256 39.9018 69.9146 40.2305 70.1896 40.814C70.3238 41.089 70.3506 41.2567 70.3506 41.7866C70.3506 42.35 70.3305 42.464 70.1695 42.7658C69.9683 43.1482 69.3378 43.6982 69.0293 43.7719C68.7744 43.8256 68.7945 43.9061 69.0695 43.953C69.5994 44.0402 70.5049 44.825 70.6591 45.3348C70.8738 46.0524 70.8536 46.7634 70.5921 47.2732C70.4043 47.6421 69.8744 48.0982 69.378 48.3195C68.7475 48.6012 68.7073 48.6146 68.3317 48.6884C67.9561 48.7622 63.5293 48.789 63.4555 48.722ZM67.9762 47.0585C68.5262 46.8238 68.7878 46.1329 68.5665 45.4689C68.3652 44.872 67.9695 44.7378 66.4201 44.7378H65.5213V45.9451V47.1524H66.6347C67.4463 47.1524 67.8152 47.1256 67.9762 47.0585ZM67.5604 43.0543C67.8219 43.0006 67.9494 42.9268 68.1036 42.739C68.2847 42.5244 68.3049 42.4439 68.3049 42.0549C68.3049 41.6659 68.2847 41.5854 68.1036 41.3707C67.8421 41.0555 67.5067 40.9817 66.3933 40.9817H65.5549V42.0549V43.128H66.3933C66.8494 43.128 67.3793 43.0945 67.5604 43.0543Z" fill="#1F181B"></path>
    <path d="M76.8901 48.6951C76.8901 48.6616 76.9639 48.4402 77.0578 48.2122C77.145 47.9774 77.42 47.2329 77.6615 46.5488C77.9096 45.8646 78.2115 45.0195 78.3389 44.6707C78.4664 44.3219 78.6609 43.7921 78.7682 43.4969C78.8755 43.2018 79.0834 42.6317 79.231 42.2226C79.3786 41.8201 79.62 41.136 79.7743 40.7134C79.9286 40.2909 80.1029 39.8146 80.1566 39.6604L80.2639 39.372H81.4578C82.531 39.372 82.6584 39.3854 82.7121 39.486C82.7456 39.553 82.9066 39.9957 83.0609 40.4787C83.2218 40.9616 83.4097 41.4848 83.4834 41.6524C83.5505 41.8201 83.6645 42.1354 83.7316 42.3567C83.9194 42.9671 84.5365 44.7445 84.6103 44.8921C84.6505 44.9591 84.7511 45.2476 84.8383 45.5293C85.0664 46.2939 85.6633 48.0177 85.8176 48.353C85.8981 48.5274 85.9316 48.6683 85.8914 48.7085C85.8578 48.7421 85.3883 48.7555 84.8517 48.7488L83.8657 48.7287L83.6243 48.0579C83.4901 47.689 83.356 47.2598 83.3157 47.1055L83.242 46.8171H81.384H79.5261L79.4523 47.0384C79.4121 47.1524 79.2645 47.5884 79.117 47.9909L78.8487 48.7287L77.8694 48.7488C77.2389 48.7622 76.8901 48.7421 76.8901 48.6951ZM82.6182 45.1537C82.645 45.1067 81.7462 42.2159 81.5786 41.8201C81.5517 41.7463 81.5182 41.6323 81.5048 41.5652C81.4645 41.3305 81.3639 41.4244 81.2298 41.8201C81.156 42.0415 81.0755 42.2829 81.042 42.3567C81.0084 42.4305 80.8475 42.9134 80.6731 43.4299C80.4987 43.9463 80.2975 44.5299 80.2304 44.7311C80.1633 44.9323 80.1096 45.1201 80.1096 45.1537C80.1096 45.2274 82.5712 45.2274 82.6182 45.1537Z" fill="#1F181B"></path>
    <path d="M106.402 44.0671V39.372H109.555H112.707V40.1768V40.9817H110.581H108.448L108.461 42.0348L108.468 43.0945L110.474 43.128L112.472 43.1616V43.9329V44.7043L110.46 44.7244L108.448 44.7378V45.9451V47.1524L110.661 47.1659L112.875 47.186V47.9573V48.7287L109.642 48.7488L106.402 48.7622V44.0671Z" fill="#1F181B"></path>
    <path d="M7.26831 32.1616V31.6585H60.0214H112.774V32.1616V32.6646H60.0214H7.26831V32.1616Z" fill="#757E81"></path>
  </g>
  <defs>
    <clipPath id="clip0_2753_2302">
      <rect width="110" height="37.9634" fill="white" transform="translate(7 11)"></rect>
    </clipPath>
  </defs>
</svg>
