<?xml version="1.0" encoding="UTF-8"?>
<svg xmlns="http://www.w3.org/2000/svg" width="125" height="60" viewBox="0 0 125 60" fill="none">
  <g clip-path="url(#clip0_2753_1850)">
    <path d="M15.56 44.927H10.34V39.677H15.844C17.858 39.677 18.866 40.577 18.866 42.343C18.866 44.066 17.764 44.928 15.561 44.928M19.313 39.616C18.598 38.976 17.597 38.656 16.31 38.656L8.83398 38.696V51.256H10.34L10.326 45.909H15.889C17.284 45.909 18.382 45.589 19.183 44.949C19.984 44.309 20.385 43.419 20.385 42.283C20.385 41.147 20.027 40.257 19.312 39.617L19.313 39.616ZM29.06 48.62C28.9163 49.031 28.6703 49.3986 28.345 49.688C27.67 50.348 26.641 50.675 25.245 50.675C23.995 50.675 23.045 50.355 22.365 49.715C21.685 49.075 21.36 48.218 21.36 47.145C21.36 46.585 21.448 46.09 21.623 45.657C21.789 45.2377 22.0498 44.8626 22.385 44.561C23.077 43.931 24.031 43.614 25.245 43.614C27.945 43.614 29.278 44.791 29.278 47.144C29.278 47.704 29.201 48.194 29.048 48.618M29.321 43.985C28.403 43.148 27.044 42.729 25.244 42.729C23.544 42.729 22.229 43.157 21.302 44.012C20.465 44.786 20.047 45.83 20.047 47.144C20.047 48.449 20.479 49.502 21.343 50.304C21.82 50.736 22.376 51.049 23.01 51.242C23.644 51.435 24.39 51.542 25.244 51.542C27.044 51.542 28.398 51.128 29.344 50.3C30.181 49.544 30.599 48.496 30.599 47.155C30.599 45.805 30.176 44.752 29.329 43.995L29.321 43.985ZM40.721 48.982C40.721 50.682 39.206 51.518 36.177 51.518C35.251 51.518 34.471 51.458 33.837 51.342C33.203 51.226 32.689 51.029 32.293 50.758C31.9904 50.5527 31.7409 50.2785 31.565 49.958C31.385 49.635 31.268 49.208 31.215 48.703L32.615 48.69C32.615 49.355 32.862 49.845 33.355 50.16C33.885 50.538 34.822 50.727 36.168 50.727C38.285 50.727 39.344 50.197 39.344 49.135C39.344 48.515 38.989 48.088 38.279 47.855C38.135 47.81 37.279 47.691 35.709 47.498C34.139 47.305 33.163 47.131 32.776 46.978C31.94 46.645 31.522 46.048 31.522 45.184C31.5066 44.7947 31.6041 44.4092 31.8029 44.074C32.0016 43.7388 32.293 43.4683 32.642 43.295C33.012 43.125 33.472 42.992 34.026 42.897C34.58 42.802 35.221 42.755 35.95 42.755C38.866 42.755 40.324 43.67 40.324 45.5H38.984C38.984 44.214 37.959 43.57 35.909 43.57C34.866 43.57 34.089 43.7 33.576 43.97C33.063 44.24 32.806 44.63 32.806 45.17C32.806 45.674 33.152 46.038 33.844 46.263C34.249 46.38 35.179 46.515 36.636 46.668C37.94 46.785 38.834 46.951 39.32 47.168C40.246 47.528 40.72 48.138 40.72 49.002L40.721 48.982ZM46.257 51.282L45.684 51.362L45.326 51.389C44.408 51.389 43.746 51.256 43.341 50.989C42.936 50.722 42.741 50.257 42.741 49.589V43.859H41.071V43.016H42.731L42.744 40.308H44.029V43.016H46.267V43.873L44.029 43.859V49.436C44.029 49.851 44.129 50.138 44.359 50.296C44.589 50.454 44.973 50.533 45.539 50.533C45.619 50.543 45.709 50.539 45.809 50.523C45.909 50.507 46.056 50.473 46.254 50.421L46.268 51.281L46.257 51.282ZM55.144 49.37C54.7872 49.661 54.3806 49.885 53.944 50.031C53.494 50.184 52.978 50.261 52.394 50.261C49.706 50.261 48.364 49.161 48.364 46.931C48.364 45.898 48.708 45.089 49.394 44.505C50.08 43.921 51.05 43.629 52.299 43.629C53.557 43.629 54.512 43.923 55.164 44.512C55.816 45.101 56.142 45.889 56.142 46.878C56.142 47.956 55.809 48.778 55.144 49.372M57.427 43.012H56.142L56.128 44.429C55.562 43.854 55.158 43.489 54.914 43.337C54.194 42.942 53.264 42.744 52.122 42.744C50.449 42.744 49.172 43.126 48.292 43.89C47.456 44.59 47.038 45.607 47.038 46.937C47.038 47.593 47.144 48.18 47.355 48.697C47.566 49.214 47.875 49.652 48.28 50.011C49.163 50.748 50.41 51.117 52.022 51.117C53.958 51.117 55.322 50.587 56.142 49.517V50.984C56.142 51.919 55.847 52.644 55.258 53.156C54.669 53.668 53.7 53.926 52.351 53.926C51.083 53.926 50.179 53.751 49.651 53.402C49.246 53.134 48.967 52.668 48.815 52.005H47.5C47.644 52.93 48.035 53.6 48.674 54.013C49.412 54.489 50.658 54.727 52.412 54.727C55.768 54.727 57.446 53.48 57.446 50.985V43.002L57.427 43.012ZM64.377 43.847C64.0208 43.7867 63.6603 43.7553 63.299 43.753C61.187 43.753 60.131 44.911 60.131 47.228V51.256H58.861L58.847 43.013L60.132 43.026V44.496H60.199C60.415 43.916 60.756 43.476 61.224 43.178C61.736 42.878 62.5 42.743 63.516 42.743H64.379V43.846L64.377 43.847ZM65.573 46.613C65.735 45.676 66.099 44.951 66.665 44.437C67.035 44.14 67.452 43.917 67.919 43.767C68.386 43.617 68.913 43.544 69.497 43.544C70.639 43.544 71.571 43.857 72.295 44.484C73.019 45.111 73.39 45.82 73.39 46.614H65.583M73.516 44.071C73.0461 43.6082 72.4721 43.2649 71.842 43.07C71.176 42.853 70.398 42.745 69.507 42.745C67.842 42.745 66.551 43.132 65.633 43.905C64.715 44.678 64.256 45.732 64.256 47.065C64.256 48.398 64.696 49.465 65.578 50.237C66.531 51.101 67.876 51.533 69.613 51.533C70.305 51.533 70.946 51.453 71.535 51.298C72.124 51.143 72.639 50.918 73.08 50.633C73.854 50.077 74.343 49.393 74.55 48.577H73.15C72.673 49.977 71.487 50.691 69.59 50.691C68.25 50.691 67.22 50.347 66.49 49.657C65.87 49.057 65.56 48.301 65.56 47.361H74.72C74.72 45.963 74.32 44.866 73.492 44.061L73.516 44.071Z" fill="#231F20"></path>
    <path d="M88.32 47.888C88.32 50.335 86.346 51.558 82.4 51.558C80.035 51.558 78.308 51.138 77.22 50.293C76.32 49.6 75.885 48.543 75.885 47.123H77.485C77.485 49.408 79.125 50.55 82.41 50.55C83.984 50.55 85.123 50.316 85.824 49.85C86.418 49.437 86.724 48.79 86.724 47.91C86.724 47.038 86.319 46.427 85.509 46.076C85.049 45.876 83.929 45.649 82.149 45.361C79.909 45.019 78.456 44.678 77.791 44.337C76.829 43.834 76.347 42.98 76.347 41.775C76.347 40.652 76.747 39.815 77.575 39.267C78.455 38.665 79.968 38.364 82.109 38.364C85.979 38.364 87.912 39.649 87.912 42.219H86.3C86.3 40.294 84.863 39.332 82 39.332C80.56 39.332 79.506 39.526 78.84 39.912C78.21 40.326 77.895 40.932 77.895 41.734C77.895 42.571 78.3 43.16 79.11 43.502C79.54 43.7 80.81 43.974 82.916 44.326C84.896 44.623 86.231 44.969 86.916 45.366C87.861 45.852 88.333 46.693 88.333 47.89L88.32 47.888ZM101.228 49.138C100.629 49.6163 99.9471 49.9794 99.216 50.209C98.468 50.447 97.631 50.566 96.704 50.566C94.804 50.566 93.284 50.066 92.118 49.036C90.952 48.006 90.368 46.659 90.368 44.962C90.368 43.192 90.946 41.815 92.103 40.827C93.26 39.839 94.803 39.345 96.703 39.345C98.639 39.345 100.161 39.861 101.268 40.895C101.853 41.398 102.285 41.995 102.565 42.66C102.845 43.325 102.985 44.1 102.985 44.963C102.985 46.723 102.399 48.115 101.229 49.139M102.074 49.972C102.902 49.388 103.514 48.672 103.911 47.849C104.308 47.026 104.506 46.049 104.506 44.971C104.506 43.021 103.858 41.457 102.562 40.271C101.869 39.624 101.032 39.143 100.062 38.829C99.092 38.515 97.962 38.357 96.702 38.357C94.255 38.357 92.334 38.95 90.939 40.137C89.544 41.324 88.847 42.932 88.847 44.963C88.847 46.94 89.55 48.535 90.947 49.748C92.344 50.961 94.277 51.568 96.715 51.568C97.668 51.568 98.5 51.503 99.211 51.375C99.922 51.247 100.524 51.048 101.019 50.781L103.367 52.408L104.347 51.508L102.074 49.966V49.972ZM116.404 51.255H105.546V38.68L107.039 38.653V50.203H116.419L116.405 51.253L116.404 51.255Z" fill="#367FAF"></path>
    <path d="M69.4149 28.556C69.6119 26.916 69.5529 26.676 70.7749 26.942L71.0749 26.969C72.0149 27.012 73.2419 26.819 73.9649 26.483C75.5179 25.763 76.4389 24.559 74.9079 24.875C71.4139 25.595 71.1739 24.413 71.1739 24.413C74.8639 18.939 76.4039 11.99 75.0739 10.29C71.4439 5.65 65.1579 7.845 65.0539 7.902L65.0209 7.908C64.3309 7.765 63.5579 7.678 62.6909 7.665C61.1109 7.639 59.9109 8.079 58.9909 8.77C58.9909 8.77 47.7789 4.15 48.2909 14.58C48.4009 16.798 51.4709 31.366 55.1309 26.966C56.4689 25.356 57.7609 23.996 57.7609 23.996C58.4029 24.423 59.1609 24.64 59.9779 24.562L60.0399 24.509C60.0212 24.7179 60.0296 24.9283 60.0649 25.135C59.1219 26.188 59.3989 26.375 57.5149 26.762C55.6079 27.155 56.7279 27.855 57.4599 28.038C58.3469 28.26 60.3999 28.574 61.7849 26.633L61.7299 26.855C62.0999 27.151 62.0749 28.982 62.1269 30.29C62.1789 31.598 62.2669 32.82 62.5339 33.54C62.8009 34.26 63.1139 36.114 65.5939 35.583C67.6639 35.139 69.2479 34.501 69.3919 28.56" fill="#231F20"></path>
    <path d="M69.4149 28.556C69.6119 26.916 69.5529 26.676 70.7749 26.942L71.0749 26.969C72.0149 27.012 73.2419 26.819 73.9649 26.483C75.5179 25.763 76.4389 24.559 74.9079 24.875C71.4139 25.595 71.1739 24.413 71.1739 24.413C74.8639 18.939 76.4039 11.99 75.0739 10.29C71.4439 5.65 65.1579 7.845 65.0539 7.902L65.0209 7.908C64.3309 7.765 63.5579 7.678 62.6909 7.665C61.1109 7.639 59.9109 8.079 58.9909 8.77C58.9909 8.77 47.7789 4.15 48.2909 14.58C48.4009 16.798 51.4709 31.366 55.1309 26.966C56.4689 25.356 57.7609 23.996 57.7609 23.996C58.4029 24.423 59.1609 24.64 59.9779 24.562L60.0399 24.509C60.0212 24.7179 60.0296 24.9283 60.0649 25.135C59.1219 26.188 59.3989 26.375 57.5149 26.762C55.6079 27.155 56.7279 27.855 57.4599 28.038C58.3469 28.26 60.3999 28.574 61.7849 26.633L61.7299 26.855C62.0999 27.151 62.0749 28.982 62.1269 30.29C62.1789 31.598 62.2669 32.82 62.5339 33.54C62.8009 34.26 63.1139 36.114 65.5939 35.583C67.6639 35.139 69.2479 34.501 69.3919 28.56" stroke="#231F20" stroke-width="2.598"></path>
    <path d="M74.916 24.875C71.422 25.595 71.182 24.413 71.182 24.413C74.872 18.939 76.412 11.99 75.082 10.289C71.452 5.649 65.166 7.844 65.062 7.901L65.028 7.907C64.338 7.764 63.565 7.677 62.698 7.664C61.118 7.638 59.918 8.078 58.998 8.769C58.998 8.769 47.786 4.149 48.298 14.579C48.408 16.799 51.478 31.365 55.138 26.965C56.476 25.355 57.768 23.995 57.768 23.995C58.41 24.422 59.178 24.639 59.984 24.561L60.047 24.508C60.027 24.708 60.037 24.903 60.072 25.134C59.129 26.187 59.406 26.374 57.522 26.761C55.615 27.154 56.735 27.854 57.467 28.037C58.354 28.259 60.407 28.573 61.792 26.632L61.737 26.854C62.107 27.15 62.367 28.779 62.322 30.254C62.277 31.729 62.25 32.744 62.542 33.536C62.834 34.328 63.122 36.11 65.602 35.579C67.672 35.135 68.746 33.985 68.895 32.067C69.001 30.703 69.241 30.905 69.255 29.687L69.447 29.11C69.669 27.26 69.482 26.665 70.757 26.943L71.057 26.97C71.997 27.013 73.225 26.82 73.947 26.484C75.5 25.764 76.421 24.56 74.89 24.876L74.916 24.875Z" fill="#417BA2"></path>
    <path d="M61.96 25.935C61.864 29.375 61.984 32.838 62.32 33.68C62.656 34.522 63.377 36.16 65.856 35.628C67.926 35.184 68.68 34.325 69.006 32.428L69.771 26.365M59 8.692C59 8.692 47.78 4.106 48.3 14.534C48.4 16.754 51.48 31.321 55.14 26.921C56.478 25.321 57.687 24.051 57.687 24.051M65.05 7.855C64.65 7.977 71.29 5.432 75.058 10.255C76.388 11.955 74.858 18.905 71.158 24.379" stroke="white" stroke-width="0.866" stroke-linecap="round" stroke-linejoin="round"></path>
    <path d="M71.157 24.37C71.157 24.37 71.397 25.553 74.892 24.832C76.422 24.516 75.492 25.719 73.949 26.44C72.675 27.03 69.819 27.183 69.771 26.366C69.651 24.256 71.275 24.898 71.157 24.37ZM71.157 24.37C71.051 23.894 70.325 23.427 69.845 22.263C69.425 21.246 64.095 13.451 71.325 14.609C71.59 14.554 69.439 7.732 62.673 7.621C55.907 7.51 56.131 15.941 56.131 15.941" stroke="white" stroke-width="0.866" stroke-linecap="round" stroke-linejoin="bevel"></path>
    <path d="M60.0659 25.09C59.1229 26.143 59.3999 26.33 57.5159 26.717C55.6089 27.11 56.7289 27.81 57.4609 27.993C58.3479 28.215 60.4009 28.529 61.7859 26.588C62.2079 25.998 61.7839 25.054 61.2039 24.813C60.9239 24.697 60.5489 24.553 60.0679 25.09H60.0659Z" stroke="white" stroke-width="0.866" stroke-linejoin="round"></path>
    <path d="M60.004 25.072C59.909 24.452 60.208 23.716 60.527 22.852C61.007 21.558 62.127 20.264 61.23 16.16C60.57 13.102 56.132 15.523 56.13 15.938C56.128 16.353 56.33 18.04 56.056 20.005C55.696 22.569 57.686 24.738 59.979 24.515" stroke="white" stroke-width="0.866" stroke-linecap="round" stroke-linejoin="round"></path>
    <path d="M58.948 15.877C58.928 16.019 59.208 16.397 59.571 16.447C59.934 16.497 60.246 16.202 60.265 16.061C60.284 15.92 60.005 15.763 59.641 15.711C59.277 15.659 58.966 15.734 58.947 15.876L58.948 15.877Z" fill="white" stroke="white" stroke-width="0.289"></path>
    <path d="M70.0221 15.588C70.0421 15.73 69.7621 16.108 69.3991 16.158C69.0361 16.208 68.7241 15.913 68.7041 15.772C68.6841 15.631 68.9641 15.474 69.3281 15.424C69.6921 15.374 70.0031 15.447 70.0231 15.589L70.0221 15.588Z" fill="white" stroke="white" stroke-width="0.144"></path>
    <path d="M71.3229 14.608C71.3829 15.718 71.0829 16.476 71.0459 17.658C70.9899 19.378 71.8659 21.345 70.5459 23.315" stroke="white" stroke-width="0.866" stroke-linecap="round" stroke-linejoin="round"></path>
  </g>
  <defs>
    <clipPath id="clip0_2753_1850">
      <rect width="109" height="49" fill="white" transform="translate(8 6)"></rect>
    </clipPath>
  </defs>
</svg>
