<?xml version="1.0" encoding="UTF-8"?>
<svg xmlns="http://www.w3.org/2000/svg" width="125" height="60" viewBox="0 0 125 60" fill="none">
  <g clip-path="url(#clip0_2753_1846)">
    <path fill-rule="evenodd" clip-rule="evenodd" d="M22 50H62.8653L102.859 10H22V50Z" fill="url(#paint0_linear_2753_1846)"></path>
    <path fill-rule="evenodd" clip-rule="evenodd" d="M69.9856 17.5214L62.0262 17.5165V36.4416L55.0733 17.5165H48.1792L42.2425 33.3431C41.6103 29.3525 37.4823 27.9745 34.2347 26.9414C32.0901 26.2527 29.8148 25.2398 29.8358 24.1204C29.8537 23.2014 31.0564 22.3478 33.4392 22.4763C35.0411 22.5612 36.4535 22.6904 39.2647 24.0461L42.0298 19.231C39.4635 17.9255 35.9182 17.1002 33.0131 17.0971H32.9962C29.6086 17.0971 26.785 18.1947 25.035 20.0037C23.8152 21.2671 23.1582 22.8716 23.1307 24.6467C23.0862 27.0886 23.9819 28.8216 25.8637 30.2031C27.4527 31.3686 29.4848 32.1235 31.276 32.6788C33.4858 33.3635 35.2892 33.9584 35.2682 35.2282C35.2519 35.69 35.0766 36.1208 34.7445 36.4708C34.1941 37.0388 33.3476 37.2523 32.179 37.2743C29.9247 37.322 28.2523 36.9686 25.5888 35.3949L23.1307 40.2778C25.7868 41.7886 28.9319 42.6745 32.1409 42.6745L32.5539 42.6698C35.3474 42.6196 37.6019 41.8235 39.4027 40.3733C39.506 40.2918 39.599 40.2076 39.6945 40.1229L38.8958 42.2551H46.1262L47.3398 38.5645C48.6098 38.9986 50.0549 39.2384 51.59 39.2384C53.0837 39.2384 54.4909 39.009 55.7382 38.6008L56.9078 42.2551H68.6994V34.6141H71.2705C77.4874 34.6141 81.1639 31.448 81.1639 26.1431C81.1639 20.2335 77.5915 17.5218 69.9853 17.5218L69.9856 17.5214ZM51.5903 33.7149C50.6615 33.7149 49.7909 33.5525 49.0401 33.2688L51.5629 25.3094H51.6107L54.0898 33.2914C53.3445 33.5559 52.4941 33.7149 51.5905 33.7149H51.5903ZM70.4529 29.1416H68.6998V22.7276H70.4529C72.7915 22.7276 74.6562 23.5043 74.6562 25.8922C74.6562 28.3631 72.7915 29.1416 70.4529 29.1416Z" fill="white"></path>
  </g>
  <defs>
    <linearGradient id="paint0_linear_2753_1846" x1="62.4294" y1="10" x2="62.4294" y2="50" gradientUnits="userSpaceOnUse">
      <stop stop-color="#00B1EB"></stop>
      <stop offset="0.212" stop-color="#009AD9"></stop>
      <stop offset="0.519" stop-color="#007FC4"></stop>
      <stop offset="0.792" stop-color="#006EB8"></stop>
      <stop offset="1" stop-color="#0069B4"></stop>
    </linearGradient>
    <clipPath id="clip0_2753_1846">
      <rect width="80.8588" height="40" fill="white" transform="translate(22 10)"></rect>
    </clipPath>
  </defs>
</svg>
