<?xml version="1.0" encoding="UTF-8"?>
<svg xmlns="http://www.w3.org/2000/svg" width="125" height="60" viewBox="0 0 125 60" fill="none">
  <g clip-path="url(#clip0_2753_1845)">
    <path d="M50.992 29.8836C49.6598 29.8836 48.5766 30.278 47.7462 31.0663C46.9157 31.8553 46.4944 32.8895 46.4944 34.1568C46.4944 34.8135 46.5991 35.4123 46.8052 35.961C47.0114 36.5108 47.3321 37.0201 47.7634 37.4803C48.1947 37.941 49.058 38.5667 50.3446 39.3622C51.9233 40.326 52.9565 41.1082 53.4523 41.7189C53.9485 42.3291 54.1947 42.9686 54.1947 43.6354C54.1947 44.528 53.9009 45.2406 53.2969 45.7762C52.692 46.3121 51.8829 46.5791 50.8798 46.5791C49.8218 46.5791 48.9002 46.2061 48.1087 45.4655C47.3173 44.7238 46.9178 43.7427 46.9088 42.5131H46.4167V46.9762H46.9088C47.059 46.5536 47.2669 46.3374 47.539 46.3374C47.6699 46.3374 47.9765 46.4276 48.454 46.5963C49.616 47.0098 50.5701 47.2093 51.3201 47.2093C52.6125 47.2093 53.7158 46.7566 54.635 45.8367C55.5528 44.9172 56.0162 43.808 56.0162 42.5131C56.0162 41.509 55.7103 40.6157 55.1098 39.837C54.5093 39.0574 53.3415 38.1506 51.5963 37.1091C50.0946 36.2069 49.1198 35.472 48.6699 34.8992C48.2192 34.3271 47.9879 33.6944 47.9879 33C47.9879 32.249 48.2638 31.6457 48.808 31.1958C49.3522 30.7455 50.0652 30.5224 50.9575 30.5224C51.9616 30.5224 52.7987 30.8204 53.4609 31.4202C54.1225 32.0211 54.5051 32.8537 54.6177 33.9237H55.1098V30.0563H54.6522C54.5963 30.2535 54.5445 30.3795 54.4969 30.4361C54.4506 30.4924 54.3615 30.5224 54.2292 30.5224C54.0701 30.5224 53.7862 30.4555 53.3833 30.3239C52.52 30.0332 51.7241 29.8836 50.992 29.8836ZM67.0746 29.8836C65.4513 29.8836 63.9775 30.2662 62.646 31.0318C61.3125 31.7959 60.2569 32.857 59.4779 34.2086C58.6992 35.56 58.3125 36.9953 58.3125 38.5249C58.3125 40.5798 58.9851 42.4106 60.3411 44.0152C61.6978 45.6188 63.3235 46.6181 65.2099 47.0021C65.6412 47.2268 66.2583 47.8069 67.0659 48.7459C67.9761 49.8055 68.7462 50.5698 69.3795 51.0249C70.0121 51.4802 70.6951 51.8139 71.4167 52.0349C72.1391 52.2549 72.9202 52.3629 73.7648 52.3629C74.7876 52.3629 75.7033 52.1852 76.51 51.8191L76.3287 51.3702C75.8605 51.5391 75.3612 51.6205 74.8353 51.6205C74.1215 51.6205 73.4002 51.3852 72.6771 50.9126C71.9551 50.4389 71.0521 49.5352 69.9751 48.202C69.4689 47.5632 69.1194 47.1602 68.9219 47.0021C70.9858 46.599 72.683 45.5988 74.0065 43.9979C75.3297 42.3978 75.992 40.5716 75.992 38.5249C75.992 36.0946 75.1274 34.0522 73.4109 32.3871C71.693 30.7218 69.5804 29.8836 67.0746 29.8836ZM77.1143 29.8836L77.1401 30.4102C78.2209 30.4102 78.8263 30.7286 78.9616 31.3684C79.012 31.5974 79.0352 32.0201 79.0393 32.6288L79.0307 44.2742C79.0217 45.1439 78.8978 45.6992 78.6595 45.9403C78.4209 46.1796 78.0176 46.3294 77.4337 46.3892L77.4078 46.9157H88.1813L88.4575 44.2742H87.9655C87.8249 44.9938 87.5027 45.5093 86.99 45.8021C86.4758 46.0971 85.5666 46.2424 84.2534 46.2424H83.2348C82.0532 46.2424 81.3695 45.8152 81.1889 44.9561C81.1516 44.7862 81.1388 44.604 81.1371 44.4037L81.1802 32.6288C81.18 31.7604 81.2897 31.1785 81.5169 30.8936C81.7465 30.6098 82.1605 30.451 82.76 30.4102L82.7341 29.8836H77.1143ZM67.2472 30.5224C69.078 30.5224 70.5728 31.2435 71.7275 32.6979C72.8819 34.1527 73.454 36.1467 73.454 38.6716C73.454 41.0642 72.8736 42.9799 71.7103 44.4209C70.5469 45.8615 68.9986 46.5791 67.0746 46.5791C65.2261 46.5791 63.7272 45.8391 62.577 44.3519C61.4278 42.8646 60.8591 40.9338 60.8591 38.5594C60.8591 36.1195 61.4347 34.1663 62.5942 32.7065C63.7531 31.2482 65.3049 30.5224 67.2472 30.5224ZM92.0228 33.0259C91.76 33.0259 91.5597 33.1146 91.4098 33.2935C91.2565 33.4717 91.2096 33.6875 91.2631 33.9496C91.3149 34.2038 91.4582 34.4267 91.6861 34.6143C91.9126 34.8018 92.1571 34.8992 92.4199 34.8992C92.674 34.8992 92.8677 34.8018 93.0069 34.6143C93.146 34.4267 93.1885 34.2038 93.1364 33.9496C93.0828 33.6875 92.9444 33.4717 92.7306 33.2935C92.5145 33.1146 92.2769 33.0259 92.0228 33.0259ZM99.1274 34.8128C98.6809 36.5305 97.713 37.4599 96.2268 37.6098L96.2441 38.1019H97.9792L97.9447 43.9202C97.9475 44.915 97.9779 45.5773 98.0483 45.9144C98.2192 46.7214 98.7462 47.1316 99.6281 47.1316C100.904 47.1316 102.242 46.3544 103.642 44.8008L103.219 44.4382C102.209 45.4613 101.315 45.9748 100.534 45.9748C100.055 45.9748 99.7576 45.699 99.6453 45.1547C99.6146 45.0225 99.6022 44.8681 99.6022 44.6885L99.6194 38.1019H102.27L102.244 37.3163H99.6281V34.8128H99.1274ZM109.374 37.0055C107.892 37.0055 106.686 37.7251 105.749 39.155C104.816 40.5874 104.527 42.1743 104.894 43.9202C105.11 44.9429 105.54 45.7355 106.197 46.2942C106.854 46.8526 107.687 47.1316 108.684 47.1316C109.611 47.1316 110.903 46.8967 111.446 46.4237C111.991 45.9509 112.493 45.185 112.957 44.136L112.586 43.7476C111.846 45.1084 110.353 45.7935 109.228 45.7935C107.68 45.7935 106.732 44.9444 106.379 43.2555C106.333 43.0399 106.299 42.8084 106.275 42.5649C108.116 42.2734 109.512 41.7572 110.453 41.011C111.394 40.2645 112.339 39.4731 112.163 38.6371C112.058 38.1403 111.8 37.7497 111.403 37.4544C111.001 37.1593 109.957 37.0055 109.374 37.0055ZM93.1709 37.066L89.9768 37.7997V38.3695L91.0818 38.2314C91.617 38.2314 91.9319 38.4737 92.0314 38.9565C92.0649 39.1181 92.0859 39.345 92.0918 39.6298L92.0573 44.8526C92.0483 45.5753 91.9682 45.9954 91.8069 46.1215C91.6443 46.2479 91.2154 46.3115 90.5207 46.3115L90.5034 46.8035H95.5708L95.5621 46.3115C94.8581 46.3115 94.4016 46.2559 94.1982 46.1474C93.9983 46.0397 93.8605 45.8435 93.8011 45.5432C93.7552 45.3267 93.7351 44.9537 93.732 44.4382L93.7493 37.066H93.1709ZM108.563 38.0328C108.871 38.0328 109.169 38.1519 109.469 38.3867C109.765 38.6208 109.945 38.881 110.004 39.1637C110.293 40.5522 109.062 41.5121 106.292 42.047C106.213 41.0345 106.389 40.1154 106.836 39.2845C107.28 38.4545 107.859 38.0328 108.563 38.0328Z" fill="#003B57"></path>
    <path d="M43.8374 9.94371H16.3496C14.5073 9.94371 13 11.4513 13 13.2935V43.6075C13 45.4495 14.5073 46.9569 16.3496 46.9569H34.4538C34.2483 37.9488 37.3244 20.467 43.8374 9.94371Z" fill="#0F80CC"></path>
    <path d="M42.8389 10.9209H16.3497C15.0416 10.9209 13.9771 11.9851 13.9771 13.2935V41.3957C19.9763 39.0933 28.9804 37.1065 35.2062 37.1968C36.4573 30.6551 40.1342 17.8348 42.8389 10.9209Z" fill="url(#paint0_linear_2753_1845)"></path>
    <path d="M50.2491 8.95165C48.3665 7.27278 46.0871 7.94716 43.8375 9.94371C43.5036 10.2403 43.1703 10.5694 42.8388 10.9209C38.9904 15.0034 35.4183 22.5656 34.3085 28.3408C34.7408 29.2175 35.0785 30.3363 35.3009 31.191C35.3578 31.4102 35.4093 31.616 35.4504 31.7911C35.5481 32.2054 35.6006 32.4741 35.6006 32.4741C35.6006 32.4741 35.5661 32.3435 35.4245 31.933C35.3975 31.8543 35.3675 31.7683 35.3319 31.6671C35.3167 31.6253 35.2957 31.5746 35.2725 31.5204C35.0215 30.9368 34.3271 29.7051 34.0215 29.1689C33.7601 29.9399 33.5291 30.6613 33.3357 31.3139C34.218 32.9281 34.7556 35.6945 34.7556 35.6945C34.7556 35.6945 34.709 35.5152 34.4873 34.8895C34.2905 34.336 33.3102 32.6184 33.078 32.2169C32.6807 33.6833 32.5229 34.6734 32.6652 34.9144C32.9416 35.3815 33.2048 36.1875 33.4359 37.0788C33.958 39.0867 34.3209 41.531 34.3209 41.531C34.3209 41.531 34.3326 41.693 34.3523 41.9423C34.2798 43.6285 34.3233 45.3767 34.4538 46.9569C34.6268 49.0487 34.9525 50.8456 35.3675 51.8073L35.6493 51.6537C35.0398 49.759 34.7922 47.2759 34.9007 44.4123C35.0647 40.0352 36.0719 34.7566 37.9331 29.2548C41.0775 20.9496 45.44 14.2859 49.4328 11.1036C45.7936 14.3902 40.8682 25.0287 39.3937 28.9682C37.7429 33.3798 36.573 37.5197 35.8679 41.4861C37.0844 37.7676 41.0177 36.1693 41.0177 36.1693C41.0177 36.1693 42.9469 33.79 45.2014 30.3909C43.8509 30.6989 41.6334 31.2262 40.8906 31.5383C39.795 31.9979 39.4998 32.1547 39.4998 32.1547C39.4998 32.1547 43.0488 29.9934 46.0937 29.0148C50.2812 22.4195 54.8433 13.0501 50.2491 8.95165Z" fill="#003B57"></path>
  </g>
  <defs>
    <linearGradient id="paint0_linear_2753_1845" x1="30.6192" y1="11.5446" x2="30.6192" y2="39.701" gradientUnits="userSpaceOnUse">
      <stop stop-color="#97D9F6"></stop>
      <stop offset="0.920245" stop-color="#0F80CC"></stop>
      <stop offset="1" stop-color="#0F80CC"></stop>
    </linearGradient>
    <clipPath id="clip0_2753_1845">
      <rect width="100" height="44.4751" fill="white" transform="translate(13 8)"></rect>
    </clipPath>
  </defs>
</svg>
