<?xml version="1.0" encoding="UTF-8"?>
<svg xmlns="http://www.w3.org/2000/svg" width="125" height="60" viewBox="0 0 125 60" fill="none">
  <g clip-path="url(#clip0_2753_1852)">
    <path d="M59.1511 59.8941C56.389 59.3447 54.0042 57.4557 52.8449 54.8987C52.3349 53.7738 52.1178 52.7111 52.1216 51.3559C52.1319 47.4613 54.5809 44.2091 58.3855 43.0367C59.0864 42.8208 59.5489 42.7637 60.6235 42.7609C61.3685 42.7592 62.1901 42.7983 62.4493 42.8485L62.9205 42.9398L63.5003 41.8138C64.6845 39.5146 66.5299 37.7083 68.9156 36.5134C70.8837 35.5277 72.1205 35.241 74.405 35.241C76.0051 35.241 76.3763 35.2796 77.4087 35.5532C81.8668 36.7344 85.3415 40.2331 86.4352 44.6419C86.709 45.7458 86.8457 48.221 86.6863 49.192L86.5775 49.8551L87.2019 49.9948C88.7667 50.345 90.1171 51.4382 90.8075 52.9137C91.4903 54.3727 91.3654 56.2607 90.4946 57.64C90.0502 58.344 89.1789 59.1265 88.4519 59.4746C88.0792 59.653 87.6822 59.8472 87.5697 59.9062C87.3171 60.0388 59.8196 60.027 59.1511 59.8941ZM87.7377 58.2665C88.5113 57.8818 89.2765 57.0218 89.5944 56.1794C90.2542 54.4318 89.3741 52.4012 87.6183 51.62C87.1749 51.4227 86.8437 51.3771 85.9191 51.3858C85.2874 51.3918 84.7706 51.3519 84.7706 51.2972C84.7706 51.2426 84.8879 50.7299 85.0313 50.1579C85.3982 48.6946 85.3945 46.3614 85.0228 44.9364C84.2037 41.7942 82.08 39.1733 79.1753 37.7199C77.8988 37.0813 76.6847 36.7891 75.0258 36.7214C72.5711 36.6213 70.8573 37.0081 68.9687 38.0886C66.7665 39.3486 64.8682 41.6319 64.1323 43.9057C63.9908 44.343 63.8192 44.7001 63.751 44.6993C63.6824 44.6985 63.2824 44.5844 62.8613 44.4458C61.6897 44.0601 59.6917 44.0836 58.5225 44.4967C57.3455 44.9125 56.4983 45.4455 55.6161 46.3249C54.2938 47.6431 53.5593 49.4396 53.5593 51.3559C53.5593 54.2017 55.1268 56.6965 57.6771 57.9095C59.1428 58.6066 58.6356 58.5857 73.5213 58.5625L87.185 58.5412L87.7377 58.2665ZM48.3144 52.7587C43.3712 52.0888 39.5663 50.8476 36.7519 48.9868C35.5907 48.219 34.7889 47.3602 34.3368 46.4001L34.0001 45.6846L34.0309 26.3168L34.0618 6.94892L34.343 6.42124C35.0539 5.08736 36.44 3.94917 38.6468 2.88733C41.4371 1.54465 44.6549 0.705241 49.1389 0.150241C50.9855 -0.0783073 57.2561 -0.0378957 59.1511 0.214773C66.1295 1.14517 71.5449 3.42523 73.2712 6.15974C73.9514 7.23731 73.9338 6.84671 73.9338 20.9265V33.8534L73.551 33.9127C73.3405 33.9453 72.8635 34.0045 72.4911 34.0443C68.6482 34.4546 64.6629 37.1113 62.6201 40.6246L62.2018 41.3438L60.5587 41.4214C58.6173 41.5131 57.6281 41.7617 56.1521 42.5292C53.6177 43.8468 51.8064 46.1312 51.0678 48.9413C50.8638 49.7174 50.8035 50.28 50.7994 51.4443L50.7908 52.9461L50.1399 52.9322C49.7819 52.9245 48.959 52.8465 48.3112 52.7587H48.3144ZM58.3635 34.907C57.4362 34.1201 56.6343 33.438 56.5814 33.3914C56.5283 33.3448 56.7212 33.1684 57.0095 32.9994C57.6487 32.6248 58.4718 31.7282 58.8214 31.0256C59.6755 29.3089 59.6565 27.1736 58.7717 25.4745C57.7988 23.6057 55.7628 22.6254 53.4562 22.9151C52.1932 23.0737 51.4019 23.4279 50.5675 24.2085C49.2504 25.4406 48.7943 26.6494 48.8635 28.7242C48.9029 29.9039 48.9449 30.116 49.2823 30.8319C50.0084 32.373 51.5265 33.5248 53.073 33.7079C53.6549 33.7768 53.7053 33.815 54.8615 35.0583L56.0513 36.3377H58.0502H60.0492L58.3635 34.907ZM53.3192 30.8899C52.5091 30.4788 52.2015 29.7747 52.2015 28.331C52.2015 27.3917 52.2469 27.1175 52.4778 26.6477C52.8472 25.8977 53.5835 25.4468 54.3059 25.5283C55.0165 25.6083 55.3859 25.8958 55.7617 26.661C56.0469 27.2418 56.0881 27.4619 56.0848 28.3868C56.0848 29.5277 55.8788 30.1127 55.3049 30.6464C54.7055 31.204 54.0878 31.2798 53.3192 30.8899ZM45.1684 33.6239C47.2984 33.1326 48.4553 31.3488 47.842 29.502C47.5331 28.5721 46.8803 27.9913 45.2861 27.2278C44.5498 26.8752 43.8913 26.5146 43.8228 26.4266C43.5547 26.0822 43.5553 25.8542 43.8228 25.5407C44.2377 25.0584 45.1821 25.0354 46.4608 25.4763L47.4362 25.8127L47.4028 24.5109L47.3693 23.2091L46.7215 23.0551C45.7418 22.8222 43.6241 22.8336 42.791 23.0762C41.1204 23.5628 40.2401 24.6547 40.2456 26.2333C40.2542 27.8579 40.9832 28.628 43.5607 29.7217C44.6512 30.1844 44.7761 31.0491 43.8013 31.3877C43.3502 31.5443 43.2218 31.5413 42.508 31.357C42.072 31.2444 41.4107 30.9943 41.0381 30.8011L40.3608 30.4499V31.8592V33.2685L41.0381 33.4571C41.4107 33.5608 41.7684 33.6641 41.8332 33.6866C42.1025 33.7804 44.6991 33.7316 45.1657 33.6239H45.1684ZM67.9265 32.3917V31.1549H66.0419H64.1573V27.0911V23.0273H62.626H61.0947V28.3279V33.6285H64.5107H67.9265V32.3917ZM58.8567 11.1847C61.9283 10.8287 64.4488 10.1848 66.0419 9.34925C67.0885 8.8003 67.3395 8.60255 67.7418 8.00968C68.986 6.1763 66.2001 4.33289 60.8002 3.41645C55.727 2.55545 49.0414 2.75021 44.7623 3.88366C35.9333 6.22237 39.4139 10.5184 50.8238 11.3654C52.6964 11.5044 56.9172 11.4095 58.8567 11.1847Z" fill="#00BCF2"></path>
  </g>
  <defs>
    <clipPath id="clip0_2753_1852">
      <rect width="57.2451" height="60" fill="white" transform="translate(34)"></rect>
    </clipPath>
  </defs>
</svg>
