<?xml version="1.0" encoding="UTF-8"?>
<svg xmlns="http://www.w3.org/2000/svg" width="125" height="60" viewBox="0 0 125 60" fill="none">
  <g clip-path="url(#clip0_2753_1844)">
    <path d="M28.76 33.38H16.5C16.92 35.7 18.56 37.12 20.54 37.12C21.8 37.12 23.38 36.96 24.54 34.98L28.34 35.78C26.92 39.14 24.04 40.76 20.52 40.76C15.96 40.76 12.26 37.3 12.26 32.24C12.26 27.18 15.98 23.68 20.58 23.68C24.88 23.68 28.58 27 28.74 31.92V33.38H28.76ZM16.62 30.38H24.4C23.86 28.32 22.3 27.4 20.6 27.4C18.98 27.42 17.14 28.38 16.62 30.38Z" fill="#3D4952"></path>
    <path d="M74.22 40.3H69.96V38.92C68.66 40.12 66.9 40.8 64.64 40.8C60.54 40.8 56.74 37.34 56.74 32.28C56.74 27.22 60.54 23.72 64.64 23.72C66.9 23.72 68.68 24.4 69.96 25.6V18H74.22V40.3ZM69.96 32.26C69.96 29.28 67.66 27.42 65.38 27.42C62.8 27.42 60.86 29.3 60.86 32.26C60.86 35.24 62.8 37.06 65.38 37.06C67.68 37.06 69.96 35.22 69.96 32.26Z" fill="#3D4952"></path>
    <path d="M109.08 24.22H103.2V27.78H109.08C110.72 27.78 111.82 28.48 111.82 30.1V30.36H107.18C103.12 30.36 100.78 32.42 100.78 35.52C100.78 38.68 103.24 40.78 106.92 40.78C109.12 40.78 110.72 40.04 111.82 38.98V40.3H115.9V29.78C115.9 25.94 113.2 24.3 109.08 24.22ZM111.82 33.78C111.82 35.84 109.86 37.4 107.6 37.4C105.96 37.4 104.86 36.62 104.86 35.44C104.86 34.34 105.76 33.6 107.12 33.6H111.84V33.78H111.82Z" fill="#3D4952"></path>
    <path d="M83.9001 24.22H78.0201V27.78H83.9001C85.5401 27.78 86.6401 28.48 86.6401 30.1V30.36H82.0001C77.9401 30.36 75.6001 32.42 75.6001 35.52C75.6001 38.68 78.0601 40.78 81.7401 40.78C83.9401 40.78 85.5401 40.04 86.6401 38.98V40.3H90.7001V29.78C90.7001 25.94 88.0001 24.3 83.9001 24.22ZM86.6401 33.78C86.6401 35.84 84.6801 37.4 82.4201 37.4C80.7801 37.4 79.6801 36.62 79.6801 35.44C79.6801 34.34 80.5801 33.6 81.9401 33.6H86.6601V33.78H86.6401Z" fill="#3D4952"></path>
    <path d="M48.4799 24.22H42.5999V27.78H48.4799C50.1199 27.78 51.2199 28.48 51.2199 30.1V30.36H46.5799C42.5199 30.36 40.1799 32.42 40.1799 35.52C40.1799 38.68 42.6399 40.78 46.3199 40.78C48.5199 40.78 50.1199 40.04 51.2199 38.98V40.3H55.2999V29.78C55.2999 25.94 52.5999 24.3 48.4799 24.22ZM51.2199 33.78C51.2199 35.84 49.2599 37.4 46.9999 37.4C45.3599 37.4 44.2599 36.62 44.2599 35.44C44.2599 34.34 45.1599 33.6 46.5199 33.6H51.2399V33.78H51.2199Z" fill="#3D4952"></path>
    <path d="M40.32 24.2C37.7 24.2 35.84 25.24 34.54 27.12V24.18H30.28V40.28H34.54V35.08C34.54 30.6 36.34 27.78 40.28 27.78H40.48V24.2C40.42 24.2 40.38 24.2 40.32 24.2Z" fill="#3D4952"></path>
    <path d="M11.46 36.4C10.82 36.64 10.14 36.8 9.62 36.8C8.2 36.8 7.26 35.96 7.26 34.02V27.66H11.62V24.18H7.26V20.24H3V27.68V34.36C3 38.78 5.52 40.78 9.32 40.78C10.66 40.78 11.96 40.5 13.6 39.6C12.74 38.72 11.92 37.64 11.46 36.4Z" fill="#3D4952"></path>
    <path d="M99.4401 36.76C99.2601 36.78 99.1001 36.8 98.9601 36.8C97.5401 36.8 96.6001 35.96 96.6001 34.02V27.66H101.08V24.18H96.6001V20.24H92.3401V27.68V34.36C92.3401 38.78 94.8601 40.78 98.6601 40.78C99.6001 40.78 100.42 40.64 101.4 40.26C100.14 39.36 99.6601 37.88 99.4401 36.76Z" fill="#3D4952"></path>
    <path d="M123 37.84C123 39.36 121.84 40.54 120.2 40.54C118.58 40.54 117.4 39.38 117.4 37.84C117.4 36.38 118.56 35.12 120.2 35.12C121.84 35.12 123 36.4 123 37.84Z" fill="#F06F37"></path>
  </g>
  <defs>
    <clipPath id="clip0_2753_1844">
      <rect width="120" height="22.8" fill="white" transform="translate(3 18)"></rect>
    </clipPath>
  </defs>
</svg>
